<?xml version="1.0" encoding="UTF-8"?>
<!DOCTYPE svg PUBLIC "-//W3C//DTD SVG 1.1//EN" "http://www.w3.org/Graphics/SVG/1.1/DTD/svg11.dtd">
<!-- Creator: CorelDRAW 2020 (64-Bit) -->
<svg xmlns="http://www.w3.org/2000/svg" xml:space="preserve" width="71px" height="71px" version="1.1" style="shape-rendering:geometricPrecision; text-rendering:geometricPrecision; image-rendering:optimizeQuality; fill-rule:evenodd; clip-rule:evenodd"
viewBox="0 0 1.02 1.02"
 xmlns:xlink="http://www.w3.org/1999/xlink"
 xmlns:xodm="http://www.corel.com/coreldraw/odm/2003">
 <defs>
  <style type="text/css">
   <![CDATA[
    .fil1 {fill:none;fill-rule:nonzero}
    .fil0 {fill:#2B2A29}
   ]]>
  </style>
 </defs>
 <g id="Plan_x0020_1">
  <metadata id="CorelCorpID_0Corel-Layer"/>
  <g id="_2744570718608">
   <path class="fil0" d="M0.37 0.1l0 0.34 -0.27 0 0 0.48 0.55 0 0 -0.82 -0.28 0 0 0zm0.07 0.07l0.14 0 0 0.68 -0.41 0 0 -0.34 0.2 0 0 0.14 -0.01 0c-0.03,0 -0.05,0.02 -0.05,0.05l0 0.02 0.13 0 0 -0.55 0 0 0 0zm0.28 -0.07l0 0.2 0.2 0 0 -0.2 -0.2 0zm0.14 0.14l-0.07 0 0 -0.07 0.07 0 0 0.07z"/>
   <polygon class="fil1" points="1.02,1.02 0,1.02 0,0 1.02,0 "/>
  </g>
 </g>
</svg>
