<?xml version="1.0" encoding="UTF-8"?>
<!DOCTYPE svg PUBLIC "-//W3C//DTD SVG 1.1//EN" "http://www.w3.org/Graphics/SVG/1.1/DTD/svg11.dtd">
<!-- Creator: CorelDRAW 2020 (64-Bit Version dՎvaluation) -->
<svg xmlns="http://www.w3.org/2000/svg" xml:space="preserve" width="50px" height="50px" version="1.1" style="shape-rendering:geometricPrecision; text-rendering:geometricPrecision; image-rendering:optimizeQuality; fill-rule:evenodd; clip-rule:evenodd"
viewBox="0 0 0.68 0.68"
 xmlns:xlink="http://www.w3.org/1999/xlink"
 xmlns:xodm="http://www.corel.com/coreldraw/odm/2003">
 <defs>
  <style type="text/css">
   <![CDATA[
    .fil0 {fill:none;fill-rule:nonzero}
    .fil1 {fill:#383838;fill-rule:nonzero}
   ]]>
  </style>
 </defs>
 <g id="Plan_x0020_1">
  <metadata id="CorelCorpID_0Corel-Layer"/>
  <g id="_2126764273280">
   <polygon class="fil0" points="0.68,0.68 0,0.68 0,0 0.68,0 "/>
  </g>
  <g id="_2126764274576">
   <g>
    <path class="fil1" d="M0.34 0.17c-0.05,0 -0.08,-0.04 -0.08,-0.08 0,-0.05 0.03,-0.09 0.08,-0.09 0.05,0 0.09,0.04 0.09,0.09 0,0.04 -0.04,0.08 -0.09,0.08zm0 -0.11l0 0c-0.01,0 -0.03,0.01 -0.03,0.03 0,0.01 0.02,0.02 0.03,0.02 0.02,0 0.03,-0.01 0.03,-0.02 0,-0.02 -0.01,-0.03 -0.03,-0.03z"/>
   </g>
   <g>
    <path class="fil1" d="M0.4 0.57l-0.12 0c-0.01,0 -0.02,-0.01 -0.02,-0.03l0 -0.11 -0.03 0c-0.02,0 -0.03,-0.02 -0.03,-0.03l0 -0.06c0,-0.08 0.06,-0.14 0.14,-0.14 0.08,0 0.14,0.06 0.14,0.14l0 0.06c0,0.01 -0.01,0.03 -0.02,0.03l-0.03 0 0 0.11c0,0.02 -0.02,0.03 -0.03,0.03zm-0.09 -0.06l0 0 0.06 0 0 -0.11c0,-0.02 0.01,-0.03 0.03,-0.03l0.03 0 0 -0.03c0,-0.05 -0.04,-0.08 -0.09,-0.08 -0.05,0 -0.08,0.03 -0.08,0.08l0 0.03 0.02 0c0.02,0 0.03,0.01 0.03,0.03l0 0.11z"/>
   </g>
   <g>
    <path class="fil1" d="M0.34 0.68c-0.14,0 -0.28,-0.03 -0.28,-0.11 0,-0.03 0.02,-0.07 0.11,-0.09l0.01 0.05c-0.05,0.02 -0.07,0.04 -0.07,0.04 0,0.01 0.08,0.06 0.23,0.06 0.15,0 0.23,-0.05 0.23,-0.06 0,0 -0.01,-0.02 -0.06,-0.04l0.01 -0.05c0.09,0.03 0.11,0.06 0.11,0.09 0,0.08 -0.15,0.11 -0.29,0.11z"/>
   </g>
  </g>
 </g>
</svg>
