<?xml version="1.0" encoding="UTF-8"?>
<!DOCTYPE svg PUBLIC "-//W3C//DTD SVG 1.1//EN" "http://www.w3.org/Graphics/SVG/1.1/DTD/svg11.dtd">
<!-- Creator: CorelDRAW 2020 (64-Bit Version dՎvaluation) -->
<svg xmlns="http://www.w3.org/2000/svg" xml:space="preserve" width="100px" height="100px" version="1.1" style="shape-rendering:geometricPrecision; text-rendering:geometricPrecision; image-rendering:optimizeQuality; fill-rule:evenodd; clip-rule:evenodd"
viewBox="0 0 8.58 8.58"
 xmlns:xlink="http://www.w3.org/1999/xlink"
 xmlns:xodm="http://www.corel.com/coreldraw/odm/2003">
 <defs>
  <style type="text/css">
   <![CDATA[
    .fil0 {fill:none;fill-rule:nonzero}
    .fil1 {fill:#383838;fill-rule:nonzero}
   ]]>
  </style>
 </defs>
 <g id="Plan_x0020_1">
  <metadata id="CorelCorpID_0Corel-Layer"/>
  <g id="_1481962506816">
   <polygon class="fil0" points="8.58,8.58 0,8.58 0,0 8.58,0 "/>
   <g>
    <path class="fil1" d="M4.29 2.71l0 1.79 1.79 0c0,-0.99 -0.8,-1.79 -1.79,-1.79z"/>
    <path class="fil1" d="M5.87 0.36l-4.08 0c-0.4,0 -0.72,0.32 -0.72,0.71l0 6.44c0,0.39 0.32,0.71 0.72,0.71l5 0c0.4,0 0.72,-0.32 0.72,-0.71l0 -5.51 -1.64 -1.64zm-4.08 7.15l0 0 0 -6.44 3.57 0 0 1.43 1.43 0 0 5.01 -5 0z"/>
    <path class="fil1" d="M3.58 3.17c-0.63,0.22 -1.08,0.81 -1.08,1.51 0,0.89 0.72,1.61 1.61,1.61 0.7,0 1.29,-0.45 1.51,-1.08l-2.04 0 0 -2.04z"/>
   </g>
  </g>
 </g>
</svg>
