<?xml version="1.0" encoding="UTF-8"?>
<!DOCTYPE svg PUBLIC "-//W3C//DTD SVG 1.1//EN" "http://www.w3.org/Graphics/SVG/1.1/DTD/svg11.dtd">
<!-- Creator: CorelDRAW 2020 (64-Bit Version dՎvaluation) -->
<svg xmlns="http://www.w3.org/2000/svg" xml:space="preserve" width="100px" height="100px" version="1.1" style="shape-rendering:geometricPrecision; text-rendering:geometricPrecision; image-rendering:optimizeQuality; fill-rule:evenodd; clip-rule:evenodd"
viewBox="0 0 4.74 4.74"
 xmlns:xlink="http://www.w3.org/1999/xlink"
 xmlns:xodm="http://www.corel.com/coreldraw/odm/2003">
 <defs>
  <style type="text/css">
   <![CDATA[
    .fil0 {fill:none;fill-rule:nonzero}
    .fil1 {fill:#383838;fill-rule:nonzero}
   ]]>
  </style>
 </defs>
 <g id="Plan_x0020_1">
  <metadata id="CorelCorpID_0Corel-Layer"/>
  <g id="_1518708955664">
   <polygon class="fil0" points="4.74,4.74 0,4.74 0,0 4.74,0 "/>
   <g>
    <path class="fil1" d="M3.75 3.95c-0.11,0 -0.2,0.08 -0.2,0.19 0,0.11 0.09,0.2 0.2,0.2 0.11,0 0.2,-0.09 0.2,-0.2 0,-0.11 -0.09,-0.19 -0.2,-0.19z"/>
    <path class="fil1" d="M0.99 3.95c-0.11,0 -0.2,0.08 -0.2,0.19 0,0.11 0.09,0.2 0.2,0.2 0.11,0 0.19,-0.09 0.19,-0.2 0,-0.11 -0.08,-0.19 -0.19,-0.19z"/>
    <path class="fil1" d="M3.95 0.99l-1.63 0 -0.33 -0.44c-0.07,-0.1 -0.19,-0.16 -0.31,-0.16l-0.89 0c-0.22,0 -0.4,0.18 -0.4,0.4l0 2.17c0,0.22 0.18,0.39 0.4,0.39l1.38 0 0 0.6 -0.59 0 0 0.39 1.58 0 0 -0.39 -0.6 0 0 -0.6 1.39 0c0.21,0 0.39,-0.17 0.39,-0.39l0 -1.58c0,-0.22 -0.18,-0.39 -0.39,-0.39zm-3.16 1.97l0 0 0 -2.17 0.89 0 0.32 0.43c0.08,0.1 0.19,0.16 0.32,0.16l1.63 0 0 1.58 -3.16 0z"/>
   </g>
  </g>
 </g>
</svg>
