<?xml version="1.0" encoding="UTF-8"?>
<!DOCTYPE svg PUBLIC "-//W3C//DTD SVG 1.1//EN" "http://www.w3.org/Graphics/SVG/1.1/DTD/svg11.dtd">
<!-- Creator: CorelDRAW 2020 (64-Bit Version dՎvaluation) -->
<svg xmlns="http://www.w3.org/2000/svg" xml:space="preserve" width="100px" height="100px" version="1.1" style="shape-rendering:geometricPrecision; text-rendering:geometricPrecision; image-rendering:optimizeQuality; fill-rule:evenodd; clip-rule:evenodd"
viewBox="0 0 8.58 8.58"
 xmlns:xlink="http://www.w3.org/1999/xlink"
 xmlns:xodm="http://www.corel.com/coreldraw/odm/2003">
 <defs>
  <style type="text/css">
   <![CDATA[
    .fil0 {fill:none;fill-rule:nonzero}
    .fil1 {fill:#383838;fill-rule:nonzero}
   ]]>
  </style>
 </defs>
 <g id="Plan_x0020_1">
  <metadata id="CorelCorpID_0Corel-Layer"/>
  <g id="_1518770784624">
   <polygon class="fil0" points="8.58,8.58 0,8.58 0,0 8.58,0 "/>
   <g>
    <path class="fil1" d="M7.15 7.87l-6.44 0c-0.19,0 -0.35,-0.16 -0.35,-0.36l0 -6.44c0,-0.19 0.16,-0.36 0.35,-0.36l5.73 0c0.19,0 0.35,0.17 0.35,0.36l0 1.08 1.08 0c0.19,0 0.35,0.16 0.35,0.35l0 4.29c0,0.1 -0.03,0.19 -0.1,0.26l-0.72 0.71c-0.06,0.07 -0.15,0.11 -0.25,0.11zm-0.36 -0.72l0 0 0.21 0 0.51 -0.51 0 -3.78 -0.72 0 0 4.29zm-5.72 0l0 0 5.01 0 0 -5.72 -5.01 0 0 5.72z"/>
    <polygon class="fil1" points="5.01,3.22 1.79,3.22 1.79,2.15 5.01,2.15 "/>
    <polygon class="fil1" points="3.22,4.29 1.79,4.29 1.79,3.58 3.22,3.58 "/>
    <polygon class="fil1" points="5.01,4.29 3.58,4.29 3.58,3.58 5.01,3.58 "/>
    <polygon class="fil1" points="3.22,5.36 1.79,5.36 1.79,4.65 3.22,4.65 "/>
    <polygon class="fil1" points="5.01,5.36 3.58,5.36 3.58,4.65 5.01,4.65 "/>
    <polygon class="fil1" points="3.22,6.44 1.79,6.44 1.79,5.72 3.22,5.72 "/>
    <polygon class="fil1" points="5.01,6.44 3.58,6.44 3.58,5.72 5.01,5.72 "/>
   </g>
  </g>
 </g>
</svg>
