<?xml version="1.0" encoding="UTF-8"?>
<!DOCTYPE svg PUBLIC "-//W3C//DTD SVG 1.1//EN" "http://www.w3.org/Graphics/SVG/1.1/DTD/svg11.dtd">
<!-- Creator: CorelDRAW 2020 (64-Bit Version dՎvaluation) -->
<svg xmlns="http://www.w3.org/2000/svg" xml:space="preserve" width="100px" height="100px" version="1.1" style="shape-rendering:geometricPrecision; text-rendering:geometricPrecision; image-rendering:optimizeQuality; fill-rule:evenodd; clip-rule:evenodd"
viewBox="0 0 6.1 6.1"
 xmlns:xlink="http://www.w3.org/1999/xlink"
 xmlns:xodm="http://www.corel.com/coreldraw/odm/2003">
 <defs>
  <style type="text/css">
   <![CDATA[
    .fil0 {fill:none;fill-rule:nonzero}
    .fil1 {fill:#383838;fill-rule:nonzero}
   ]]>
  </style>
 </defs>
 <g id="Plan_x0020_1">
  <metadata id="CorelCorpID_0Corel-Layer"/>
  <g id="_1518768818848">
   <polygon class="fil0" points="6.1,6.1 0,6.1 0,0 6.1,0 "/>
   <path class="fil1" d="M5.09 3.31c0,0.28 -0.23,0.5 -0.51,0.5 -0.28,0 -0.51,-0.22 -0.51,-0.5 0,-0.29 0.23,-0.51 0.51,-0.51 0.28,0 0.51,0.22 0.51,0.51z"/>
   <g>
    <path class="fil1" d="M2.54 4.07l-2.03 0c-0.28,0 -0.51,-0.23 -0.51,-0.51l0 -3.05c0,-0.28 0.23,-0.51 0.51,-0.51l4.07 0c0.28,0 0.51,0.23 0.51,0.51l0 0.76 -0.51 0 0 -0.76 -4.07 0 0 3.05 2.03 0 0 0.51z"/>
    <path class="fil1" d="M2.54 3.31l-1.52 0c-0.14,0 -0.26,-0.12 -0.26,-0.26l0 -2.03c0,-0.14 0.12,-0.26 0.26,-0.26l3.05 0c0.14,0 0.25,0.12 0.25,0.26l0 0.25 -3.05 0 0 1.53 1.27 0 0 0.51z"/>
    <path class="fil1" d="M6.1 3.31c0,-0.85 -0.68,-1.53 -1.52,-1.53 -0.84,0 -1.53,0.68 -1.53,1.53 0,0.53 0.28,1 0.69,1.27l-0.18 1.23c-0.01,0.1 0.03,0.2 0.12,0.25 0.08,0.06 0.19,0.06 0.28,0l0.62 -0.41 0.62 0.41c0.04,0.03 0.09,0.04 0.14,0.04 0.05,0 0.09,-0.01 0.14,-0.04 0.08,-0.05 0.13,-0.15 0.11,-0.25l-0.17 -1.23c0.41,-0.27 0.68,-0.74 0.68,-1.27zm-1.52 1.01l0 0c-0.56,0 -1.02,-0.45 -1.02,-1.01 0,-0.57 0.46,-1.02 1.02,-1.02 0.56,0 1.01,0.45 1.01,1.02 0,0.56 -0.45,1.01 -1.01,1.01z"/>
   </g>
  </g>
 </g>
</svg>
