<?xml version="1.0" encoding="UTF-8"?>
<!DOCTYPE svg PUBLIC "-//W3C//DTD SVG 1.1//EN" "http://www.w3.org/Graphics/SVG/1.1/DTD/svg11.dtd">
<!-- Creator: CorelDRAW 2020 (64-Bit Version dՎvaluation) -->
<svg xmlns="http://www.w3.org/2000/svg" xml:space="preserve" width="59px" height="59px" version="1.1" style="shape-rendering:geometricPrecision; text-rendering:geometricPrecision; image-rendering:optimizeQuality; fill-rule:evenodd; clip-rule:evenodd"
viewBox="0 0 0.86 0.86"
 xmlns:xlink="http://www.w3.org/1999/xlink"
 xmlns:xodm="http://www.corel.com/coreldraw/odm/2003">
 <defs>
  <style type="text/css">
   <![CDATA[
    .fil0 {fill:none;fill-rule:nonzero}
    .fil1 {fill:#383838;fill-rule:nonzero}
   ]]>
  </style>
 </defs>
 <g id="Plan_x0020_1">
  <metadata id="CorelCorpID_0Corel-Layer"/>
  <g id="_2126565298752">
   <g>
    <polygon class="fil0" points="0.86,0.86 0,0.86 0,0 0.86,0 "/>
   </g>
   <g>
    <path class="fil1" d="M0.39 0.43l-0.21 0c-0.06,0 -0.11,-0.05 -0.11,-0.11 0,-0.06 0.05,-0.11 0.11,-0.11 0.02,0 0.04,0.01 0.06,0.02 0.01,0.01 0.02,0.01 0.03,0 0.01,0 0.02,-0.01 0.02,-0.02 0.02,-0.08 0.09,-0.14 0.17,-0.14 0.1,0 0.18,0.08 0.18,0.18 0,0.03 0,0.05 -0.01,0.07l0.07 0c0.01,-0.02 0.01,-0.05 0.01,-0.07 0,-0.14 -0.11,-0.25 -0.25,-0.25 -0.1,0 -0.19,0.06 -0.23,0.15 -0.01,0 -0.03,-0.01 -0.05,-0.01 -0.1,0 -0.18,0.08 -0.18,0.18 0,0.1 0.08,0.18 0.18,0.18l0.21 0 0 -0.07z"/>
    <path class="fil1" d="M0.74 0.4c-0.02,-0.01 -0.04,-0.01 -0.05,0l-0.25 0.25c-0.01,0.01 -0.01,0.01 -0.01,0.02l-0.04 0.14c0,0.01 0,0.03 0.01,0.04 0.01,0 0.02,0.01 0.04,0l0.14 -0.03c0.01,0 0.01,-0.01 0.02,-0.01l0.25 -0.25c0.01,-0.01 0.01,-0.04 0,-0.05l-0.11 -0.11zm-0.19 0.35l0 0 -0.07 0.02 0.02 -0.07 0.11 -0.11 0.05 0.05 -0.11 0.11zm0.16 -0.16l0 0 -0.05 -0.06 0.05 -0.05 0.06 0.05 -0.06 0.06z"/>
   </g>
  </g>
 </g>
</svg>
