<?xml version="1.0" encoding="UTF-8"?>
<!DOCTYPE svg PUBLIC "-//W3C//DTD SVG 1.1//EN" "http://www.w3.org/Graphics/SVG/1.1/DTD/svg11.dtd">
<!-- Creator: CorelDRAW 2020 (64-Bit Version dՎvaluation) -->
<svg xmlns="http://www.w3.org/2000/svg" xml:space="preserve" width="100px" height="100px" version="1.1" style="shape-rendering:geometricPrecision; text-rendering:geometricPrecision; image-rendering:optimizeQuality; fill-rule:evenodd; clip-rule:evenodd"
viewBox="0 0 9.24 9.24"
 xmlns:xlink="http://www.w3.org/1999/xlink"
 xmlns:xodm="http://www.corel.com/coreldraw/odm/2003">
 <defs>
  <style type="text/css">
   <![CDATA[
    .fil0 {fill:none;fill-rule:nonzero}
    .fil1 {fill:#DBDBDB;fill-rule:nonzero}
   ]]>
  </style>
 </defs>
 <g id="Plan_x0020_1">
  <metadata id="CorelCorpID_0Corel-Layer"/>
  <polygon class="fil0" points="9.24,9.24 0,9.24 0,0 9.24,0 "/>
  <path class="fil1" d="M8.47 4.62l-3.81 -3.81 -0.55 0.54 0.55 0.55 0 0 -1.91 1.9 0 0 -0.54 -0.54 -0.55 0.54 1.64 1.64 -2.18 2.17 0.54 0.55 2.18 -2.18 1.63 1.63 0.55 -0.54 -0.55 -0.54 1.91 -1.91 0 0 0.54 0.54 0.55 -0.54zm-3.54 1.36l0 0 0 0 -1.63 -1.63 1.9 -1.91 1.64 1.64 -1.91 1.9z"/>
 </g>
</svg>
