<?xml version="1.0" encoding="UTF-8"?>
<!DOCTYPE svg PUBLIC "-//W3C//DTD SVG 1.1//EN" "http://www.w3.org/Graphics/SVG/1.1/DTD/svg11.dtd">
<!-- Creator: CorelDRAW 2019 (64-Bit) -->
<svg xmlns="http://www.w3.org/2000/svg" xml:space="preserve" width="273px" height="273px" version="1.1" style="shape-rendering:geometricPrecision; text-rendering:geometricPrecision; image-rendering:optimizeQuality; fill-rule:evenodd; clip-rule:evenodd"
viewBox="0 0 35.15 35.15"
 xmlns:xlink="http://www.w3.org/1999/xlink">
 <defs>
  <style type="text/css">
   <![CDATA[
    .fil0 {fill:none;fill-rule:nonzero}
    .fil1 {fill:#363636;fill-rule:nonzero}
   ]]>
  </style>
 </defs>
 <g id="Plan_x0020_1">
  <metadata id="CorelCorpID_0Corel-Layer"/>
  <g id="_1712235007344">
   <g>
    <polygon class="fil0" points="35.15,35.15 0,35.15 0,0 35.15,0 "/>
   </g>
   <g>
    <path class="fil1" d="M14.64 23.43c0,-2.7 1.7,-4.39 4.4,-4.39 2.69,0 4.39,1.69 4.39,4.39l-8.79 0z"/>
    <path class="fil1" d="M21.97 14.64c0,1.62 -1.32,2.93 -2.93,2.93 -1.62,0 -2.93,-1.31 -2.93,-2.93 0,-1.61 1.31,-2.92 2.93,-2.92 1.61,0 2.93,1.31 2.93,2.92z"/>
    <path class="fil1" d="M27.82 2.93l-17.57 0c-1.61,0 -2.93,1.31 -2.93,2.93l0 2.93 -2.93 0 0 2.93 2.93 0 0 4.39 -2.93 0 0 2.93 2.93 0 0 4.39 -2.93 0 0 2.93 2.93 0 0 2.93c0,1.61 1.32,2.93 2.93,2.93l17.57 0c1.62,0 2.93,-1.32 2.93,-2.93l0 -23.43c0,-1.62 -1.31,-2.93 -2.93,-2.93zm-17.57 26.36l0 0 0 -2.93 1.47 0 0 -2.93 -1.47 0 0 -4.39 1.47 0 0 -2.93 -1.47 0 0 -4.39 1.47 0 0 -2.93 -1.47 0 0 -2.93 17.57 0 0.01 23.43 -17.58 0z"/>
   </g>
  </g>
 </g>
</svg>
