<?xml version="1.0" encoding="UTF-8"?>
<!DOCTYPE svg PUBLIC "-//W3C//DTD SVG 1.1//EN" "http://www.w3.org/Graphics/SVG/1.1/DTD/svg11.dtd">
<!-- Creator: CorelDRAW 2019 (64-Bit) -->
<svg xmlns="http://www.w3.org/2000/svg" xml:space="preserve" width="273px" height="273px" version="1.1" style="shape-rendering:geometricPrecision; text-rendering:geometricPrecision; image-rendering:optimizeQuality; fill-rule:evenodd; clip-rule:evenodd"
viewBox="0 0 35.14 35.14"
 xmlns:xlink="http://www.w3.org/1999/xlink">
 <defs>
  <style type="text/css">
   <![CDATA[
    .fil0 {fill:none;fill-rule:nonzero}
    .fil1 {fill:#363636;fill-rule:nonzero}
   ]]>
  </style>
 </defs>
 <g id="Plan_x0020_1">
  <metadata id="CorelCorpID_0Corel-Layer"/>
  <g id="_1711923512096">
   <g>
    <polygon class="fil0" points="35.14,35.14 0,35.14 0,0 35.14,0 "/>
   </g>
   <path class="fil1" d="M30.75 2.93l-26.36 0c-1.61,0 -2.93,1.31 -2.93,2.93l0 23.43c0,1.61 1.32,2.93 2.93,2.93l26.36 0c1.62,0 2.93,-1.32 2.93,-2.93l0 -23.43c0,-1.62 -1.31,-2.93 -2.93,-2.93zm0 5.86l0 0 -11.71 0 0 -2.93 11.71 0 0 2.93zm-19.04 0l0 0 0 -2.93 4.4 0 0 2.93 -4.4 0zm-2.92 -2.93l0 0 0 2.93 -4.4 0 0 -2.93 4.4 0zm-4.4 23.43l0 0 0 -17.57 26.36 0 0 17.57 -26.36 0z"/>
  </g>
 </g>
</svg>
