<?xml version="1.0" encoding="UTF-8"?>
<!DOCTYPE svg PUBLIC "-//W3C//DTD SVG 1.1//EN" "http://www.w3.org/Graphics/SVG/1.1/DTD/svg11.dtd">
<!-- Creator: CorelDRAW 2019 (64-Bit) -->
<svg xmlns="http://www.w3.org/2000/svg" xml:space="preserve" width="273px" height="273px" version="1.1" style="shape-rendering:geometricPrecision; text-rendering:geometricPrecision; image-rendering:optimizeQuality; fill-rule:evenodd; clip-rule:evenodd"
viewBox="0 0 13.31 13.31"
 xmlns:xlink="http://www.w3.org/1999/xlink">
 <defs>
  <style type="text/css">
   <![CDATA[
    .fil0 {fill:none;fill-rule:nonzero}
    .fil1 {fill:#363636;fill-rule:nonzero}
   ]]>
  </style>
 </defs>
 <g id="Plan_x0020_1">
  <metadata id="CorelCorpID_0Corel-Layer"/>
  <g id="_1711957294176">
   <g>
    <polygon class="fil0" points="13.31,13.31 0,13.31 0,0 13.31,0 "/>
   </g>
   <g>
    <path class="fil1" d="M11.65 1.66l-1.67 0 0 -1.11 -1.11 0 0 3.33 1.11 0 0 -1.11 1.67 0 0 8.32 -9.99 0 0 -8.32 1.11 0 0 -1.11 -1.11 0c-0.61,0 -1.11,0.5 -1.11,1.11l0 8.32c0,0.61 0.5,1.11 1.11,1.11l9.99 0c0.61,0 1.11,-0.5 1.11,-1.11l0 -8.32c0,-0.61 -0.5,-1.11 -1.11,-1.11z"/>
    <polygon class="fil1" points="4.44,2.77 8.32,2.77 8.32,1.66 4.44,1.66 4.44,0.55 3.33,0.55 3.33,3.88 4.44,3.88 "/>
    <polygon class="fil1" points="4.99,4.99 2.77,4.99 2.77,7.21 4.99,7.21 "/>
    <polygon class="fil1" points="7.76,4.99 5.55,4.99 5.55,7.21 7.76,7.21 "/>
    <polygon class="fil1" points="8.32,7.21 10.54,7.21 10.54,4.99 8.32,4.99 "/>
    <polygon class="fil1" points="2.77,9.98 4.99,9.98 4.99,7.76 2.77,7.76 "/>
    <polygon class="fil1" points="5.55,9.98 7.76,9.98 7.76,7.76 5.55,7.76 "/>
   </g>
  </g>
 </g>
</svg>
