<?xml version="1.0" encoding="UTF-8"?>
<!DOCTYPE svg PUBLIC "-//W3C//DTD SVG 1.1//EN" "http://www.w3.org/Graphics/SVG/1.1/DTD/svg11.dtd">
<!-- Creator: CorelDRAW 2019 (64-Bit) -->
<svg xmlns="http://www.w3.org/2000/svg" xml:space="preserve" width="273px" height="273px" version="1.1" style="shape-rendering:geometricPrecision; text-rendering:geometricPrecision; image-rendering:optimizeQuality; fill-rule:evenodd; clip-rule:evenodd"
viewBox="0 0 19.89 19.89"
 xmlns:xlink="http://www.w3.org/1999/xlink">
 <defs>
  <style type="text/css">
   <![CDATA[
    .fil0 {fill:none;fill-rule:nonzero}
    .fil1 {fill:#363636;fill-rule:nonzero}
   ]]>
  </style>
 </defs>
 <g id="Plan_x0020_1">
  <metadata id="CorelCorpID_0Corel-Layer"/>
  <g id="_1712260481760">
   <g>
    <polygon class="fil0" points="19.89,19.89 0,19.89 0,0 19.89,0 "/>
   </g>
   <g>
    <g>
     <path class="fil1" d="M16.58 18.24l-14.92 0c-0.46,0 -0.83,-0.37 -0.83,-0.83l0 -14.92c0,-0.46 0.37,-0.83 0.83,-0.83l13.26 0c0.46,0 0.83,0.37 0.83,0.83l0 2.48 2.49 0c0.45,0 0.83,0.38 0.83,0.83l0 9.95c0,0.22 -0.09,0.43 -0.25,0.59l-1.65 1.65c-0.16,0.16 -0.37,0.25 -0.59,0.25zm-0.83 -1.66l0 0 0.49 0 1.17 -1.17 0 -8.78 -1.66 0 0 9.95zm-13.26 0l0 0 11.6 0 0 -13.26 -11.6 0 0 13.26z"/>
    </g>
    <g>
     <polygon class="fil1" points="11.61,7.46 4.14,7.46 4.14,4.97 11.61,4.97 "/>
    </g>
    <g>
     <polygon class="fil1" points="7.46,9.95 4.14,9.95 4.14,8.29 7.46,8.29 "/>
    </g>
    <g>
     <polygon class="fil1" points="11.61,9.95 8.29,9.95 8.29,8.29 11.61,8.29 "/>
    </g>
    <g>
     <polygon class="fil1" points="7.46,12.43 4.14,12.43 4.14,10.78 7.46,10.78 "/>
    </g>
    <g>
     <polygon class="fil1" points="11.61,12.43 8.29,12.43 8.29,10.78 11.61,10.78 "/>
    </g>
    <g>
     <polygon class="fil1" points="7.46,14.92 4.14,14.92 4.14,13.26 7.46,13.26 "/>
    </g>
    <g>
     <polygon class="fil1" points="11.61,14.92 8.29,14.92 8.29,13.26 11.61,13.26 "/>
    </g>
   </g>
  </g>
 </g>
</svg>
