<?xml version="1.0" encoding="UTF-8"?>
<!DOCTYPE svg PUBLIC "-//W3C//DTD SVG 1.1//EN" "http://www.w3.org/Graphics/SVG/1.1/DTD/svg11.dtd">
<!-- Creator: CorelDRAW 2020 (64-Bit Version dՎvaluation) -->
<svg xmlns="http://www.w3.org/2000/svg" xml:space="preserve" width="50px" height="50px" version="1.1" style="shape-rendering:geometricPrecision; text-rendering:geometricPrecision; image-rendering:optimizeQuality; fill-rule:evenodd; clip-rule:evenodd"
viewBox="0 0 0.8 0.8"
 xmlns:xlink="http://www.w3.org/1999/xlink"
 xmlns:xodm="http://www.corel.com/coreldraw/odm/2003">
 <defs>
  <style type="text/css">
   <![CDATA[
    .fil0 {fill:none;fill-rule:nonzero}
    .fil1 {fill:#383838;fill-rule:nonzero}
   ]]>
  </style>
 </defs>
 <g id="Plan_x0020_1">
  <metadata id="CorelCorpID_0Corel-Layer"/>
  <g id="_2133111753104">
   <g>
    <polygon class="fil0" points="0.8,0.8 0,0.8 0,0 0.8,0 "/>
   </g>
   <g>
    <path class="fil1" d="M0.1 0.17l0.1 0 0 -0.07 -0.1 0c-0.04,0 -0.07,0.03 -0.07,0.07l0 0.1 0.07 0 0 -0.1z"/>
    <path class="fil1" d="M0.7 0.1l-0.1 0 0 0.07 0.1 0 0 0.1 0.07 0 0 -0.1c0,-0.04 -0.03,-0.07 -0.07,-0.07z"/>
    <path class="fil1" d="M0.2 0.7l0 -0.07 -0.1 0 0 -0.1 -0.07 0 0 0.1c0,0.04 0.03,0.07 0.07,0.07l0.1 0z"/>
    <path class="fil1" d="M0.7 0.63l-0.1 0 0 0.07 0.1 0c0.04,0 0.07,-0.03 0.07,-0.07l0 -0.1 -0.07 0 0 0.1z"/>
    <path class="fil1" d="M0.17 0.57l0.46 0 0 -0.34 -0.46 0 0 0.34zm0.06 -0.27l0 0 0.34 0 0 0.2 -0.34 0 0 -0.2z"/>
   </g>
  </g>
 </g>
</svg>
