<?xml version="1.0" encoding="UTF-8"?>
<!DOCTYPE svg PUBLIC "-//W3C//DTD SVG 1.1//EN" "http://www.w3.org/Graphics/SVG/1.1/DTD/svg11.dtd">
<!-- Creator: CorelDRAW 2020 (64-Bit) -->
<svg xmlns="http://www.w3.org/2000/svg" xml:space="preserve" width="72px" height="72px" version="1.1" style="shape-rendering:geometricPrecision; text-rendering:geometricPrecision; image-rendering:optimizeQuality; fill-rule:evenodd; clip-rule:evenodd"
viewBox="0 0 1.68 1.68"
 xmlns:xlink="http://www.w3.org/1999/xlink"
 xmlns:xodm="http://www.corel.com/coreldraw/odm/2003">
 <defs>
  <style type="text/css">
   <![CDATA[
    .fil0 {fill:none;fill-rule:nonzero}
    .fil1 {fill:#383838;fill-rule:nonzero}
   ]]>
  </style>
 </defs>
 <g id="Plan_x0020_1">
  <metadata id="CorelCorpID_0Corel-Layer"/>
  <polygon class="fil0" points="1.68,1.68 0,1.68 0,0 1.68,0 "/>
  <path class="fil1" d="M1.4 0.14l-1.12 0c-0.08,0 -0.14,0.06 -0.14,0.14l0 0.7c0,0.08 0.06,0.14 0.14,0.14l0.49 0 0 0.28 -0.35 0 0 0.14 0.76 0c-0.09,-0.02 -0.17,-0.07 -0.22,-0.14l-0.05 0 0 -0.08c-0.02,-0.05 -0.03,-0.1 -0.03,-0.15 0,-0.07 0.02,-0.13 0.05,-0.19l-0.65 0 0 0 0 -0.28 1.12 0 0 0.11c0.05,0.02 0.1,0.06 0.14,0.1l0 -0.63c0,-0.08 -0.06,-0.14 -0.14,-0.14zm0 0.14l0 0 0 0.28 -1.12 0 0 -0.28 1.12 0zm-0.7 0.07l-0.35 0 0 0.14 0.35 0 0 -0.14zm-0.35 0.56l0.35 0 0 -0.14 -0.35 0 0 0.14zm-0.07 0.49c-0.04,0 -0.07,0.03 -0.07,0.07 0,0.04 0.03,0.07 0.07,0.07 0.04,0 0.07,-0.03 0.07,-0.07 0,-0.04 -0.03,-0.07 -0.07,-0.07zm0.77 -0.91c0.04,0 0.07,-0.03 0.07,-0.07 0,-0.04 -0.03,-0.07 -0.07,-0.07 -0.04,0 -0.07,0.03 -0.07,0.07 0,0.04 0.03,0.07 0.07,0.07zm0.21 0c0.04,0 0.07,-0.03 0.07,-0.07 0,-0.04 -0.03,-0.07 -0.07,-0.07 -0.04,0 -0.07,0.03 -0.07,0.07 0,0.04 0.03,0.07 0.07,0.07zm-0.21 0.28c-0.04,0 -0.07,0.03 -0.07,0.07 0,0.02 0.01,0.04 0.02,0.05 0.03,-0.03 0.07,-0.06 0.12,-0.08 -0.02,-0.02 -0.04,-0.04 -0.07,-0.04zm0.21 0c-0.02,0 -0.04,0.01 -0.05,0.02 0.02,0 0.03,0 0.05,0 0.02,0 0.03,0 0.05,0 -0.01,-0.01 -0.03,-0.02 -0.05,-0.02zm0.07 0.12l-0.14 0 0 0.21 -0.21 0 0 0.14 0.21 0 0 0.21 0.14 0 0 -0.21 0.21 0 0 -0.14 -0.21 0 0 -0.21z"/>
 </g>
</svg>
