<?xml version="1.0" encoding="UTF-8"?>
<!DOCTYPE svg PUBLIC "-//W3C//DTD SVG 1.1//EN" "http://www.w3.org/Graphics/SVG/1.1/DTD/svg11.dtd">
<!-- Creator: CorelDRAW 2020 (64-Bit Version dՎvaluation) -->
<svg xmlns="http://www.w3.org/2000/svg" xml:space="preserve" width="50px" height="50px" version="1.1" style="shape-rendering:geometricPrecision; text-rendering:geometricPrecision; image-rendering:optimizeQuality; fill-rule:evenodd; clip-rule:evenodd"
viewBox="0 0 1.08 1.08"
 xmlns:xlink="http://www.w3.org/1999/xlink"
 xmlns:xodm="http://www.corel.com/coreldraw/odm/2003">
 <defs>
  <style type="text/css">
   <![CDATA[
    .fil0 {fill:none;fill-rule:nonzero}
    .fil1 {fill:#383838;fill-rule:nonzero}
   ]]>
  </style>
 </defs>
 <g id="Plan_x0020_1">
  <metadata id="CorelCorpID_0Corel-Layer"/>
  <polygon class="fil0" points="1.08,1.08 0,1.08 0,0 1.08,0 "/>
  <path class="fil1" d="M0.9 0.09l-0.72 0c-0.05,0 -0.09,0.04 -0.09,0.09l0 0.45c0,0.05 0.04,0.09 0.09,0.09l0.32 0 0 0.18 -0.23 0 0 0.09 0.54 0 0 -0.09 -0.22 0 0 -0.18 0.31 0c0.05,0 0.09,-0.04 0.09,-0.09l0 -0.45c0,-0.05 -0.04,-0.09 -0.09,-0.09zm0 0.09l0 0 0 0.18 -0.72 0 0 -0.18 0.72 0zm-0.72 0.45l0 0 0 -0.18 0.72 0 0 0.18 -0.72 0z"/>
  <polygon class="fil1" points="0.45,0.23 0.23,0.23 0.23,0.32 0.45,0.32 "/>
  <polygon class="fil1" points="0.23,0.59 0.45,0.59 0.45,0.5 0.23,0.5 "/>
  <path class="fil1" d="M0.9 0.9c-0.02,0 -0.04,0.02 -0.04,0.05 0,0.02 0.02,0.04 0.04,0.04 0.03,0 0.05,-0.02 0.05,-0.04 0,-0.03 -0.02,-0.05 -0.05,-0.05z"/>
  <path class="fil1" d="M0.18 0.9c-0.02,0 -0.04,0.02 -0.04,0.05 0,0.02 0.02,0.04 0.04,0.04 0.03,0 0.05,-0.02 0.05,-0.04 0,-0.03 -0.02,-0.05 -0.05,-0.05z"/>
  <path class="fil1" d="M0.68 0.32c0.02,0 0.04,-0.02 0.04,-0.05 0,-0.02 -0.02,-0.04 -0.04,-0.04 -0.03,0 -0.05,0.02 -0.05,0.04 0,0.03 0.02,0.05 0.05,0.05z"/>
  <path class="fil1" d="M0.81 0.32c0.03,0 0.05,-0.02 0.05,-0.05 0,-0.02 -0.02,-0.04 -0.05,-0.04 -0.02,0 -0.04,0.02 -0.04,0.04 0,0.03 0.02,0.05 0.04,0.05z"/>
  <path class="fil1" d="M0.68 0.5c-0.03,0 -0.05,0.02 -0.05,0.04 0,0.03 0.02,0.05 0.05,0.05 0.02,0 0.04,-0.02 0.04,-0.05 0,-0.02 -0.02,-0.04 -0.04,-0.04z"/>
  <path class="fil1" d="M0.81 0.5c-0.02,0 -0.04,0.02 -0.04,0.04 0,0.03 0.02,0.05 0.04,0.05 0.03,0 0.05,-0.02 0.05,-0.05 0,-0.02 -0.02,-0.04 -0.05,-0.04z"/>
 </g>
</svg>
