<?xml version="1.0" encoding="UTF-8"?>
<!DOCTYPE svg PUBLIC "-//W3C//DTD SVG 1.1//EN" "http://www.w3.org/Graphics/SVG/1.1/DTD/svg11.dtd">
<!-- Creator: CorelDRAW 2020 (64-Bit) -->
<svg xmlns="http://www.w3.org/2000/svg" xml:space="preserve" width="60px" height="60px" version="1.1" style="shape-rendering:geometricPrecision; text-rendering:geometricPrecision; image-rendering:optimizeQuality; fill-rule:evenodd; clip-rule:evenodd"
viewBox="0 0 0.98 0.98"
 xmlns:xlink="http://www.w3.org/1999/xlink"
 xmlns:xodm="http://www.corel.com/coreldraw/odm/2003">
 <defs>
  <style type="text/css">
   <![CDATA[
    .fil0 {fill:none;fill-rule:nonzero}
    .fil1 {fill:#383838;fill-rule:nonzero}
   ]]>
  </style>
 </defs>
 <g id="Plan_x0020_1">
  <metadata id="CorelCorpID_0Corel-Layer"/>
  <g id="_2495831386608">
   <polygon class="fil0" points="0.98,0.98 0,0.98 0,0 0.98,0 "/>
  </g>
  <g id="_2495831385408">
   <path class="fil1" d="M0.82 0.08l-0.66 0c-0.04,0 -0.08,0.04 -0.08,0.08l0 0.66c0,0.04 0.04,0.08 0.08,0.08l0.66 0c0.04,0 0.08,-0.04 0.08,-0.08l0 -0.66c0,-0.04 -0.04,-0.08 -0.08,-0.08zm0 0.08l0 0 0 0.17 -0.66 0 0 -0.17 0.66 0zm0 0.25l0 0 0 0.16 -0.66 0 0 -0.16 0.66 0zm-0.66 0.41l0 0 0 -0.16 0.66 0 0 0.16 -0.66 0z"/>
   <polygon class="fil1" points="0.41,0.2 0.2,0.2 0.2,0.29 0.41,0.29 "/>
   <polygon class="fil1" points="0.41,0.53 0.41,0.45 0.2,0.45 0.2,0.53 "/>
   <polygon class="fil1" points="0.2,0.78 0.41,0.78 0.41,0.7 0.2,0.7 "/>
   <path class="fil1" d="M0.61 0.29c0.03,0 0.05,-0.02 0.05,-0.04 0,-0.03 -0.02,-0.05 -0.05,-0.05 -0.02,0 -0.04,0.02 -0.04,0.05 0,0.02 0.02,0.04 0.04,0.04z"/>
   <path class="fil1" d="M0.74 0.29c0.02,0 0.04,-0.02 0.04,-0.04 0,-0.03 -0.02,-0.05 -0.04,-0.05 -0.03,0 -0.04,0.02 -0.04,0.05 0,0.02 0.01,0.04 0.04,0.04z"/>
   <path class="fil1" d="M0.61 0.53c0.03,0 0.05,-0.02 0.05,-0.04 0,-0.02 -0.02,-0.04 -0.05,-0.04 -0.02,0 -0.04,0.02 -0.04,0.04 0,0.02 0.02,0.04 0.04,0.04z"/>
   <path class="fil1" d="M0.74 0.53c0.02,0 0.04,-0.02 0.04,-0.04 0,-0.02 -0.02,-0.04 -0.04,-0.04 -0.03,0 -0.04,0.02 -0.04,0.04 0,0.02 0.01,0.04 0.04,0.04z"/>
   <path class="fil1" d="M0.61 0.7c-0.02,0 -0.04,0.01 -0.04,0.04 0,0.02 0.02,0.04 0.04,0.04 0.03,0 0.05,-0.02 0.05,-0.04 0,-0.03 -0.02,-0.04 -0.05,-0.04z"/>
   <path class="fil1" d="M0.74 0.7c-0.03,0 -0.04,0.01 -0.04,0.04 0,0.02 0.01,0.04 0.04,0.04 0.02,0 0.04,-0.02 0.04,-0.04 0,-0.03 -0.02,-0.04 -0.04,-0.04z"/>
  </g>
 </g>
</svg>
