<?xml version="1.0" encoding="UTF-8"?>
<!DOCTYPE svg PUBLIC "-//W3C//DTD SVG 1.1//EN" "http://www.w3.org/Graphics/SVG/1.1/DTD/svg11.dtd">
<!-- Creator: CorelDRAW 2020 (64-Bit Version dՎvaluation) -->
<svg xmlns="http://www.w3.org/2000/svg" xml:space="preserve" width="100px" height="100px" version="1.1" style="shape-rendering:geometricPrecision; text-rendering:geometricPrecision; image-rendering:optimizeQuality; fill-rule:evenodd; clip-rule:evenodd"
viewBox="0 0 2.17 2.17"
 xmlns:xlink="http://www.w3.org/1999/xlink"
 xmlns:xodm="http://www.corel.com/coreldraw/odm/2003">
 <defs>
  <style type="text/css">
   <![CDATA[
    .fil0 {fill:none;fill-rule:nonzero}
    .fil1 {fill:#383838;fill-rule:nonzero}
   ]]>
  </style>
 </defs>
 <g id="Plan_x0020_1">
  <metadata id="CorelCorpID_0Corel-Layer"/>
  <polygon class="fil0" points="2.17,2.17 0,2.17 0,0 2.17,0 "/>
  <path class="fil1" d="M1.81 0.18l-1.45 0c-0.1,0 -0.18,0.08 -0.18,0.18l0 0.9c0,0.1 0.08,0.19 0.18,0.19l0.63 0 0 0.36 -0.45 0 0 0.18 1.09 0 0 -0.18 -0.46 0 0 -0.36 0.64 0c0.1,0 0.18,-0.09 0.18,-0.19l0 -0.9c0,-0.1 -0.08,-0.18 -0.18,-0.18zm0 0.18l0 0 0 0.36 -1.45 0 0 -0.36 1.45 0zm-1.45 0.9l0 0 0 -0.36 1.45 0 0 0.36 -1.45 0z"/>
  <polygon class="fil1" points="0.9,0.45 0.45,0.45 0.45,0.63 0.9,0.63 "/>
  <polygon class="fil1" points="0.45,1.17 0.9,1.17 0.9,0.99 0.45,0.99 "/>
  <path class="fil1" d="M1.81 1.81c-0.05,0 -0.09,0.04 -0.09,0.09 0,0.05 0.04,0.09 0.09,0.09 0.05,0 0.09,-0.04 0.09,-0.09 0,-0.05 -0.04,-0.09 -0.09,-0.09z"/>
  <path class="fil1" d="M0.36 1.81c-0.05,0 -0.09,0.04 -0.09,0.09 0,0.05 0.04,0.09 0.09,0.09 0.05,0 0.09,-0.04 0.09,-0.09 0,-0.05 -0.04,-0.09 -0.09,-0.09z"/>
  <path class="fil1" d="M1.36 0.63c0.04,0 0.09,-0.04 0.09,-0.09 0,-0.05 -0.05,-0.09 -0.09,-0.09 -0.05,0 -0.1,0.04 -0.1,0.09 0,0.05 0.05,0.09 0.1,0.09z"/>
  <path class="fil1" d="M1.63 0.63c0.05,0 0.09,-0.04 0.09,-0.09 0,-0.05 -0.04,-0.09 -0.09,-0.09 -0.05,0 -0.09,0.04 -0.09,0.09 0,0.05 0.04,0.09 0.09,0.09z"/>
  <path class="fil1" d="M1.36 0.99c-0.05,0 -0.1,0.04 -0.1,0.09 0,0.05 0.05,0.09 0.1,0.09 0.04,0 0.09,-0.04 0.09,-0.09 0,-0.05 -0.05,-0.09 -0.09,-0.09z"/>
  <path class="fil1" d="M1.63 0.99c-0.05,0 -0.09,0.04 -0.09,0.09 0,0.05 0.04,0.09 0.09,0.09 0.05,0 0.09,-0.04 0.09,-0.09 0,-0.05 -0.04,-0.09 -0.09,-0.09z"/>
 </g>
</svg>
