<?xml version="1.0" encoding="UTF-8"?>
<!DOCTYPE svg PUBLIC "-//W3C//DTD SVG 1.1//EN" "http://www.w3.org/Graphics/SVG/1.1/DTD/svg11.dtd">
<!-- Creator: CorelDRAW 2019 (64-Bit) -->
<svg xmlns="http://www.w3.org/2000/svg" xml:space="preserve" width="273px" height="273px" version="1.1" style="shape-rendering:geometricPrecision; text-rendering:geometricPrecision; image-rendering:optimizeQuality; fill-rule:evenodd; clip-rule:evenodd"
viewBox="0 0 3.72 3.72"
 xmlns:xlink="http://www.w3.org/1999/xlink">
 <defs>
  <style type="text/css">
   <![CDATA[
    .fil0 {fill:none;fill-rule:nonzero}
    .fil1 {fill:#000}
   ]]>
  </style>
 </defs>
 <g id="Plan_x0020_1">
  <metadata id="CorelCorpID_0Corel-Layer"/>
  <g id="_1712374417040">
   <polygon class="fil0" points="3.72,3.72 0,3.72 0,0 3.72,0 "/>
  </g>
  <path class="fil1" d="M0.93 2.68l0 0.1 0.62 0 0 -2.47 0.62 0 0 3.08 -1.86 0 0 -1.54c0.11,0 0.88,-0.01 0.93,0.01l0 0.61c-0.1,0 -0.19,0 -0.25,0.08 -0.03,0.03 -0.06,0.08 -0.06,0.13zm0.31 -1.14l-1.24 0 0 2.18 2.47 0 0 -3.72 -1.23 0 0 1.54zm1.85 -1.23l0.31 0 0 0.31 -0.31 0 0 -0.31zm-0.31 0.61l0.94 0 0 -0.92 -0.94 0 0 0.92z"/>
 </g>
</svg>
