<?xml version="1.0" encoding="UTF-8"?>
<!DOCTYPE svg PUBLIC "-//W3C//DTD SVG 1.1//EN" "http://www.w3.org/Graphics/SVG/1.1/DTD/svg11.dtd">
<!-- Creator: CorelDRAW 2020 (64-Bit Version dՎvaluation) -->
<svg xmlns="http://www.w3.org/2000/svg" xml:space="preserve" width="100px" height="100px" version="1.1" style="shape-rendering:geometricPrecision; text-rendering:geometricPrecision; image-rendering:optimizeQuality; fill-rule:evenodd; clip-rule:evenodd"
viewBox="0 0 7.05 7.05"
 xmlns:xlink="http://www.w3.org/1999/xlink"
 xmlns:xodm="http://www.corel.com/coreldraw/odm/2003">
 <defs>
  <style type="text/css">
   <![CDATA[
    .fil0 {fill:none;fill-rule:nonzero}
    .fil1 {fill:#DBDBDB;fill-rule:nonzero}
   ]]>
  </style>
 </defs>
 <g id="Plan_x0020_1">
  <metadata id="CorelCorpID_0Corel-Layer"/>
  <polygon class="fil0" points="7.05,7.05 0,7.05 0,0 7.05,0 "/>
  <path class="fil1" d="M5.29 4.11c-0.36,0 -0.67,0.16 -0.88,0.41l-1.5 -0.75c0.02,-0.08 0.03,-0.16 0.03,-0.25 0,-0.08 -0.01,-0.16 -0.03,-0.24l1.5 -0.75c0.21,0.25 0.52,0.41 0.88,0.41 0.64,0 1.17,-0.53 1.17,-1.18 0,-0.65 -0.53,-1.17 -1.17,-1.17 -0.65,0 -1.18,0.52 -1.18,1.17 0,0.09 0.01,0.17 0.03,0.25l-1.5 0.75c-0.21,-0.25 -0.53,-0.41 -0.88,-0.41 -0.65,0 -1.17,0.53 -1.17,1.17 0,0.65 0.52,1.18 1.17,1.18 0.35,0 0.67,-0.16 0.88,-0.41l1.5 0.75c-0.02,0.08 -0.03,0.16 -0.03,0.25 0,0.64 0.53,1.17 1.18,1.17 0.64,0 1.17,-0.53 1.17,-1.17 0,-0.65 -0.53,-1.18 -1.17,-1.18zm0 -2.94l0 0c0.32,0 0.58,0.27 0.58,0.59 0,0.33 -0.26,0.59 -0.58,0.59 -0.33,0 -0.59,-0.26 -0.59,-0.59 0,-0.32 0.26,-0.59 0.59,-0.59zm-3.53 2.94l0 0c-0.32,0 -0.59,-0.26 -0.59,-0.59 0,-0.32 0.27,-0.58 0.59,-0.58 0.33,0 0.59,0.26 0.59,0.58 0,0.33 -0.26,0.59 -0.59,0.59zm3.53 1.76l0 0c-0.33,0 -0.59,-0.26 -0.59,-0.58 0,-0.33 0.26,-0.59 0.59,-0.59 0.32,0 0.58,0.26 0.58,0.59 0,0.32 -0.26,0.58 -0.58,0.58z"/>
 </g>
</svg>
