<?xml version="1.0" encoding="utf-8"?>
<!-- Svg Vector Icons : http://www.onlinewebfonts.com/icon -->
<!DOCTYPE svg PUBLIC "-//W3C//DTD SVG 1.1//EN" "http://www.w3.org/Graphics/SVG/1.1/DTD/svg11.dtd">
<svg version="1.1" xmlns="http://www.w3.org/2000/svg" xmlns:xlink="http://www.w3.org/1999/xlink" x="0px" y="0px" viewBox="0 0 1000 1000" enable-background="new 0 0 1000 1000" xml:space="preserve">
<metadata> Svg Vector Icons : http://www.onlinewebfonts.com/icon </metadata>
<g><g transform="translate(0.000000,512.000000) scale(0.100000,-0.100000)"><path d="M4718.7,4984.7c-302.6-80.4-574.5-283.4-725.8-547.7c-126.4-218.3-149.4-308.3-149.4-591.8s23-373.4,145.5-587.9c143.6-247,400.3-450,677.9-538.1c187.7-59.4,482.6-59.4,670.3,0c277.7,88.1,534.3,291.1,678,538.1c122.6,214.5,145.5,304.5,145.5,587.9s-23,373.4-149.4,591.8C5754.8,4883.2,5209,5113,4718.7,4984.7z M5345,4546.1c226-116.8,381.1-323.7,427.1-574.5c61.3-327.5-128.3-683.7-442.4-833.1c-116.8-55.5-141.7-59.4-327.5-59.4c-185.8,0-210.7,3.8-327.5,59.4c-314.1,149.4-503.7,505.6-442.4,833.1c44.1,243.2,201.1,459.6,407.9,565c155.1,78.5,181.9,84.3,390.7,78.5C5205.2,4609.3,5233.9,4603.6,5345,4546.1z"/><path d="M4705.3,2462.5c-913.5-76.6-1474.6-421.3-1627.8-1001.6c-23-86.2-28.7-304.5-28.7-1198.8V-831.5l59.4-116.8c103.4-206.8,247-289.2,538.1-306.4l187.7-9.6v-1170.1c0-1091.6,3.8-1175.9,36.4-1246.7c51.7-114.9,128.3-197.3,239.4-254.7l97.7-51.7h794.8h794.8l97.7,51.7c111.1,57.5,187.7,139.8,239.4,254.7c32.5,70.9,36.4,155.1,36.4,1246.7v1170.1l187.7,9.6c291.1,17.2,434.7,99.6,538.2,306.4l59.4,116.8V260.1c0,1202.7,0,1212.3-120.6,1440.2c-68.9,128.3-249,329.4-367.7,411.7c-191.5,132.2-478.8,245.1-750.7,296.8C5419.6,2464.4,4992.6,2487.4,4705.3,2462.5z M5672.4,2020.1c444.3-103.4,710.5-281.5,838.8-555.4l51.7-109.2l5.7-1024.6c1.9-563,0-1043.7-5.7-1068.6c-23-93.8-74.7-118.7-239.4-118.7h-153.2v813.9v813.9l-55.5,61.3c-74.7,84.3-187.7,88.1-264.3,9.6l-53.6-51.7l-9.6-2164.1c-9.6-2043.4-11.5-2164.1-44-2196.6c-30.6-32.6-88.1-34.5-741.2-34.5c-653.1,0-710.5,1.9-741.1,34.5c-32.6,32.5-34.5,153.2-44,2196.6l-9.6,2164.1l-53.6,51.7c-90,90-277.7,53.6-308.3-61.3c-5.8-21.1-11.5-398.3-11.5-836.9v-800.5h-153.2c-164.7,0-216.4,24.9-239.4,118.7c-5.7,24.9-9.6,505.6-5.7,1068.6l5.7,1024.6l63.2,128.3c136,277.7,476.9,480.7,923.1,547.7c78.5,13.4,164.7,26.8,191.5,30.6c26.8,5.7,237.5,5.7,469.2,1.9C5423.5,2058.4,5542.2,2048.8,5672.4,2020.1z"/><path d="M3077.5-2206.6c-1064.8-204.9-1738.9-534.3-1932.3-946.1c-180-384.9,36.4-760.3,610.9-1051.4c1507.2-768,4985-768,6492.2,0c218.3,111.1,352.4,206.8,469.2,335.1c141.7,155.1,199.2,285.3,199.2,455.8c1.9,394.5-365.8,720.1-1101.2,976.7c-352.4,122.6-1041.8,277.7-1239.1,277.7c-174.3,0-256.6-180-141.7-308.3c49.8-55.5,72.8-63.2,348.5-113c1026.5-185.8,1742.8-526.7,1742.8-831.2c0-220.2-425.2-492.2-1049.5-670.3c-706.7-204.9-1499.5-300.7-2474.3-300.7c-974.8,0-1767.6,95.8-2474.3,300.7c-624.3,178.1-1049.5,450-1049.5,670.3c0,300.7,745,656.9,1733.2,831.2c298.8,51.7,339,65.1,379.2,132.1c49.8,86.2,42.1,168.5-23,233.6c-49.8,47.9-70.9,55.5-159,53.6C3353.2-2160.6,3203.9-2181.7,3077.5-2206.6z"/></g></g>
</svg>