<?xml version="1.0" encoding="UTF-8"?>
<!DOCTYPE svg PUBLIC "-//W3C//DTD SVG 1.1//EN" "http://www.w3.org/Graphics/SVG/1.1/DTD/svg11.dtd">
<!-- Creator: CorelDRAW 2020 (64-Bit Version dՎvaluation) -->
<svg xmlns="http://www.w3.org/2000/svg" xml:space="preserve" width="100px" height="100px" version="1.1" style="shape-rendering:geometricPrecision; text-rendering:geometricPrecision; image-rendering:optimizeQuality; fill-rule:evenodd; clip-rule:evenodd"
viewBox="0 0 3.87 3.87"
 xmlns:xlink="http://www.w3.org/1999/xlink"
 xmlns:xodm="http://www.corel.com/coreldraw/odm/2003">
 <defs>
  <style type="text/css">
   <![CDATA[
    .fil0 {fill:none;fill-rule:nonzero}
    .fil1 {fill:#383838;fill-rule:nonzero}
   ]]>
  </style>
 </defs>
 <g id="Plan_x0020_1">
  <metadata id="CorelCorpID_0Corel-Layer"/>
  <g id="_1518733441968">
   <polygon class="fil0" points="3.87,3.87 0,3.87 0,0 3.87,0 "/>
   <g>
    <polygon class="fil1" points="1.13,1.93 1.61,1.93 1.61,1.61 1.13,1.61 "/>
    <polygon class="fil1" points="1.13,2.42 1.61,2.42 1.61,2.1 1.13,2.1 "/>
    <polygon class="fil1" points="1.13,2.9 1.61,2.9 1.61,2.58 1.13,2.58 "/>
    <polygon class="fil1" points="1.93,2.9 2.74,2.9 2.74,1.61 1.93,1.61 "/>
    <path class="fil1" d="M2.65 0.16l-1.84 0c-0.18,0 -0.33,0.15 -0.33,0.32l0 2.9c0,0.18 0.15,0.33 0.33,0.33l2.25 0c0.18,0 0.32,-0.15 0.32,-0.33l0 -2.48 -0.73 -0.74zm-1.84 3.22l0 0 0 -2.9 1.61 0 0 0.65 0.64 0 0 2.25 -2.25 0z"/>
   </g>
  </g>
 </g>
</svg>
