<?xml version="1.0" encoding="UTF-8"?>
<!DOCTYPE svg PUBLIC "-//W3C//DTD SVG 1.1//EN" "http://www.w3.org/Graphics/SVG/1.1/DTD/svg11.dtd">
<!-- Creator: CorelDRAW 2019 (64-Bit) -->
<svg xmlns="http://www.w3.org/2000/svg" xml:space="preserve" width="273px" height="273px" version="1.1" style="shape-rendering:geometricPrecision; text-rendering:geometricPrecision; image-rendering:optimizeQuality; fill-rule:evenodd; clip-rule:evenodd"
viewBox="0 0 96.11 96.11"
 xmlns:xlink="http://www.w3.org/1999/xlink">
 <defs>
  <style type="text/css">
   <![CDATA[
    .fil0 {fill:none;fill-rule:nonzero}
    .fil1 {fill:#000;fill-rule:nonzero}
   ]]>
  </style>
 </defs>
 <g id="Plan_x0020_1">
  <metadata id="CorelCorpID_0Corel-Layer"/>
  <g id="_1711951545728">
   <g>
    <polygon class="fil0" points="96.11,96.11 0,96.11 0,0 96.11,0 "/>
   </g>
   <g>
    <polygon class="fil1" points="44.05,24.03 36.04,24.03 36.04,36.04 24.03,36.04 24.03,44.05 36.04,44.05 36.04,56.06 44.05,56.06 44.05,44.05 56.06,44.05 56.06,36.04 44.05,36.04 "/>
    <path class="fil1" d="M86.93 81.27l-21.6 -21.6c4.36,-5.59 6.75,-12.42 6.75,-19.62 0,-8.56 -3.33,-16.61 -9.38,-22.66 -6.05,-6.05 -14.1,-9.38 -22.65,-9.38 -8.56,0 -16.61,3.33 -22.66,9.38 -6.05,6.05 -9.38,14.1 -9.38,22.66 0,8.55 3.33,16.6 9.38,22.65 6.05,6.05 14.1,9.38 22.66,9.38 7.2,0 14.03,-2.38 19.62,-6.75l21.6 21.6 5.66 -5.66zm-46.88 -17.2l0 0c-6.42,0 -12.45,-2.49 -16.99,-7.03 -4.54,-4.54 -7.04,-10.58 -7.04,-16.99 0,-6.42 2.5,-12.45 7.04,-16.99 4.54,-4.55 10.57,-7.04 16.99,-7.04 6.41,0 12.45,2.49 16.98,7.04 4.55,4.54 7.04,10.57 7.04,16.99 0,6.41 -2.49,12.45 -7.04,16.99 -4.53,4.54 -10.57,7.03 -16.98,7.03z"/>
   </g>
  </g>
 </g>
</svg>
