<?xml version="1.0" encoding="UTF-8"?>
<!DOCTYPE svg PUBLIC "-//W3C//DTD SVG 1.1//EN" "http://www.w3.org/Graphics/SVG/1.1/DTD/svg11.dtd">
<!-- Creator: CorelDRAW 2020 (64-Bit) -->
<svg xmlns="http://www.w3.org/2000/svg" xml:space="preserve" width="130px" height="130px" version="1.1" style="shape-rendering:geometricPrecision; text-rendering:geometricPrecision; image-rendering:optimizeQuality; fill-rule:evenodd; clip-rule:evenodd"
viewBox="0 0 2.87 2.87"
 xmlns:xlink="http://www.w3.org/1999/xlink"
 xmlns:xodm="http://www.corel.com/coreldraw/odm/2003">
 <defs>
  <style type="text/css">
   <![CDATA[
    .fil3 {fill:none;fill-rule:nonzero}
    .fil1 {fill:#FEFEFE;fill-rule:nonzero}
    .fil2 {fill:#434242;fill-rule:nonzero}
    .fil0 {fill:#008DD2;fill-rule:nonzero}
   ]]>
  </style>
 </defs>
 <g id="Plan_x0020_1">
  <metadata id="CorelCorpID_0Corel-Layer"/>
  <g id="_1537656798736">
   <g>
    <path class="fil0" d="M2.25 0.43l0 0c-0.14,0 -0.26,0.12 -0.26,0.26 0,0.13 0.16,0.39 0.26,0.53 0.1,-0.14 0.26,-0.4 0.26,-0.53 0,-0.14 -0.12,-0.26 -0.26,-0.26z"/>
    <path class="fil0" d="M2.25 1.4c-0.12,-0.17 -0.36,-0.51 -0.36,-0.71 0,-0.2 0.16,-0.36 0.36,-0.36 0.2,0 0.36,0.16 0.36,0.36 0,0.2 -0.24,0.54 -0.36,0.71z"/>
    <path class="fil1" d="M2.25 0.64l0 0c-0.03,0 -0.05,0.02 -0.05,0.05 0,0.03 0.02,0.05 0.05,0.05 0.03,0 0.05,-0.02 0.05,-0.05 0,-0.03 -0.02,-0.05 -0.05,-0.05z"/>
    <path class="fil1" d="M2.25 0.84c-0.09,0 -0.16,-0.07 -0.16,-0.15 0,-0.09 0.07,-0.16 0.16,-0.16 0.09,0 0.16,0.07 0.16,0.16 0,0.08 -0.07,0.15 -0.16,0.15z"/>
   </g>
   <g>
    <path class="fil2" d="M1.9 0.39l-1.43 0c-0.11,0 -0.21,0.09 -0.21,0.21l0 1.08c0,0.12 0.1,0.22 0.21,0.22l0.76 0 0 0.43 -0.54 0 0 0.21 1.3 0 0 -0.21 -0.54 0 0 -0.43 0.75 0c0.12,0 0.22,-0.1 0.22,-0.22l0 -0.31c-0.06,0.08 -0.12,0.16 -0.16,0.22 -0.02,-0.02 -0.04,-0.05 -0.06,-0.07l0 0.16 -1.73 0 0 0 0 -0.43 1.55 0c-0.04,-0.07 -0.09,-0.14 -0.12,-0.22l-1.43 0 0 -0.43 1.33 0c0.01,-0.08 0.05,-0.15 0.1,-0.21z"/>
    <polygon class="fil2" points="1.12,0.71 0.58,0.71 0.58,0.93 1.12,0.93 "/>
    <polygon class="fil2" points="0.58,1.57 1.12,1.57 1.12,1.36 0.58,1.36 "/>
    <path class="fil2" d="M2.2 2.33c-0.06,0 -0.11,0.05 -0.11,0.11 0,0.06 0.05,0.1 0.11,0.1 0.06,0 0.11,-0.04 0.11,-0.1 0,-0.06 -0.05,-0.11 -0.11,-0.11z"/>
    <path class="fil2" d="M0.47 2.33c-0.06,0 -0.1,0.05 -0.1,0.11 0,0.06 0.04,0.1 0.1,0.1 0.06,0 0.11,-0.04 0.11,-0.1 0,-0.06 -0.05,-0.11 -0.11,-0.11z"/>
    <path class="fil2" d="M1.66 0.93c0.06,0 0.11,-0.05 0.11,-0.11 0,-0.06 -0.05,-0.11 -0.11,-0.11 -0.06,0 -0.11,0.05 -0.11,0.11 0,0.06 0.05,0.11 0.11,0.11z"/>
    <path class="fil2" d="M1.66 1.36c-0.06,0 -0.11,0.05 -0.11,0.11 0,0.05 0.05,0.1 0.11,0.1 0.06,0 0.11,-0.05 0.11,-0.1 0,-0.06 -0.05,-0.11 -0.11,-0.11z"/>
    <path class="fil2" d="M1.99 1.36c-0.06,0 -0.11,0.05 -0.11,0.11 0,0.05 0.05,0.1 0.11,0.1 0.06,0 0.1,-0.05 0.1,-0.1 0,-0.06 -0.04,-0.11 -0.1,-0.11z"/>
   </g>
  </g>
  <g id="_1537656828880">
   <polygon class="fil3" points="2.87,2.87 0,2.87 0,0 2.87,0 "/>
  </g>
 </g>
</svg>
