<?xml version="1.0" encoding="UTF-8"?>
<!DOCTYPE svg PUBLIC "-//W3C//DTD SVG 1.1//EN" "http://www.w3.org/Graphics/SVG/1.1/DTD/svg11.dtd">
<!-- Creator: CorelDRAW 2020 (64-Bit) -->
<svg xmlns="http://www.w3.org/2000/svg" xml:space="preserve" width="59px" height="59px" version="1.1" style="shape-rendering:geometricPrecision; text-rendering:geometricPrecision; image-rendering:optimizeQuality; fill-rule:evenodd; clip-rule:evenodd"
viewBox="0 0 0.77 0.76"
 xmlns:xlink="http://www.w3.org/1999/xlink"
 xmlns:xodm="http://www.corel.com/coreldraw/odm/2003">
 <defs>
  <style type="text/css">
   <![CDATA[
    .fil0 {fill:none;fill-rule:nonzero}
    .fil1 {fill:#383838;fill-rule:nonzero}
   ]]>
  </style>
 </defs>
 <g id="Plan_x0020_1">
  <metadata id="CorelCorpID_0Corel-Layer"/>
  <polygon class="fil0" points="0.77,0.76 0,0.76 0,0 0.77,0 "/>
  <path class="fil1" d="M0.62 0.09l-0.47 0c-0.04,0 -0.06,0.02 -0.06,0.06l0 0.29c0,0.03 0.02,0.06 0.06,0.06l0.2 0 0 0.12 -0.14 0 0 0.06 0.32 0c-0.04,-0.01 -0.08,-0.03 -0.1,-0.06l-0.02 0 0 -0.04c-0.01,-0.02 -0.01,-0.04 -0.01,-0.06 0,-0.03 0.01,-0.06 0.02,-0.08l-0.27 0 0 0 0 -0.12 0.47 0 0 0.05c0.02,0.01 0.04,0.02 0.06,0.04l0 -0.26c0,-0.04 -0.03,-0.06 -0.06,-0.06zm0 0.06l0 0 0 0.11 -0.47 0 0 -0.11 0.47 0zm-0.3 0.03l-0.14 0 0 0.06 0.14 0 0 -0.06zm-0.14 0.23l0.14 0 0 -0.06 -0.14 0 0 0.06zm-0.03 0.21c-0.02,0 -0.03,0.01 -0.03,0.03 0,0.01 0.01,0.03 0.03,0.03 0.01,0 0.03,-0.02 0.03,-0.03 0,-0.02 -0.02,-0.03 -0.03,-0.03zm0.32 -0.38c0.02,0 0.03,-0.02 0.03,-0.03 0,-0.02 -0.01,-0.03 -0.03,-0.03 -0.02,0 -0.03,0.01 -0.03,0.03 0,0.01 0.01,0.03 0.03,0.03zm0.09 0c0.02,0 0.03,-0.02 0.03,-0.03 0,-0.02 -0.01,-0.03 -0.03,-0.03 -0.02,0 -0.03,0.01 -0.03,0.03 0,0.01 0.01,0.03 0.03,0.03zm-0.09 0.11c-0.02,0 -0.03,0.02 -0.03,0.03 0,0.01 0,0.02 0.01,0.02 0.01,-0.01 0.03,-0.02 0.05,-0.03 -0.01,-0.01 -0.02,-0.02 -0.03,-0.02zm0.09 0c-0.01,0 -0.02,0.01 -0.02,0.01 0.01,0 0.01,0 0.02,0 0.01,0 0.01,0 0.02,0 -0.01,0 -0.01,-0.01 -0.02,-0.01zm0.03 0.05l-0.06 0 0 0.09 -0.09 0 0 0.06 0.09 0 0 0.09 0.06 0 0 -0.09 0.09 0 0 -0.06 -0.09 0 0 -0.09z"/>
 </g>
</svg>
