<?xml version="1.0" encoding="UTF-8"?>
<!DOCTYPE svg PUBLIC "-//W3C//DTD SVG 1.1//EN" "http://www.w3.org/Graphics/SVG/1.1/DTD/svg11.dtd">
<!-- Creator: CorelDRAW 2020 (64-Bit) -->
<svg xmlns="http://www.w3.org/2000/svg" xml:space="preserve" width="130px" height="130px" version="1.1" style="shape-rendering:geometricPrecision; text-rendering:geometricPrecision; image-rendering:optimizeQuality; fill-rule:evenodd; clip-rule:evenodd"
viewBox="0 0 3.01 3.01"
 xmlns:xlink="http://www.w3.org/1999/xlink"
 xmlns:xodm="http://www.corel.com/coreldraw/odm/2003">
 <defs>
  <style type="text/css">
   <![CDATA[
    .fil0 {fill:none;fill-rule:nonzero}
    .fil1 {fill:#383838;fill-rule:nonzero}
   ]]>
  </style>
 </defs>
 <g id="Plan_x0020_1">
  <metadata id="CorelCorpID_0Corel-Layer"/>
  <g id="_1537650904224">
   <g>
    <polygon class="fil0" points="3.01,3.01 0,3.01 0,0 3.01,0 "/>
   </g>
   <path class="fil1" d="M1.63 2.38c0.56,-0.07 1,-0.55 1,-1.13 0,-0.62 -0.5,-1.12 -1.12,-1.12 -0.63,0 -1.13,0.5 -1.13,1.12 0,0.58 0.44,1.06 1,1.13l0 0.25 -0.88 0 0 0.26 2.01 0 0 -0.26 -0.88 0 0 -0.25zm-0.38 -1.38l0 0 0.51 0 0 0.51 -0.51 0 0 -0.51zm-0.25 0l0 0 0 0.51 -0.34 0c-0.02,-0.08 -0.03,-0.17 -0.03,-0.26 0,-0.08 0.01,-0.17 0.03,-0.25l0.34 0zm0.25 0.76l0 0 0.51 0 0 0.34c-0.08,0.02 -0.17,0.03 -0.25,0.03 -0.09,0 -0.18,-0.01 -0.26,-0.03l0 -0.34zm0.76 0.21l0 0 0 -0.21 0.22 0c-0.06,0.08 -0.14,0.15 -0.22,0.21zm0.34 -0.46l0 0 -0.34 0 0 -0.51 0.34 0c0.02,0.08 0.03,0.17 0.03,0.25 0,0.09 -0.01,0.18 -0.03,0.26zm-0.12 -0.76l0 0 -0.22 0 0 -0.22c0.08,0.06 0.16,0.14 0.22,0.22zm-0.47 -0.34l0 0 0 0.34 -0.51 0 0 -0.34c0.08,-0.02 0.17,-0.03 0.26,-0.03 0.08,0 0.17,0.01 0.25,0.03zm-0.76 0.12l0 0 0 0.22 -0.21 0c0.06,-0.08 0.13,-0.16 0.21,-0.22zm-0.21 1.23l0 0 0.21 0 0 0.21c-0.08,-0.06 -0.15,-0.13 -0.21,-0.21z"/>
  </g>
 </g>
</svg>
