<?xml version="1.0" encoding="UTF-8"?>
<!DOCTYPE svg PUBLIC "-//W3C//DTD SVG 1.1//EN" "http://www.w3.org/Graphics/SVG/1.1/DTD/svg11.dtd">
<!-- Creator: CorelDRAW 2020 (64-Bit) -->
<svg xmlns="http://www.w3.org/2000/svg" xml:space="preserve" width="59px" height="59px" version="1.1" style="shape-rendering:geometricPrecision; text-rendering:geometricPrecision; image-rendering:optimizeQuality; fill-rule:evenodd; clip-rule:evenodd"
viewBox="0 0 0.76 0.76"
 xmlns:xlink="http://www.w3.org/1999/xlink"
 xmlns:xodm="http://www.corel.com/coreldraw/odm/2003">
 <defs>
  <style type="text/css">
   <![CDATA[
    .fil0 {fill:none;fill-rule:nonzero}
    .fil1 {fill:#383838;fill-rule:nonzero}
   ]]>
  </style>
 </defs>
 <g id="Plan_x0020_1">
  <metadata id="CorelCorpID_0Corel-Layer"/>
  <g id="_3123303470576">
   <polygon class="fil0" points="0.76,0.76 0,0.76 0,0 0.76,0 "/>
  </g>
  <path class="fil1" d="M0.7 0.41c0,-0.06 -0.05,-0.11 -0.11,-0.11 -0.06,0 -0.11,0.05 -0.11,0.11 -0.01,0 -0.03,0.02 -0.03,0.03l0 0.2c0,0.01 0.02,0.02 0.03,0.02l0.22 0c0.02,0 0.03,-0.01 0.03,-0.02l0 -0.2c0,-0.01 -0.01,-0.03 -0.03,-0.03zm-0.11 -0.05l0 0c0.03,0 0.06,0.02 0.06,0.05l-0.11 0c0,-0.03 0.02,-0.05 0.05,-0.05zm0.09 0.25l0 0 -0.17 0 0 -0.14 0.17 0 0 0.14zm-0.06 -0.09c0,0.02 -0.01,0.03 -0.03,0.03 -0.01,0 -0.03,-0.01 -0.03,-0.03 0,-0.01 0.02,-0.02 0.03,-0.02 0.02,0 0.03,0.01 0.03,0.02zm-0.53 0.08l0 -0.33 0.49 0 0 0.02c0.01,0 0.01,0 0.01,0 0.02,0 0.04,0 0.05,0.01l0 -0.14c0,-0.03 -0.02,-0.06 -0.06,-0.06l-0.49 0c-0.03,0 -0.06,0.03 -0.06,0.06l0 0.44c0,0.03 0.03,0.05 0.06,0.05l0.34 0c0,0 -0.01,-0.01 -0.01,-0.01l0 -0.04 -0.33 0zm0.14 -0.39l0 0 0 -0.05 0.08 0 0 0.05 -0.08 0zm0.35 0l0 0 -0.22 0 0 -0.05 0.22 0 0 0.05zm-0.41 -0.05l0 0 0 0.05 -0.08 0 0 -0.05 0.08 0z"/>
 </g>
</svg>
