<?xml version="1.0" encoding="UTF-8"?>
<!DOCTYPE svg PUBLIC "-//W3C//DTD SVG 1.1//EN" "http://www.w3.org/Graphics/SVG/1.1/DTD/svg11.dtd">
<!-- Creator: CorelDRAW 2020 (64-Bit) -->
<svg xmlns="http://www.w3.org/2000/svg" xml:space="preserve" width="130px" height="130px" version="1.1" style="shape-rendering:geometricPrecision; text-rendering:geometricPrecision; image-rendering:optimizeQuality; fill-rule:evenodd; clip-rule:evenodd"
viewBox="0 0 2.87 2.87"
 xmlns:xlink="http://www.w3.org/1999/xlink"
 xmlns:xodm="http://www.corel.com/coreldraw/odm/2003">
 <defs>
  <style type="text/css">
   <![CDATA[
    .fil0 {fill:none;fill-rule:nonzero}
    .fil3 {fill:#FEFEFE;fill-rule:nonzero}
    .fil2 {fill:#727271;fill-rule:nonzero}
    .fil1 {fill:#383838;fill-rule:nonzero}
   ]]>
  </style>
 </defs>
 <g id="Plan_x0020_1">
  <metadata id="CorelCorpID_0Corel-Layer"/>
  <g id="_1537659545472">
   <polygon class="fil0" points="2.87,2.87 0,2.87 0,0 2.87,0 "/>
  </g>
  <g id="_1537659546672">
   <path class="fil1" d="M1.44 0.6l0 0c-0.28,0 -0.5,0.23 -0.5,0.5 0,0.26 0.31,0.76 0.5,1.03 0.19,-0.27 0.5,-0.77 0.5,-1.03 0,-0.27 -0.23,-0.5 -0.5,-0.5z"/>
   <path class="fil2" d="M1.44 2.47c-0.24,-0.32 -0.7,-0.97 -0.7,-1.37 0,-0.38 0.31,-0.7 0.7,-0.7 0.38,0 0.7,0.32 0.7,0.7 0,0.4 -0.47,1.05 -0.7,1.37z"/>
   <path class="fil3" d="M1.44 1l0 0c-0.06,0 -0.1,0.05 -0.1,0.1 0,0.06 0.04,0.1 0.1,0.1 0.05,0 0.1,-0.04 0.1,-0.1 0,-0.05 -0.05,-0.1 -0.1,-0.1z"/>
   <path class="fil3" d="M1.44 1.4c-0.17,0 -0.3,-0.13 -0.3,-0.3 0,-0.16 0.13,-0.3 0.3,-0.3 0.16,0 0.3,0.14 0.3,0.3 0,0.17 -0.14,0.3 -0.3,0.3z"/>
  </g>
 </g>
</svg>
