<?xml version="1.0" encoding="UTF-8"?>
<!DOCTYPE svg PUBLIC "-//W3C//DTD SVG 1.1//EN" "http://www.w3.org/Graphics/SVG/1.1/DTD/svg11.dtd">
<!-- Creator: CorelDRAW 2020 (64-Bit) -->
<svg xmlns="http://www.w3.org/2000/svg" xml:space="preserve" width="130px" height="130px" version="1.1" style="shape-rendering:geometricPrecision; text-rendering:geometricPrecision; image-rendering:optimizeQuality; fill-rule:evenodd; clip-rule:evenodd"
viewBox="0 0 2.88 2.88"
 xmlns:xlink="http://www.w3.org/1999/xlink"
 xmlns:xodm="http://www.corel.com/coreldraw/odm/2003">
 <defs>
  <style type="text/css">
   <![CDATA[
    .fil0 {fill:none;fill-rule:nonzero}
    .fil2 {fill:#FEFEFE;fill-rule:nonzero}
    .fil1 {fill:#008DD2;fill-rule:nonzero}
   ]]>
  </style>
 </defs>
 <g id="Plan_x0020_1">
  <metadata id="CorelCorpID_0Corel-Layer"/>
  <g id="_1537663655984">
   <polygon class="fil0" points="2.88,2.88 0,2.88 0,0 2.88,0 "/>
  </g>
  <g id="_1537663656608">
   <path class="fil1" d="M1.44 0.61l0 0c-0.28,0 -0.5,0.22 -0.5,0.5 0,0.25 0.31,0.75 0.5,1.02 0.19,-0.27 0.5,-0.77 0.5,-1.02 0,-0.28 -0.23,-0.5 -0.5,-0.5z"/>
   <path class="fil1" d="M1.44 2.47c-0.24,-0.31 -0.7,-0.97 -0.7,-1.36 0,-0.39 0.31,-0.7 0.7,-0.7 0.38,0 0.7,0.31 0.7,0.7 0,0.39 -0.47,1.05 -0.7,1.36z"/>
   <path class="fil2" d="M1.44 1.01l0 0c-0.06,0 -0.1,0.04 -0.1,0.1 0,0.05 0.04,0.1 0.1,0.1 0.05,0 0.1,-0.05 0.1,-0.1 0,-0.06 -0.05,-0.1 -0.1,-0.1z"/>
   <path class="fil2" d="M1.44 1.41c-0.17,0 -0.3,-0.14 -0.3,-0.3 0,-0.17 0.13,-0.3 0.3,-0.3 0.16,0 0.3,0.13 0.3,0.3 0,0.16 -0.14,0.3 -0.3,0.3z"/>
  </g>
 </g>
</svg>
