<?xml version="1.0" encoding="UTF-8"?>
<!DOCTYPE svg PUBLIC "-//W3C//DTD SVG 1.1//EN" "http://www.w3.org/Graphics/SVG/1.1/DTD/svg11.dtd">
<!-- Creator: CorelDRAW 2020 (64-Bit) -->
<svg xmlns="http://www.w3.org/2000/svg" xml:space="preserve" width="130px" height="130px" version="1.1" style="shape-rendering:geometricPrecision; text-rendering:geometricPrecision; image-rendering:optimizeQuality; fill-rule:evenodd; clip-rule:evenodd"
viewBox="0 0 2.9 2.9"
 xmlns:xlink="http://www.w3.org/1999/xlink"
 xmlns:xodm="http://www.corel.com/coreldraw/odm/2003">
 <defs>
  <style type="text/css">
   <![CDATA[
    .fil0 {fill:none;fill-rule:nonzero}
    .fil1 {fill:#383838;fill-rule:nonzero}
   ]]>
  </style>
 </defs>
 <g id="Plan_x0020_1">
  <metadata id="CorelCorpID_0Corel-Layer"/>
  <g id="_1501576236416">
   <g>
    <polygon class="fil0" points="2.9,2.9 0,2.9 0,0 2.9,0 "/>
   </g>
   <path class="fil1" d="M1.45 0.24c-0.54,0 -1.09,0.17 -1.09,0.48l0 1.45c0,0.32 0.55,0.48 1.09,0.48 0.54,0 1.08,-0.16 1.08,-0.48l0 -1.45c0,-0.31 -0.54,-0.48 -1.08,-0.48zm0 0.24l0 0c0.55,0 0.84,0.17 0.84,0.24 0,0.07 -0.29,0.25 -0.84,0.25 -0.55,0 -0.85,-0.18 -0.85,-0.25 0,-0.07 0.3,-0.24 0.85,-0.24zm0 1.93l0 0c-0.55,0 -0.85,-0.17 -0.85,-0.24l0 -0.17c0.21,0.11 0.53,0.17 0.85,0.17 0.31,0 0.63,-0.06 0.84,-0.17l0 0.17c0,0.07 -0.29,0.24 -0.84,0.24zm0 -0.48l0 0c-0.55,0 -0.85,-0.17 -0.85,-0.24l0 -0.17c0.21,0.11 0.53,0.17 0.85,0.17 0.31,0 0.63,-0.06 0.84,-0.17l0 0.17c0,0.07 -0.29,0.24 -0.84,0.24zm0 -0.48l0 0c-0.55,0 -0.85,-0.17 -0.85,-0.24l0 -0.17c0.21,0.11 0.53,0.17 0.85,0.17 0.31,0 0.63,-0.06 0.84,-0.17l0 0.17c0,0.07 -0.29,0.24 -0.84,0.24z"/>
  </g>
 </g>
</svg>
