<?xml version="1.0" encoding="UTF-8"?>
<!DOCTYPE svg PUBLIC "-//W3C//DTD SVG 1.1//EN" "http://www.w3.org/Graphics/SVG/1.1/DTD/svg11.dtd">
<!-- Creator: CorelDRAW 2020 (64-Bit) -->
<svg xmlns="http://www.w3.org/2000/svg" xml:space="preserve" width="130px" height="130px" version="1.1" style="shape-rendering:geometricPrecision; text-rendering:geometricPrecision; image-rendering:optimizeQuality; fill-rule:evenodd; clip-rule:evenodd"
viewBox="0 0 2.86 2.86"
 xmlns:xlink="http://www.w3.org/1999/xlink"
 xmlns:xodm="http://www.corel.com/coreldraw/odm/2003">
 <defs>
  <style type="text/css">
   <![CDATA[
    .fil4 {fill:none;fill-rule:nonzero}
    .fil2 {fill:#FEFEFE;fill-rule:nonzero}
    .fil1 {fill:#898989;fill-rule:nonzero}
    .fil3 {fill:#434242;fill-rule:nonzero}
    .fil0 {fill:#008DD2;fill-rule:nonzero}
   ]]>
  </style>
 </defs>
 <g id="Plan_x0020_1">
  <metadata id="CorelCorpID_0Corel-Layer"/>
  <g id="_1537663634720">
   <path class="fil0" d="M2.24 0.43l0 0c-0.14,0 -0.26,0.11 -0.26,0.26 0,0.13 0.17,0.39 0.26,0.53 0.1,-0.14 0.26,-0.4 0.26,-0.53 0,-0.15 -0.11,-0.26 -0.26,-0.26z"/>
   <path class="fil1" d="M2.24 1.39c-0.12,-0.16 -0.36,-0.5 -0.36,-0.7 0,-0.2 0.16,-0.36 0.36,-0.36 0.2,0 0.37,0.16 0.37,0.36 0,0.2 -0.24,0.54 -0.37,0.7z"/>
   <path class="fil2" d="M2.24 0.64l0 0c-0.03,0 -0.05,0.02 -0.05,0.05 0,0.03 0.02,0.05 0.05,0.05 0.03,0 0.06,-0.02 0.06,-0.05 0,-0.03 -0.03,-0.05 -0.06,-0.05z"/>
   <path class="fil2" d="M2.24 0.84c-0.08,0 -0.15,-0.07 -0.15,-0.15 0,-0.09 0.07,-0.16 0.15,-0.16 0.09,0 0.16,0.07 0.16,0.16 0,0.08 -0.07,0.15 -0.16,0.15z"/>
   <g>
    <path class="fil3" d="M1.89 0.38l-1.42 0c-0.12,0 -0.21,0.1 -0.21,0.22l0 1.08c0,0.11 0.09,0.21 0.21,0.21l0.76 0 0 0.43 -0.54 0 0 0.22 1.29 0 0 -0.22 -0.54 0 0 -0.43 0.76 0c0.11,0 0.21,-0.1 0.21,-0.21l0 -0.32c-0.06,0.09 -0.12,0.17 -0.16,0.23 -0.02,-0.03 -0.04,-0.05 -0.06,-0.08l0 0.17 -1.72 0 0 0 0 -0.43 1.54 0c-0.04,-0.07 -0.08,-0.15 -0.12,-0.22l-1.42 0 0 -0.43 1.32 0c0.02,-0.08 0.05,-0.15 0.1,-0.22z"/>
    <polygon class="fil3" points="1.12,0.71 0.58,0.71 0.58,0.92 1.12,0.92 "/>
    <polygon class="fil3" points="0.58,1.57 1.12,1.57 1.12,1.35 0.58,1.35 "/>
    <path class="fil3" d="M2.2 2.32c-0.06,0 -0.11,0.05 -0.11,0.11 0,0.06 0.05,0.11 0.11,0.11 0.05,0 0.1,-0.05 0.1,-0.11 0,-0.06 -0.05,-0.11 -0.1,-0.11z"/>
    <path class="fil3" d="M0.47 2.32c-0.06,0 -0.1,0.05 -0.1,0.11 0,0.06 0.04,0.11 0.1,0.11 0.06,0 0.11,-0.05 0.11,-0.11 0,-0.06 -0.05,-0.11 -0.11,-0.11z"/>
    <path class="fil3" d="M1.66 0.92c0.06,0 0.1,-0.05 0.1,-0.1 0,-0.06 -0.04,-0.11 -0.1,-0.11 -0.06,0 -0.11,0.05 -0.11,0.11 0,0.05 0.05,0.1 0.11,0.1z"/>
    <path class="fil3" d="M1.66 1.35c-0.06,0 -0.11,0.05 -0.11,0.11 0,0.06 0.05,0.11 0.11,0.11 0.06,0 0.1,-0.05 0.1,-0.11 0,-0.06 -0.04,-0.11 -0.1,-0.11z"/>
    <path class="fil3" d="M1.98 1.35c-0.06,0 -0.11,0.05 -0.11,0.11 0,0.06 0.05,0.11 0.11,0.11 0.06,0 0.11,-0.05 0.11,-0.11 0,-0.06 -0.05,-0.11 -0.11,-0.11z"/>
   </g>
  </g>
  <g id="_1537663650512">
   <polygon class="fil4" points="2.86,2.86 0,2.86 0,0 2.86,0 "/>
  </g>
 </g>
</svg>
