<?xml version="1.0" encoding="UTF-8"?>
<!DOCTYPE svg PUBLIC "-//W3C//DTD SVG 1.1//EN" "http://www.w3.org/Graphics/SVG/1.1/DTD/svg11.dtd">
<!-- Creator: CorelDRAW 2020 (64-Bit) -->
<svg xmlns="http://www.w3.org/2000/svg" xml:space="preserve" width="59px" height="59px" version="1.1" style="shape-rendering:geometricPrecision; text-rendering:geometricPrecision; image-rendering:optimizeQuality; fill-rule:evenodd; clip-rule:evenodd"
viewBox="0 0 0.77 0.77"
 xmlns:xlink="http://www.w3.org/1999/xlink"
 xmlns:xodm="http://www.corel.com/coreldraw/odm/2003">
 <defs>
  <style type="text/css">
   <![CDATA[
    .fil1 {fill:none;fill-rule:nonzero}
    .fil0 {fill:#383838}
   ]]>
  </style>
 </defs>
 <g id="Plan_x0020_1">
  <metadata id="CorelCorpID_0Corel-Layer"/>
  <path class="fil0" d="M0.28 0.07l0 0.26 -0.21 0 0 0.36 0.41 0 0 -0.62 -0.2 0 0 0zm0.05 0.06l0.1 0 0 0.51 -0.3 0 0 -0.26 0.15 0 0 0.11 -0.01 0c-0.02,0 -0.04,0.01 -0.04,0.03l0 0.01 0.1 0 0 -0.4 0 0 0 0zm0.21 -0.06l0 0.16 0.15 0 0 -0.16 -0.15 0zm0.1 0.11l-0.05 0 0 -0.05 0.05 0 0 0.05z"/>
  <polygon class="fil1" points="0.77,0.77 0,0.77 0,0 0.77,0 "/>
 </g>
</svg>
