<?xml version="1.0" encoding="UTF-8"?>
<!DOCTYPE svg PUBLIC "-//W3C//DTD SVG 1.1//EN" "http://www.w3.org/Graphics/SVG/1.1/DTD/svg11.dtd">
<!-- Creator: CorelDRAW 2020 (64-Bit) -->
<svg xmlns="http://www.w3.org/2000/svg" xml:space="preserve" width="59px" height="59px" version="1.1" style="shape-rendering:geometricPrecision; text-rendering:geometricPrecision; image-rendering:optimizeQuality; fill-rule:evenodd; clip-rule:evenodd"
viewBox="0 0 0.77 0.77"
 xmlns:xlink="http://www.w3.org/1999/xlink"
 xmlns:xodm="http://www.corel.com/coreldraw/odm/2003">
 <defs>
  <style type="text/css">
   <![CDATA[
    .fil0 {fill:none;fill-rule:nonzero}
    .fil1 {fill:#383838;fill-rule:nonzero}
   ]]>
  </style>
 </defs>
 <g id="Plan_x0020_1">
  <metadata id="CorelCorpID_0Corel-Layer"/>
  <g id="_3123442536672">
   <polygon class="fil0" points="0.77,0.77 0,0.77 0,0 0.77,0 "/>
  </g>
  <path class="fil1" d="M0.6 0.51c0.01,-0.01 0.01,-0.02 0.01,-0.04 0,-0.06 -0.05,-0.11 -0.11,-0.11 -0.06,0 -0.11,0.05 -0.11,0.11 0,0.06 0.05,0.11 0.11,0.11 0.01,0 0.02,0 0.04,0l0.03 0.04c0.01,0.01 0.03,0.01 0.04,0.01 0.01,0 0.02,0 0.03,-0.01 0.01,-0.01 0.02,-0.02 0.02,-0.04 0,-0.01 -0.01,-0.02 -0.02,-0.03l-0.04 -0.04zm-0.1 0.01l0 0c-0.03,0 -0.05,-0.02 -0.05,-0.05 0,-0.02 0.02,-0.04 0.05,-0.04 0.02,0 0.05,0.02 0.05,0.04 0,0.03 -0.03,0.05 -0.05,0.05zm0.14 -0.31l-0.27 0 -0.05 -0.07c-0.01,-0.02 -0.03,-0.03 -0.05,-0.03l-0.14 0c-0.04,0 -0.07,0.03 -0.07,0.07l0 0.41c0,0.03 0.03,0.06 0.07,0.06l0.25 0 0 -0.06 -0.25 0 0 0 0 -0.41 0.14 0 0.05 0.07c0.02,0.01 0.03,0.02 0.05,0.02l0.27 0 0 0.1 0.06 0 0 -0.1c0,-0.03 -0.03,-0.06 -0.06,-0.06z"/>
 </g>
</svg>
