<?xml version="1.0" encoding="UTF-8"?>
<!DOCTYPE svg PUBLIC "-//W3C//DTD SVG 1.1//EN" "http://www.w3.org/Graphics/SVG/1.1/DTD/svg11.dtd">
<!-- Creator: CorelDRAW 2020 (64-Bit) -->
<svg xmlns="http://www.w3.org/2000/svg" xml:space="preserve" width="59px" height="59px" version="1.1" style="shape-rendering:geometricPrecision; text-rendering:geometricPrecision; image-rendering:optimizeQuality; fill-rule:evenodd; clip-rule:evenodd"
viewBox="0 0 0.59 0.59"
 xmlns:xlink="http://www.w3.org/1999/xlink"
 xmlns:xodm="http://www.corel.com/coreldraw/odm/2003">
 <defs>
  <style type="text/css">
   <![CDATA[
    .fil0 {fill:#2A4A98}
    .fil1 {fill:#FEFEFE;fill-rule:nonzero}
   ]]>
  </style>
 </defs>
 <g id="Plan_x0020_1">
  <metadata id="CorelCorpID_0Corel-Layer"/>
  <rect class="fil0" width="0.59" height="0.59" rx="0.06" ry="0.06"/>
  <path class="fil1" d="M0.12 0.26c0,-0.03 0.01,-0.07 0.03,-0.09l0 0.09 0.05 0 0.03 0.1 0.03 -0.01 -0.04 -0.12 -0.03 0 0 -0.09c0.02,-0.01 0.04,-0.02 0.06,-0.02l0 0.11 0.05 0 0 0.02 0.04 0 0 -0.06 -0.06 0 0 -0.07c0.08,0.01 0.13,0.07 0.13,0.14l0.04 0c0,-0.1 -0.08,-0.18 -0.19,-0.18 -0.1,0 -0.18,0.08 -0.18,0.18 0,0.11 0.08,0.19 0.18,0.19l0 -0.04c-0.08,0 -0.14,-0.06 -0.14,-0.15zm0.39 0.23l-0.06 -0.06c0.01,-0.02 0.02,-0.03 0.02,-0.05 0,-0.06 -0.04,-0.1 -0.09,-0.1 -0.06,0 -0.1,0.04 -0.1,0.1 0,0.05 0.04,0.09 0.1,0.09 0.02,0 0.03,-0.01 0.05,-0.02l0.06 0.06 0.02 -0.02zm-0.19 -0.11l0 0c0,-0.03 0.03,-0.06 0.06,-0.06 0.03,0 0.05,0.03 0.05,0.06 0,0.03 -0.02,0.05 -0.05,0.05 -0.03,0 -0.06,-0.02 -0.06,-0.05z"/>
 </g>
</svg>
