<?xml version="1.0" encoding="UTF-8"?>
<!DOCTYPE svg PUBLIC "-//W3C//DTD SVG 1.1//EN" "http://www.w3.org/Graphics/SVG/1.1/DTD/svg11.dtd">
<!-- Creator: CorelDRAW 2020 (64-Bit) -->
<svg xmlns="http://www.w3.org/2000/svg" xml:space="preserve" width="59px" height="59px" version="1.1" style="shape-rendering:geometricPrecision; text-rendering:geometricPrecision; image-rendering:optimizeQuality; fill-rule:evenodd; clip-rule:evenodd"
viewBox="0 0 0.59 0.59"
 xmlns:xlink="http://www.w3.org/1999/xlink"
 xmlns:xodm="http://www.corel.com/coreldraw/odm/2003">
 <defs>
  <style type="text/css">
   <![CDATA[
    .fil0 {fill:#C5C6C6}
    .fil1 {fill:#FEFEFE;fill-rule:nonzero}
   ]]>
  </style>
 </defs>
 <g id="Plan_x0020_1">
  <metadata id="CorelCorpID_0Corel-Layer"/>
  <rect class="fil0" width="0.59" height="0.59" rx="0.06" ry="0.06"/>
  <path class="fil1" d="M0.24 0.11l-0.04 0 0 0.07 0.04 0 0 -0.07zm0.07 0l-0.03 0 0 0.07 0.03 0 0 -0.07zm0.08 0l-0.04 0 0 0.07 0.04 0 0 -0.07zm-0.15 0.3l-0.04 0 0 0.07 0.04 0 0 -0.07zm0.07 0l-0.03 0 0 0.07 0.03 0 0 -0.07zm0.08 0l-0.04 0 0 0.07 0.04 0 0 -0.07zm0.09 -0.17l-0.07 0 0 -0.04 0.07 0 0 0.04zm0 0.07l-0.07 0 0 -0.03 0.07 0 0 0.03zm0 0.08l-0.07 0 0 -0.04 0.07 0 0 0.04zm-0.3 -0.15l-0.07 0 0 -0.04 0.07 0 0 0.04zm0 0.07l-0.07 0 0 -0.03 0.07 0 0 0.03zm0 0.08l-0.07 0 0 -0.04 0.07 0 0 0.04zm0.17 0l-0.11 0c-0.02,0 -0.04,-0.02 -0.04,-0.04l0 -0.11c0,-0.02 0.02,-0.04 0.04,-0.04l0.11 0c0.02,0 0.04,0.02 0.04,0.04l0 0.11c0,0.02 -0.02,0.04 -0.04,0.04zm-0.11 -0.15l0 0 0 0.11 0.11 0 0 -0.11 -0.11 0z"/>
 </g>
</svg>
