<?xml version="1.0" encoding="UTF-8"?>
<!DOCTYPE svg PUBLIC "-//W3C//DTD SVG 1.1//EN" "http://www.w3.org/Graphics/SVG/1.1/DTD/svg11.dtd">
<!-- Creator: CorelDRAW 2019 (64-Bit) -->
<svg xmlns="http://www.w3.org/2000/svg" xml:space="preserve" width="356px" height="378px" version="1.1" style="shape-rendering:geometricPrecision; text-rendering:geometricPrecision; image-rendering:optimizeQuality; fill-rule:evenodd; clip-rule:evenodd"
viewBox="0 0 30.12 31.9"
 xmlns:xlink="http://www.w3.org/1999/xlink">
 <defs>
  <style type="text/css">
   <![CDATA[
    .fil0 {fill:#5B5B5B}
   ]]>
  </style>
 </defs>
 <g id="Plan_x0020_1">
  <metadata id="CorelCorpID_0Corel-Layer"/>
  <path class="fil0" d="M1.83 5.61l18.79 -5.51c1.34,-0.39 2.76,0.39 3.15,1.73l6.25 21.31c0.39,1.34 -0.39,2.76 -1.73,3.16l-18.79 5.5c-1.34,0.39 -2.76,-0.38 -3.15,-1.73l-6.25 -21.31c-0.39,-1.34 0.39,-2.76 1.73,-3.15zm7.21 1.7c0.08,0.09 0.16,0.11 0.32,0.16 0.34,0.09 0.44,0.05 0.75,0.57 -0.11,0.06 -0.24,0.14 -0.36,0.21 -0.4,0.23 -0.19,0.43 -0.51,0.57 -0.12,0.05 -0.24,0.05 -0.37,0.12 -0.09,0.06 -0.03,0.01 -0.07,0.07 0.23,0.2 0.51,-0.26 0.98,0.19 -0.12,0.19 -0.1,0.35 -0.41,0.45 -0.74,0.23 -0.26,-0.39 -0.89,0.07 -0.26,0.2 -0.24,0.17 -0.08,0.73 -0.04,0.06 -0.14,0.15 -0.19,0.22l0.13 0.47c-0.21,0.32 -0.17,0.38 -0.31,0.62 -0.32,0.59 0,0.5 0.21,1.2l-0.17 0.14c-0.6,-0.49 -0.39,-0.67 -1.12,-0.39 -0.24,0.09 -0.16,0.19 -0.31,0.26 -0.2,0.1 -0.31,0.05 -0.41,0.07 0.06,-1.23 0.41,-2.41 0.98,-3.46 0.47,-0.86 1.09,-1.62 1.83,-2.27zm1.95 -1.24c0.02,0.04 0.06,0.1 0.11,0.23 -0.51,0.2 -0.56,0.21 -0.74,0.09 0.21,-0.12 0.41,-0.22 0.63,-0.32zm6.47 -0.12l0.02 0.11 -0.92 0.23c-0.11,-0.3 0.05,-0.41 -0.07,-0.67 0.33,0.09 0.65,0.2 0.97,0.33zm1.76 1c-0.17,-0.04 -0.3,-0.06 -0.38,-0.05 -0.2,0.03 -0.59,0.12 -0.74,0.21l0.09 0.37c-0.64,0.17 -0.29,0.2 -0.63,1.04 -0.48,0.14 -0.51,0.04 -0.82,-0.14 -0.21,-0.12 -0.21,-0.2 -0.27,-0.77 0.24,-0.13 0.88,-0.2 0.98,-0.42 0.04,-0.1 -0.04,-0.33 -0.1,-0.44l-0.56 -0.28c0.33,-0.11 0.72,-0.1 0.87,-0.35 0.01,-0.02 0.02,-0.04 0.04,-0.07 0.19,0.09 0.38,0.19 0.57,0.29 0.33,0.18 0.65,0.38 0.95,0.61zm-0.89 11.72l-0.8 -0.35c-0.12,-0.05 -0.17,-0.07 -0.22,-0.09 -2.25,-0.94 0.32,0.11 1.02,0.44zm-4.61 -7.28c1.12,-0.33 2.29,0.31 2.62,1.42 0.32,1.12 -0.32,2.29 -1.43,2.62 -1.12,0.33 -2.29,-0.31 -2.62,-1.43 -0.32,-1.12 0.32,-2.29 1.43,-2.61zm0.17 0.57c0.2,-0.06 0.41,0.06 0.47,0.25 0.06,0.2 -0.06,0.41 -0.26,0.47 -0.2,0.06 -0.41,-0.05 -0.47,-0.25 -0.05,-0.2 0.06,-0.41 0.26,-0.47zm0.64 2.17c0.2,-0.06 0.41,0.06 0.46,0.26 0.06,0.2 -0.05,0.41 -0.25,0.46 -0.2,0.06 -0.41,-0.05 -0.47,-0.25 -0.06,-0.2 0.06,-0.41 0.26,-0.47zm-1.66 -0.3c-0.06,-0.2 0.05,-0.41 0.25,-0.47 0.2,-0.06 0.41,0.06 0.47,0.26 0.06,0.2 -0.06,0.41 -0.26,0.47 -0.2,0.06 -0.4,-0.06 -0.46,-0.26zm13.1 3.27l0 0 0 0 0 0 0 0zm-0.72 3.95l0.01 0 0 0 -0.01 0zm-10.12 -4.8l0 -0.02c0,0.01 0,0.02 0,0.02zm-0.02 0.11c0,-0.01 0,-0.03 0.01,-0.04 -0.01,0.01 -0.01,0.03 -0.01,0.04zm0 0.08c0,-0.01 0,-0.03 0,-0.04 0,0.01 0,0.03 0,0.04zm0.79 -0.97c0.31,-0.06 0.64,-0.03 1,0.01l0.04 0c0.1,0.01 0.19,0.02 0.21,0.02l4.63 0.42c-0.07,-0.15 0.06,-0.2 -0.05,-0.62 -0.08,-0.28 -0.27,-1.1 -0.41,-1.28 -0.1,-0.15 -0.26,-0.17 -0.35,-0.39 -0.08,-0.19 -0.1,-0.41 -0.2,-0.61l-0.44 0.11c-0.37,0.02 -0.41,-0.92 -1.23,0.1 -0.23,0.29 -0.44,0.28 -0.85,0.39 -0.25,-0.06 -0.56,-0.59 -0.77,-0.77 -0.6,-0.52 -0.56,-0.11 -0.76,-0.82 -0.16,-0.54 -0.34,-0.85 -0.22,-1.33 0.04,-0.13 0.1,-0.4 0.15,-0.51 0.1,-0.18 0.27,-0.22 0.32,-0.43 -0.06,-0.2 -0.14,-0.3 -0.06,-0.45 0.24,-0.47 0.7,-0.33 0.93,-0.7 0.44,-0.72 0.43,-0.53 1.49,-0.85 0.01,0.19 -0.02,0.37 0.07,0.55 0.16,0.04 1.02,0.09 1.28,0.04 0.67,0.82 1.18,1.77 1.5,2.84 0.47,1.62 0.42,3.27 -0.06,4.76l0.62 0.05c0.47,-1.57 0.51,-3.28 0.01,-4.97 -0.68,-2.32 -2.23,-4.14 -4.19,-5.22 -1.97,-1.07 -4.34,-1.4 -6.66,-0.72 -2.32,0.68 -4.14,2.23 -5.21,4.2 -1.08,1.96 -1.4,4.34 -0.72,6.65 0.68,2.32 2.23,4.14 4.19,5.22 1.97,1.07 4.34,1.4 6.66,0.72 1.44,-0.43 2.7,-1.19 3.7,-2.18l4.4 2.07 -8.13 -3.83c-0.01,0 -0.12,-0.05 -0.23,-0.1l-0.02 -0.01c-0.35,-0.16 -0.7,-0.32 -0.96,-0.53 -0.06,-0.05 -0.12,-0.1 -0.17,-0.15l0 0c-0.13,0.4 -0.15,0.44 -0.11,0.79 0.08,0.64 0.07,0.55 -0.2,0.88 -0.14,0.18 -0.44,0.52 -0.53,0.68 0.16,0.57 0.12,0.51 -0.11,0.91l-0.57 1.21c-0.72,-0.04 -1.44,-0.18 -2.11,-0.41l-0.35 -1.73c-0.14,-0.07 -0.37,-0.13 -0.51,-0.18 -0.13,-0.05 -0.39,-0.15 -0.47,-0.23 -0.08,-0.08 -0.25,-0.36 -0.33,-0.47 -0.26,-0.39 -0.59,-0.56 -0.7,-0.94 -0.32,-1.05 -0.01,-0.71 0.08,-1.17 0.02,-0.15 -0.12,-0.59 -0.2,-0.74 -0.32,-0.05 -0.38,0.08 -0.68,0.01 -0.19,-0.04 -0.52,-0.06 -0.65,-0.18 -0.1,-0.34 -0.05,-0.33 -0.33,-0.44 -0.87,-0.31 -0.53,-0.21 -1.26,0 -0.05,-0.24 -0.08,-0.49 -0.11,-0.73 0.21,0.08 0.4,0.2 0.7,0.11 0.15,-0.15 0.05,-0.12 0.12,-0.31l0.51 -0.1c-0.01,0.19 -0.09,0.4 -0.02,0.59 0.19,0.07 0.51,-0.03 0.76,-0.06l0.2 0.72c0.22,0.07 0.71,0.1 0.91,-0.09 0.43,-0.37 0.65,-0.55 1.41,-0.65 0.3,-0.04 0.65,0.5 1.13,0.51 0.7,0.02 0.55,-0.12 0.85,0.18 0.71,0.73 0.43,0.59 1.57,0.61 0.2,0 0.6,-0.02 0.82,0.01 0.13,-0.27 0.37,-0.4 0.67,-0.46zm0.92 0.8c-0.3,-0.03 -0.58,-0.06 -0.76,-0.02 -0.08,0.01 -0.13,0.05 -0.15,0.13 -0.02,0.11 0.05,0.2 0.17,0.29 0.19,0.16 0.49,0.29 0.79,0.43l0.02 0.01c0.09,0.04 0.18,0.08 0.24,0.11l8.11 3.82c0,0 0,-0.02 0.03,-0.04 0.1,-0.06 0.22,-0.17 0.35,-0.31 0.14,-0.16 0.27,-0.35 0.39,-0.55 0.13,-0.22 0.24,-0.44 0.32,-0.65 0.03,-0.07 0.05,-0.13 0.07,-0.2 0.02,-0.06 0.04,-0.11 0.05,-0.16 0,-0.03 0.01,-0.06 0.01,-0.11 0.01,-0.03 0.01,-0.08 0.01,-0.13 0.01,-0.2 0,-0.42 -0.04,-0.64 -0.03,-0.22 -0.08,-0.44 -0.16,-0.64 -0.06,-0.17 -0.13,-0.32 -0.21,-0.42l0 0c-0.04,-0.05 -0.07,-0.08 -0.09,-0.09l-8.89 -0.8c-0.08,-0.01 -0.14,-0.02 -0.22,-0.02l-0.04 -0.01zm6.74 2.33c0.07,-0.3 0.25,-0.55 0.5,-0.7 0.24,-0.16 0.54,-0.22 0.84,-0.15 0.3,0.07 0.55,0.25 0.7,0.5 0.16,0.24 0.22,0.54 0.15,0.84 -0.07,0.3 -0.25,0.55 -0.5,0.7 -0.24,0.15 -0.54,0.22 -0.84,0.15 -0.3,-0.07 -0.55,-0.25 -0.7,-0.5 -0.16,-0.24 -0.22,-0.54 -0.15,-0.84zm-14.6 8.61c0.5,-0.15 1.03,0.14 1.18,0.65 0.15,0.5 -0.14,1.03 -0.65,1.18 -0.5,0.14 -1.03,-0.15 -1.18,-0.65 -0.14,-0.5 0.15,-1.03 0.65,-1.18zm6.08 -14.02c-0.06,-0.2 0.05,-0.4 0.25,-0.46 0.2,-0.06 0.41,0.05 0.47,0.25 0.06,0.2 -0.05,0.41 -0.25,0.47 -0.2,0.06 -0.41,-0.06 -0.47,-0.26z"/>
 </g>
</svg>
