<?xml version="1.0" encoding="UTF-8"?>
<!DOCTYPE svg PUBLIC "-//W3C//DTD SVG 1.1//EN" "http://www.w3.org/Graphics/SVG/1.1/DTD/svg11.dtd">
<!-- Creator: CorelDRAW 2019 (64-Bit) -->
<svg xmlns="http://www.w3.org/2000/svg" xml:space="preserve" width="423px" height="448px" version="1.1" style="shape-rendering:geometricPrecision; text-rendering:geometricPrecision; image-rendering:optimizeQuality; fill-rule:evenodd; clip-rule:evenodd"
viewBox="0 0 42.52 45.04"
 xmlns:xlink="http://www.w3.org/1999/xlink">
 <defs>
  <style type="text/css">
   <![CDATA[
    .fil0 {fill:#383838}
   ]]>
  </style>
 </defs>
 <g id="Plan_x0020_1">
  <metadata id="CorelCorpID_0Corel-Layer"/>
  <path class="fil0" d="M2.58 7.91l26.53 -7.77c1.89,-0.55 3.9,0.55 4.45,2.44l8.81 30.09c0.56,1.89 -0.54,3.9 -2.43,4.45l-26.53 7.77c-1.89,0.56 -3.9,-0.54 -4.45,-2.43l-8.82 -30.09c-0.55,-1.9 0.55,-3.9 2.44,-4.46zm10.18 2.41c0.12,0.12 0.23,0.16 0.45,0.22 0.48,0.13 0.62,0.08 1.06,0.8 -0.15,0.1 -0.34,0.2 -0.51,0.3 -0.57,0.33 -0.27,0.61 -0.71,0.81 -0.18,0.07 -0.35,0.07 -0.53,0.17 -0.13,0.08 -0.04,0.01 -0.1,0.1 0.33,0.28 0.73,-0.37 1.39,0.26 -0.18,0.27 -0.15,0.5 -0.59,0.64 -1.03,0.32 -0.35,-0.54 -1.24,0.11 -0.38,0.27 -0.34,0.24 -0.12,1.02 -0.06,0.08 -0.2,0.21 -0.27,0.31l0.18 0.67c-0.3,0.45 -0.24,0.53 -0.43,0.87 -0.46,0.84 0,0.71 0.29,1.69l-0.24 0.21c-0.85,-0.7 -0.55,-0.96 -1.58,-0.56 -0.33,0.13 -0.22,0.28 -0.43,0.38 -0.29,0.13 -0.44,0.06 -0.59,0.08 0.09,-1.72 0.58,-3.39 1.39,-4.88 0.66,-1.2 1.53,-2.29 2.58,-3.2zm2.75 -1.75c0.04,0.05 0.09,0.14 0.16,0.32 -0.72,0.29 -0.79,0.3 -1.04,0.12 0.29,-0.16 0.58,-0.31 0.88,-0.44zm9.14 -0.17l0.03 0.16 -1.3 0.32c-0.16,-0.42 0.06,-0.58 -0.11,-0.95 0.47,0.13 0.93,0.29 1.38,0.47zm2.48 1.41c-0.23,-0.05 -0.43,-0.08 -0.53,-0.07 -0.28,0.04 -0.83,0.17 -1.05,0.3l0.13 0.52c-0.91,0.25 -0.41,0.29 -0.9,1.47 -0.67,0.19 -0.71,0.05 -1.15,-0.2 -0.29,-0.17 -0.29,-0.28 -0.38,-1.09 0.33,-0.17 1.25,-0.28 1.38,-0.59 0.07,-0.15 -0.06,-0.47 -0.13,-0.62l-0.79 -0.4c0.46,-0.15 1,-0.14 1.21,-0.49 0.02,-0.03 0.04,-0.06 0.06,-0.09 0.27,0.12 0.54,0.25 0.81,0.4 0.47,0.25 0.91,0.54 1.34,0.86zm-1.26 16.54l-1.13 -0.48c-0.16,-0.08 -0.23,-0.11 -0.3,-0.13 -3.19,-1.33 0.45,0.15 1.43,0.61zm-6.5 -10.28c1.58,-0.46 3.23,0.44 3.69,2.02 0.46,1.58 -0.44,3.23 -2.02,3.69 -1.57,0.46 -3.23,-0.44 -3.69,-2.02 -0.46,-1.57 0.44,-3.23 2.02,-3.69zm0.24 0.81c0.28,-0.08 0.58,0.08 0.66,0.36 0.08,0.29 -0.08,0.58 -0.36,0.66 -0.28,0.09 -0.58,-0.07 -0.66,-0.36 -0.09,-0.28 0.08,-0.58 0.36,-0.66zm0.9 3.07c0.28,-0.09 0.57,0.08 0.66,0.36 0.08,0.28 -0.08,0.58 -0.36,0.66 -0.29,0.08 -0.58,-0.08 -0.67,-0.36 -0.08,-0.28 0.08,-0.58 0.37,-0.66zm-2.35 -0.43c-0.08,-0.28 0.08,-0.57 0.36,-0.66 0.29,-0.08 0.58,0.08 0.67,0.37 0.08,0.28 -0.08,0.57 -0.37,0.66 -0.28,0.08 -0.57,-0.08 -0.66,-0.37zm18.5 4.61l0 0.01 0 0 0 -0.01 0 0zm-1.01 5.58l0 0.01 0 0 0 -0.01zm-14.3 -6.77l0.01 -0.02c0,0 -0.01,0.01 -0.01,0.02zm-0.02 0.15c0,-0.02 0.01,-0.03 0.01,-0.05 0,0.02 -0.01,0.03 -0.01,0.05zm0 0.12c0,-0.02 0,-0.04 0,-0.06 0,0.02 0,0.04 0,0.06zm1.12 -1.38c0.43,-0.08 0.9,-0.03 1.4,0.02l0.07 0c0.14,0.02 0.27,0.03 0.29,0.03l6.53 0.59c-0.09,-0.21 0.09,-0.28 -0.07,-0.87 -0.11,-0.4 -0.38,-1.55 -0.57,-1.81 -0.14,-0.2 -0.37,-0.24 -0.5,-0.55 -0.12,-0.27 -0.15,-0.58 -0.28,-0.86l-0.62 0.15c-0.52,0.03 -0.58,-1.29 -1.73,0.14 -0.34,0.42 -0.63,0.39 -1.2,0.56 -0.36,-0.09 -0.8,-0.84 -1.1,-1.09 -0.84,-0.73 -0.78,-0.15 -1.07,-1.16 -0.22,-0.76 -0.48,-1.2 -0.3,-1.88 0.04,-0.18 0.13,-0.56 0.21,-0.71 0.13,-0.26 0.38,-0.31 0.44,-0.61 -0.08,-0.28 -0.19,-0.43 -0.08,-0.64 0.35,-0.66 1,-0.46 1.32,-0.99 0.62,-1.02 0.61,-0.75 2.1,-1.2 0.01,0.27 -0.03,0.53 0.09,0.78 0.23,0.06 1.44,0.13 1.82,0.06 0.94,1.15 1.66,2.5 2.11,4.01 0.66,2.28 0.59,4.61 -0.08,6.71l0.87 0.08c0.66,-2.21 0.72,-4.64 0.02,-7.03 -0.96,-3.27 -3.15,-5.84 -5.93,-7.36 -2.77,-1.51 -6.12,-1.97 -9.39,-1.01 -3.27,0.96 -5.84,3.15 -7.36,5.92 -1.52,2.77 -1.97,6.12 -1.02,9.4 0.96,3.27 3.16,5.84 5.93,7.36 2.77,1.51 6.12,1.97 9.39,1.01 2.04,-0.59 3.81,-1.67 5.22,-3.07l6.22 2.93 -11.48 -5.41c-0.01,-0.01 -0.16,-0.08 -0.33,-0.15l-0.03 -0.01c-0.49,-0.23 -0.97,-0.45 -1.35,-0.75 -0.09,-0.07 -0.17,-0.14 -0.24,-0.21l0.01 0c-0.19,0.56 -0.22,0.63 -0.17,1.11 0.12,0.91 0.11,0.77 -0.27,1.25 -0.2,0.25 -0.63,0.74 -0.75,0.96 0.22,0.81 0.17,0.72 -0.15,1.28l-0.81 1.71c-1.02,-0.06 -2.03,-0.26 -2.98,-0.58l-0.49 -2.44c-0.2,-0.09 -0.53,-0.19 -0.73,-0.26 -0.18,-0.07 -0.55,-0.2 -0.66,-0.32 -0.12,-0.11 -0.35,-0.51 -0.47,-0.67 -0.36,-0.54 -0.83,-0.79 -0.99,-1.32 -0.44,-1.48 0,-1 0.12,-1.66 0.03,-0.21 -0.17,-0.82 -0.28,-1.03 -0.45,-0.08 -0.54,0.11 -0.97,0.01 -0.26,-0.06 -0.73,-0.08 -0.9,-0.25 -0.14,-0.48 -0.08,-0.48 -0.48,-0.62 -1.22,-0.44 -0.74,-0.31 -1.77,-0.01 -0.07,-0.34 -0.12,-0.68 -0.16,-1.02 0.3,0.1 0.56,0.28 0.99,0.15 0.21,-0.21 0.07,-0.18 0.17,-0.43l0.72 -0.15c-0.01,0.27 -0.12,0.57 -0.03,0.83 0.26,0.1 0.72,-0.04 1.07,-0.08l0.28 1.01c0.32,0.1 1,0.14 1.3,-0.12 0.6,-0.53 0.91,-0.78 1.98,-0.92 0.42,-0.06 0.92,0.71 1.59,0.72 0.99,0.03 0.78,-0.17 1.2,0.26 1,1.02 0.61,0.82 2.23,0.85 0.28,0.01 0.84,-0.02 1.15,0.02 0.19,-0.38 0.52,-0.57 0.95,-0.66zm1.29 1.14c-0.42,-0.04 -0.82,-0.08 -1.07,-0.03 -0.11,0.02 -0.18,0.07 -0.21,0.19 -0.02,0.15 0.07,0.28 0.23,0.41 0.27,0.21 0.7,0.41 1.12,0.6l0.03 0.01c0.13,0.06 0.26,0.12 0.34,0.16l11.45 5.39c0.01,0 0,-0.02 0.04,-0.05 0.15,-0.09 0.32,-0.25 0.49,-0.44 0.2,-0.23 0.39,-0.5 0.56,-0.78 0.18,-0.31 0.34,-0.62 0.45,-0.91 0.04,-0.1 0.08,-0.2 0.1,-0.29 0.03,-0.08 0.05,-0.16 0.06,-0.22 0.01,-0.05 0.02,-0.1 0.02,-0.15 0.01,-0.06 0.01,-0.12 0.02,-0.19 0.01,-0.29 -0.01,-0.6 -0.06,-0.91 -0.04,-0.31 -0.12,-0.61 -0.22,-0.9 -0.09,-0.24 -0.19,-0.45 -0.3,-0.59l0 -0.01c-0.06,-0.07 -0.1,-0.11 -0.13,-0.13l-12.55 -1.12c-0.11,-0.01 -0.2,-0.02 -0.3,-0.03l-0.07 -0.01zm9.52 3.28c0.1,-0.42 0.36,-0.77 0.7,-0.99 0.34,-0.21 0.77,-0.3 1.19,-0.2 0.43,0.1 0.78,0.35 0.99,0.7 0.22,0.34 0.3,0.76 0.21,1.19 -0.1,0.43 -0.36,0.77 -0.7,0.99 -0.34,0.22 -0.77,0.3 -1.19,0.2 -0.43,-0.09 -0.78,-0.35 -0.99,-0.69 -0.22,-0.34 -0.3,-0.77 -0.21,-1.2zm-20.61 12.16c0.71,-0.21 1.45,0.2 1.66,0.91 0.21,0.71 -0.2,1.46 -0.91,1.67 -0.71,0.21 -1.45,-0.2 -1.66,-0.91 -0.21,-0.71 0.2,-1.46 0.91,-1.67zm8.58 -19.78c-0.08,-0.29 0.08,-0.58 0.36,-0.66 0.28,-0.09 0.58,0.07 0.66,0.36 0.08,0.28 -0.08,0.58 -0.36,0.66 -0.28,0.08 -0.58,-0.08 -0.66,-0.36z"/>
 </g>
</svg>
