<?xml version="1.0" encoding="UTF-8"?>
<!DOCTYPE svg PUBLIC "-//W3C//DTD SVG 1.1//EN" "http://www.w3.org/Graphics/SVG/1.1/DTD/svg11.dtd">
<!-- Creator: CorelDRAW 2019 (64-Bit) -->
<svg xmlns="http://www.w3.org/2000/svg" xml:space="preserve" width="100px" height="100px" version="1.1" style="shape-rendering:geometricPrecision; text-rendering:geometricPrecision; image-rendering:optimizeQuality; fill-rule:evenodd; clip-rule:evenodd"
viewBox="0 0 3.1 3.1"
 xmlns:xlink="http://www.w3.org/1999/xlink">
 <defs>
  <style type="text/css">
   <![CDATA[
    .fil0 {fill:none;fill-rule:nonzero}
    .fil1 {fill:#383838;fill-rule:nonzero}
   ]]>
  </style>
 </defs>
 <g id="Plan_x0020_1">
  <metadata id="CorelCorpID_0Corel-Layer"/>
  <g id="_2451723626128">
   <polygon class="fil0" points="3.1,3.1 0,3.1 0,0 3.1,0 "/>
  </g>
  <g id="_2451723628336">
   <g>
    <path class="fil1" d="M1.68 2.37c-0.07,0 -0.13,-0.06 -0.13,-0.13 0,-0.08 0.06,-0.13 0.13,-0.13 0.06,0 0.11,0.04 0.12,0.1 0.14,-0.22 0.38,-0.36 0.66,-0.36l-2.46 0 0 0.52c0,0.14 0.12,0.25 0.26,0.25l1.42 0c0,-0.09 0.02,-0.18 0.05,-0.26 -0.02,0 -0.03,0.01 -0.05,0.01zm-0.65 0l0 0 -0.64 0 0 -0.26 0.64 0 0 0.26z"/>
    <path class="fil1" d="M2.59 0.81l0 -0.51c0,-0.15 -0.12,-0.26 -0.26,-0.26l-2.07 0c-0.14,0 -0.26,0.11 -0.26,0.26l0 0.51 2.59 0zm-0.52 -0.51l0 0c0.07,0 0.13,0.05 0.13,0.13 0,0.07 -0.06,0.13 -0.13,0.13 -0.07,0 -0.13,-0.06 -0.13,-0.13 0,-0.08 0.06,-0.13 0.13,-0.13zm-0.39 0l0 0c0.07,0 0.13,0.05 0.13,0.13 0,0.07 -0.06,0.13 -0.13,0.13 -0.07,0 -0.13,-0.06 -0.13,-0.13 0,-0.08 0.06,-0.13 0.13,-0.13zm-1.29 0l0 0 0.64 0 0 0.26 -0.64 0 0 -0.26z"/>
    <path class="fil1" d="M0 1.72l2.59 0 0 -0.78 -2.59 0 0 0.78zm2.07 -0.52l0 0c0.07,0 0.13,0.06 0.13,0.13 0,0.07 -0.06,0.13 -0.13,0.13 -0.07,0 -0.13,-0.06 -0.13,-0.13 0,-0.07 0.06,-0.13 0.13,-0.13zm-0.39 0l0 0c0.07,0 0.13,0.06 0.13,0.13 0,0.07 -0.06,0.13 -0.13,0.13 -0.07,0 -0.13,-0.06 -0.13,-0.13 0,-0.07 0.06,-0.13 0.13,-0.13zm-0.65 0l0 0 0 0.26 -0.64 0 0 -0.26 0.64 0z"/>
   </g>
   <polygon class="fil1" points="2.33,3.07 1.85,2.59 2.03,2.4 2.33,2.7 2.88,2.14 3.07,2.33 "/>
  </g>
 </g>
</svg>
