<?xml version="1.0" encoding="UTF-8"?>
<!DOCTYPE svg PUBLIC "-//W3C//DTD SVG 1.1//EN" "http://www.w3.org/Graphics/SVG/1.1/DTD/svg11.dtd">
<!-- Creator: CorelDRAW 2019 (64-Bit) -->
<svg xmlns="http://www.w3.org/2000/svg" xml:space="preserve" width="100px" height="100px" version="1.1" style="shape-rendering:geometricPrecision; text-rendering:geometricPrecision; image-rendering:optimizeQuality; fill-rule:evenodd; clip-rule:evenodd"
viewBox="0 0 4.81 4.81"
 xmlns:xlink="http://www.w3.org/1999/xlink">
 <defs>
  <style type="text/css">
   <![CDATA[
    .fil0 {fill:none;fill-rule:nonzero}
    .fil1 {fill:#383838;fill-rule:nonzero}
   ]]>
  </style>
 </defs>
 <g id="Plan_x0020_1">
  <metadata id="CorelCorpID_0Corel-Layer"/>
  <g id="_2451800933872">
   <polygon class="fil0" points="4.81,4.81 0,4.81 0,0 4.81,0 "/>
  </g>
  <g id="_2451800934544">
   <path class="fil1" d="M3.9 3.31c0.3,-0.52 0.71,-1.34 0.71,-2.01 0,-0.66 -0.54,-1.2 -1.2,-1.2 -0.67,0 -1.21,0.54 -1.21,1.2 0,0.67 0.41,1.49 0.71,2.01l0.99 0zm-0.49 -2.41l0 0c0.22,0 0.4,0.18 0.4,0.4 0,0.22 -0.18,0.4 -0.4,0.4 -0.22,0 -0.4,-0.18 -0.4,-0.4 0,-0.22 0.18,-0.4 0.4,-0.4z"/>
   <path class="fil1" d="M3.99 3.63c-0.03,-0.07 -0.1,-0.12 -0.18,-0.12l-1.72 0 0.06 -0.06c0.07,-0.08 0.07,-0.21 0,-0.29l-0.2 -0.2c-0.06,-0.05 -0.15,-0.07 -0.22,-0.04l-0.73 0.29 0 1.3 2.21 0c0.05,0 0.1,-0.02 0.14,-0.06l0.6 -0.6c0.06,-0.06 0.07,-0.14 0.04,-0.22z"/>
   <path class="fil1" d="M0.6 2.91l-0.4 0c-0.11,0 -0.2,0.09 -0.2,0.2l0 1.4c0,0.11 0.09,0.2 0.2,0.2l0.4 0c0.11,0 0.2,-0.09 0.2,-0.2l0 -1.4c0,-0.11 -0.09,-0.2 -0.2,-0.2z"/>
  </g>
 </g>
</svg>
