<?xml version="1.0" encoding="UTF-8"?>
<!DOCTYPE svg PUBLIC "-//W3C//DTD SVG 1.1//EN" "http://www.w3.org/Graphics/SVG/1.1/DTD/svg11.dtd">
<!-- Creator: CorelDRAW 2020 (64-Bit) -->
<svg xmlns="http://www.w3.org/2000/svg" xml:space="preserve" width="177px" height="177px" version="1.1" style="shape-rendering:geometricPrecision; text-rendering:geometricPrecision; image-rendering:optimizeQuality; fill-rule:evenodd; clip-rule:evenodd"
viewBox="0 0 7.76 7.76"
 xmlns:xlink="http://www.w3.org/1999/xlink"
 xmlns:xodm="http://www.corel.com/coreldraw/odm/2003">
 <defs>
  <style type="text/css">
   <![CDATA[
    .str2 {stroke:#C5C6C6;stroke-width:0.1;stroke-miterlimit:22.9256}
    .str1 {stroke:#2B2A29;stroke-width:0.1;stroke-miterlimit:22.9256}
    .str5 {stroke:#EBECEC;stroke-width:0.09;stroke-miterlimit:22.9256}
    .str0 {stroke:#A2A2A2;stroke-width:0.09;stroke-miterlimit:22.9256}
    .str4 {stroke:#C5C6C6;stroke-width:0.04;stroke-miterlimit:22.9256}
    .str3 {stroke:#2B2A29;stroke-width:0.04;stroke-miterlimit:22.9256}
    .fil0 {fill:none}
    .fil2 {fill:none;fill-rule:nonzero}
    .fil1 {fill:#FEFEFE}
    .fil3 {fill:gainsboro;fill-rule:nonzero}
   ]]>
  </style>
 </defs>
 <g id="Plan_x0020_1">
  <metadata id="CorelCorpID_0Corel-Layer"/>
  <g id="_2068737564960">
   <rect class="fil0" width="7.76" height="7.76"/>
   <rect class="fil1 str0" x="1.68" y="0.69" width="4.62" height="6.02" rx="0.08" ry="0.08"/>
   <line class="fil0 str1" x1="2.29" y1="2.86" x2="3.55" y2= "2.86" />
   <line class="fil0 str2" x1="2.29" y1="3.03" x2="3.55" y2= "3.03" />
   <line class="fil0 str2" x1="2.29" y1="3.21" x2="3.17" y2= "3.21" />
   <polygon class="fil2" points="2.93,2.17 1.91,2.17 1.91,1.15 2.93,1.15 "/>
   <line class="fil0 str3" x1="3.97" y1="1.22" x2="4.44" y2= "1.22" />
   <line class="fil0 str4" x1="3.97" y1="1.33" x2="4.44" y2= "1.33" />
   <line class="fil0 str4" x1="3.97" y1="1.44" x2="4.44" y2= "1.44" />
   <line class="fil0 str3" x1="2.29" y1="5.52" x2="3.3" y2= "5.52" />
   <line class="fil0 str4" x1="2.29" y1="5.63" x2="3.3" y2= "5.63" />
   <line class="fil0 str4" x1="2.29" y1="5.74" x2="3.3" y2= "5.74" />
   <line class="fil0 str4" x1="2.29" y1="5.85" x2="3.17" y2= "5.85" />
   <line class="fil0 str3" x1="3.56" y1="5.52" x2="4.58" y2= "5.52" />
   <line class="fil0 str4" x1="3.56" y1="5.63" x2="4.58" y2= "5.63" />
   <line class="fil0 str4" x1="3.56" y1="5.74" x2="4.58" y2= "5.74" />
   <line class="fil0 str4" x1="3.56" y1="5.85" x2="4.44" y2= "5.85" />
   <line class="fil0 str3" x1="5" y1="1.2" x2="6.02" y2= "1.2" />
   <line class="fil0 str4" x1="5" y1="1.31" x2="6.02" y2= "1.31" />
   <line class="fil0 str4" x1="5" y1="1.42" x2="6.02" y2= "1.42" />
   <line class="fil0 str4" x1="5" y1="1.53" x2="5.89" y2= "1.53" />
   <line class="fil0 str3" x1="5" y1="1.81" x2="6.02" y2= "1.81" />
   <line class="fil0 str4" x1="5" y1="1.91" x2="6.02" y2= "1.91" />
   <line class="fil0 str4" x1="5" y1="2.02" x2="6.02" y2= "2.02" />
   <line class="fil0 str4" x1="5" y1="2.13" x2="5.89" y2= "2.13" />
   <line class="fil0 str3" x1="5" y1="2.41" x2="6.02" y2= "2.41" />
   <line class="fil0 str4" x1="5" y1="2.52" x2="6.02" y2= "2.52" />
   <line class="fil0 str4" x1="5" y1="2.63" x2="6.02" y2= "2.63" />
   <line class="fil0 str4" x1="5" y1="2.74" x2="5.89" y2= "2.74" />
   <line class="fil0 str3" x1="5" y1="3.02" x2="6.02" y2= "3.02" />
   <line class="fil0 str4" x1="5" y1="3.13" x2="6.02" y2= "3.13" />
   <line class="fil0 str4" x1="5" y1="3.24" x2="6.02" y2= "3.24" />
   <line class="fil0 str4" x1="5" y1="3.34" x2="5.89" y2= "3.34" />
   <line class="fil0 str3" x1="2.29" y1="3.78" x2="4.56" y2= "3.78" />
   <line class="fil0 str4" x1="2.29" y1="3.9" x2="4.56" y2= "3.9" />
   <line class="fil0 str4" x1="2.29" y1="4.03" x2="4.56" y2= "4.03" />
   <line class="fil0 str4" x1="2.29" y1="4.15" x2="4.56" y2= "4.15" />
   <line class="fil0 str4" x1="2.29" y1="4.27" x2="4.06" y2= "4.27" />
   <line class="fil0 str4" x1="2.29" y1="4.39" x2="4.56" y2= "4.39" />
   <line class="fil0 str4" x1="2.29" y1="4.51" x2="4.56" y2= "4.51" />
   <line class="fil0 str4" x1="2.29" y1="4.64" x2="4.56" y2= "4.64" />
   <line class="fil0 str4" x1="2.29" y1="4.76" x2="4.56" y2= "4.76" />
   <line class="fil0 str4" x1="2.29" y1="4.88" x2="4.56" y2= "4.88" />
   <line class="fil0 str4" x1="2.29" y1="5" x2="3.81" y2= "5" />
   <path class="fil0 str5" d="M6.44 6.33l0 -5.7c0,-0.04 -0.04,-0.08 -0.08,-0.08l-4.34 0"/>
   <path class="fil0 str5" d="M6.58 6.19l0 -5.7c0,-0.04 -0.03,-0.08 -0.08,-0.08l-4.34 0"/>
   <polygon class="fil2" points="3.85,2.47 1.98,2.47 1.98,0.61 3.85,0.61 "/>
   <path class="fil3" d="M2.91 1c-0.21,0 -0.38,0.17 -0.38,0.39 0,0.21 0.17,0.38 0.38,0.38 0.22,0 0.39,-0.17 0.39,-0.38 0,-0.22 -0.17,-0.39 -0.39,-0.39zm0 0.62l0 0c-0.12,0 -0.23,-0.1 -0.23,-0.23l0.47 0c0,0.13 -0.11,0.23 -0.24,0.23z"/>
   <path class="fil3" d="M2.69 1.88c-0.24,0.06 -0.4,0.23 -0.4,0.44l0 0.15 0.53 0 -0.13 -0.59z"/>
   <path class="fil3" d="M3.14 1.88l-0.13 0.59 0.53 0 0 -0.15c0,-0.21 -0.16,-0.38 -0.4,-0.44z"/>
   <polygon class="fil3" points="2.84,2.09 2.91,1.85 2.99,2.09 2.91,2.4 "/>
  </g>
 </g>
</svg>
