<?xml version="1.0" encoding="UTF-8"?>
<!DOCTYPE svg PUBLIC "-//W3C//DTD SVG 1.1//EN" "http://www.w3.org/Graphics/SVG/1.1/DTD/svg11.dtd">
<!-- Creator: CorelDRAW 2020 (64-Bit) -->
<svg xmlns="http://www.w3.org/2000/svg" xml:space="preserve" width="201px" height="201px" version="1.1" style="shape-rendering:geometricPrecision; text-rendering:geometricPrecision; image-rendering:optimizeQuality; fill-rule:evenodd; clip-rule:evenodd"
viewBox="0 0 91.23 91.23"
 xmlns:xlink="http://www.w3.org/1999/xlink"
 xmlns:xodm="http://www.corel.com/coreldraw/odm/2003">
 <defs>
  <style type="text/css">
   <![CDATA[
    .str3 {stroke:#C5C6C6;stroke-width:1.42;stroke-miterlimit:22.9256}
    .str2 {stroke:#2B2A29;stroke-width:1.42;stroke-miterlimit:22.9256}
    .str1 {stroke:#CBCBCB;stroke-width:0.95;stroke-miterlimit:22.9256}
    .str0 {stroke:#A2A2A2;stroke-width:0.95;stroke-miterlimit:22.9256}
    .fil0 {fill:none}
    .fil2 {fill:none;fill-rule:nonzero}
    .fil1 {fill:#FEFEFE}
    .fil3 {fill:#C5C6C6;fill-rule:nonzero}
   ]]>
  </style>
 </defs>
 <g id="Plan_x0020_1">
  <metadata id="CorelCorpID_0Corel-Layer"/>
  <rect class="fil0" width="91.23" height="91.23"/>
  <g id="_2224252955456">
   <rect class="fil1 str0" x="17.34" y="12.54" width="53.3" height="69.41" rx="0.96" ry="0.92"/>
   <path class="fil0 str1" d="M72.27 77.62l0 -65.75c0,-0.52 -0.44,-0.96 -0.97,-0.96l-50.07 0"/>
   <path class="fil0 str1" d="M73.89 76l0 -65.75c0,-0.53 -0.43,-0.96 -0.96,-0.96l-50.08 0"/>
   <line class="fil0 str2" x1="46.02" y1="21.32" x2="59.52" y2= "21.32" />
   <line class="fil0 str3" x1="46.02" y1="23.71" x2="59.52" y2= "23.71" />
   <line class="fil0 str3" x1="46.02" y1="26.09" x2="59.52" y2= "26.09" />
   <line class="fil0 str3" x1="46.02" y1="28.47" x2="57.79" y2= "28.47" />
   <polygon class="fil2" points="60.77,76.05 44.77,76.05 44.77,60.05 60.77,60.05 "/>
   <path class="fil3" d="M57.44 68.72l-5.33 0 0 -5.33c0,-0.2 -0.09,-0.38 -0.23,-0.5 -0.14,-0.13 -0.33,-0.19 -0.52,-0.17 -3,0.38 -5.25,2.95 -5.25,6 0,3.3 2.69,6 6,6 3.04,0 5.62,-2.26 5.99,-5.25 0.02,-0.19 -0.04,-0.38 -0.16,-0.53 -0.13,-0.14 -0.31,-0.22 -0.5,-0.22zm-5.33 4.66l0 0c-2.58,0 -4.67,-2.09 -4.67,-4.66 0,-2.11 1.39,-3.93 3.33,-4.52l0 5.18c0,0.37 0.3,0.67 0.67,0.67l5.18 0c-0.58,1.94 -2.4,3.33 -4.51,3.33z"/>
   <path class="fil3" d="M53.44 61.39c-0.37,0 -0.67,0.29 -0.67,0.66l0 5.33c0,0.37 0.3,0.67 0.67,0.67l5.33 0c0.37,0 0.67,-0.3 0.67,-0.67 0,-3.3 -2.69,-5.99 -6,-5.99zm0.67 5.33l0 0 0 -3.95c2.04,0.29 3.65,1.91 3.95,3.95l-3.95 0z"/>
   <polygon class="fil2" points="42.07,54.88 26.08,54.88 26.08,38.88 42.07,38.88 "/>
   <path class="fil3" d="M34.07 46.88l5.34 0c0.36,0 0.66,-0.3 0.66,-0.67 0,-3.31 -2.69,-6 -6,-6 -0.36,0 -0.66,0.3 -0.66,0.67l0 5.33c0,0.37 0.3,0.67 0.66,0.67zm0.67 -5.29l0 0c2.04,0.3 3.66,1.91 3.95,3.96l-3.95 0 0 -3.96z"/>
   <path class="fil3" d="M41.21 47.74c-0.13,-0.13 -0.3,-0.2 -0.47,-0.2l-5.33 0c-0.27,0 -0.52,0.17 -0.62,0.42 -0.1,0.25 -0.05,0.53 0.15,0.72l3.76 3.77c0.13,0.13 0.3,0.2 0.48,0.2 0.17,0 0.34,-0.07 0.47,-0.2 1.13,-1.13 1.75,-2.64 1.75,-4.24 0,-0.18 -0.07,-0.35 -0.19,-0.47zm-2.07 3.27l0 0 -2.13 -2.13 3.01 0c-0.11,0.77 -0.41,1.5 -0.88,2.13z"/>
   <path class="fil3" d="M32.74 47.27l0 -5.01c0,-0.19 -0.08,-0.37 -0.22,-0.5 -0.15,-0.13 -0.34,-0.19 -0.53,-0.16 -2.99,0.37 -5.25,2.93 -5.25,5.94 0,3.31 2.69,6 6,6 1.41,0 2.77,-0.49 3.85,-1.4 0.14,-0.12 0.23,-0.29 0.24,-0.48 0.01,-0.19 -0.06,-0.37 -0.2,-0.5l-3.89 -3.89zm0 4.94l0 0c-2.57,0 -4.66,-2.09 -4.66,-4.67 0,-2.08 1.38,-3.89 3.33,-4.46l0 4.46c0,0.18 0.07,0.35 0.19,0.48l3.53 3.53c-0.72,0.43 -1.54,0.66 -2.39,0.66z"/>
   <polygon class="fil2" points="42.07,76.05 26.08,76.05 26.08,60.05 42.07,60.05 "/>
   <path class="fil3" d="M29.41 72.72l0 -0.67 8.66 0c0.37,0 0.67,-0.3 0.67,-0.67l0 -2.66c0,-0.37 -0.3,-0.67 -0.67,-0.67l-4.66 0 0 -1.33 2 0c0.36,0 0.66,-0.3 0.66,-0.67l0 -2.66c0,-0.37 -0.3,-0.67 -0.66,-0.67l-6 0 0 -0.67 -1.33 0 0 11.33c0,0.37 0.29,0.67 0.66,0.67l11.33 0 0 -1.33 -10.66 0zm8 -2l0 0 -8 0 0 -1.34 8 0 0 1.34zm-8 -2.67l0 0 0 -1.33 2.66 0 0 1.33 -2.66 0zm5.33 -4l0 0 0 1.33 -5.33 0 0 -1.33 5.33 0z"/>
   <polygon class="fil2" points="60.77,54.88 44.78,54.88 44.78,38.88 60.77,38.88 "/>
   <path class="fil3" d="M59.44 53.54l0 -8.66c0,-0.37 -0.3,-0.67 -0.67,-0.67l-2.67 0c-0.36,0 -0.66,0.3 -0.66,0.67l0 8.66 -0.67 0 0 -4.66c0,-0.37 -0.3,-0.67 -0.66,-0.67l-2.67 0c-0.37,0 -0.67,0.3 -0.67,0.67l0 4.66 -0.66 0 0 -6.66c0,-0.37 -0.3,-0.67 -0.67,-0.67l-2.67 0c-0.36,0 -0.66,0.3 -0.66,0.67l0 6.66 -1.33 0 0 1.33 15.99 0 0 -1.33 -1.33 0zm-12 0l0 0 0 -6 1.33 0 0 6 -1.33 0zm4.67 0l0 0 0 -4 1.33 0 0 4 -1.33 0zm4.66 0l0 0 0 -8 1.33 0 0 8 -1.33 0z"/>
   <path class="fil3" d="M48.11 43.55c0.24,0 0.47,-0.07 0.66,-0.19l2.67 1.52c0,0.74 0.6,1.33 1.33,1.33 0.74,0 1.34,-0.6 1.34,-1.33 0,-0.12 -0.02,-0.23 -0.05,-0.34l3.04 -3.04c0.11,0.03 0.22,0.05 0.34,0.05 0.73,0 1.33,-0.6 1.33,-1.34 0,-0.73 -0.6,-1.33 -1.33,-1.33 -0.74,0 -1.34,0.6 -1.34,1.33 0,0.12 0.03,0.23 0.05,0.34l-3.04 3.04c-0.11,-0.02 -0.22,-0.04 -0.34,-0.04 -0.24,0 -0.47,0.07 -0.66,0.18l-2.67 -1.52c0,-0.74 -0.6,-1.33 -1.33,-1.33 -0.74,0 -1.34,0.6 -1.34,1.33 0,0.74 0.6,1.34 1.34,1.34z"/>
   <polygon class="fil2" points="42.07,34.56 26.08,34.56 26.08,18.57 42.07,18.57 "/>
   <path class="fil3" d="M30.41 26.57c1.47,0 2.66,-1.2 2.66,-2.67 0,-1.47 -1.19,-2.67 -2.66,-2.67 -1.47,0 -2.67,1.2 -2.67,2.67 0,1.47 1.2,2.67 2.67,2.67zm0 -4l0 0c0.73,0 1.33,0.59 1.33,1.33 0,0.73 -0.6,1.33 -1.33,1.33 -0.74,0 -1.33,-0.6 -1.33,-1.33 0,-0.74 0.59,-1.33 1.33,-1.33z"/>
   <path class="fil3" d="M37.07 27.9c-1.47,0 -2.66,1.19 -2.66,2.66 0,1.47 1.19,2.67 2.66,2.67 1.47,0 2.67,-1.2 2.67,-2.67 0,-1.47 -1.2,-2.66 -2.67,-2.66zm0 4l0 0c-0.73,0 -1.33,-0.6 -1.33,-1.34 0,-0.73 0.6,-1.33 1.33,-1.33 0.74,0 1.34,0.6 1.34,1.33 0,0.74 -0.6,1.34 -1.34,1.34z"/>
   <polygon class="fil3" points="35.74,20.57 35.74,21.9 38.13,21.9 27.94,32.09 28.88,33.03 39.07,22.84 39.07,25.23 40.41,25.23 40.41,20.57 "/>
  </g>
 </g>
</svg>
