<?xml version="1.0" encoding="UTF-8"?>
<!DOCTYPE svg PUBLIC "-//W3C//DTD SVG 1.1//EN" "http://www.w3.org/Graphics/SVG/1.1/DTD/svg11.dtd">
<!-- Creator: CorelDRAW 2020 (64-Bit) -->
<svg xmlns="http://www.w3.org/2000/svg" xml:space="preserve" width="179px" height="179px" version="1.1" style="shape-rendering:geometricPrecision; text-rendering:geometricPrecision; image-rendering:optimizeQuality; fill-rule:evenodd; clip-rule:evenodd"
viewBox="0 0 10.89 10.89"
 xmlns:xlink="http://www.w3.org/1999/xlink"
 xmlns:xodm="http://www.corel.com/coreldraw/odm/2003">
 <defs>
  <style type="text/css">
   <![CDATA[
    .str4 {stroke:#C5C6C6;stroke-width:0.14;stroke-miterlimit:22.9256}
    .str3 {stroke:#2B2A29;stroke-width:0.14;stroke-miterlimit:22.9256}
    .str0 {stroke:#A2A2A2;stroke-width:0.13;stroke-miterlimit:22.9256}
    .str2 {stroke:#C5C6C6;stroke-width:0.05;stroke-miterlimit:22.9256}
    .str1 {stroke:#2B2A29;stroke-width:0.05;stroke-miterlimit:22.9256}
    .fil0 {fill:none}
    .fil1 {fill:#FEFEFE}
    .fil2 {fill:#EBECEC}
    .fil3 {fill:#2B2A29;fill-rule:nonzero}
   ]]>
  </style>
 </defs>
 <g id="Plan_x0020_1">
  <metadata id="CorelCorpID_0Corel-Layer"/>
  <rect class="fil0" width="10.89" height="10.89"/>
  <rect class="fil1 str0" x="1.87" y="0.79" width="7.15" height="9.31" rx="0.13" ry="0.12"/>
  <line class="fil0 str1" x1="3.23" y1="4.23" x2="4.75" y2= "4.23" />
  <line class="fil0 str2" x1="3.23" y1="4.35" x2="4.75" y2= "4.35" />
  <line class="fil0 str2" x1="3.23" y1="4.47" x2="4.75" y2= "4.47" />
  <line class="fil0 str2" x1="3.23" y1="4.58" x2="4.56" y2= "4.58" />
  <line class="fil0 str1" x1="5.39" y1="5.86" x2="6.9" y2= "5.86" />
  <line class="fil0 str2" x1="5.39" y1="5.97" x2="6.9" y2= "5.97" />
  <line class="fil0 str2" x1="5.39" y1="6.09" x2="6.9" y2= "6.09" />
  <line class="fil0 str2" x1="5.39" y1="6.21" x2="6.71" y2= "6.21" />
  <rect class="fil2" x="5.38" y="3.65" width="1.45" height="1.51"/>
  <rect class="fil2" x="2.21" y="5.69" width="2.62" height="1.51"/>
  <path class="fil2" d="M8.73 0.95l-6.57 0c-0.07,0 -0.12,0.06 -0.12,0.13l0 2.26 6.82 0 0 -2.26c0,-0.07 -0.06,-0.13 -0.13,-0.13z"/>
  <line class="fil0 str3" x1="3.23" y1="1.99" x2="5.11" y2= "1.99" />
  <polygon class="fil3" points="3.23,1.16 3.44,1.16 3.44,1.26 3.23,1.26 "/>
  <line class="fil0 str4" x1="3.23" y1="2.26" x2="5.11" y2= "2.26" />
  <line class="fil0 str4" x1="3.23" y1="2.53" x2="4.54" y2= "2.53" />
  <line class="fil0 str1" x1="3.23" y1="8.16" x2="4.75" y2= "8.16" />
  <line class="fil0 str2" x1="3.23" y1="8.27" x2="4.75" y2= "8.27" />
  <line class="fil0 str2" x1="3.23" y1="8.39" x2="4.75" y2= "8.39" />
  <line class="fil0 str2" x1="3.23" y1="8.51" x2="4.56" y2= "8.51" />
  <line class="fil0 str1" x1="5.39" y1="8.15" x2="6.9" y2= "8.15" />
  <line class="fil0 str2" x1="5.39" y1="8.26" x2="6.9" y2= "8.26" />
  <line class="fil0 str2" x1="5.39" y1="8.38" x2="6.9" y2= "8.38" />
  <line class="fil0 str2" x1="5.39" y1="8.5" x2="6.71" y2= "8.5" />
  <line class="fil0 str1" x1="3.23" y1="8.86" x2="4.75" y2= "8.86" />
  <line class="fil0 str2" x1="3.23" y1="8.98" x2="4.75" y2= "8.98" />
  <line class="fil0 str2" x1="3.23" y1="9.1" x2="4.75" y2= "9.1" />
  <line class="fil0 str2" x1="3.23" y1="9.21" x2="4.56" y2= "9.21" />
  <line class="fil0 str2" x1="6.49" y1="1.21" x2="6.83" y2= "1.21" />
  <line class="fil0 str2" x1="6" y1="1.21" x2="6.34" y2= "1.21" />
  <line class="fil0 str2" x1="5.44" y1="1.21" x2="5.85" y2= "1.21" />
  <line class="fil0 str2" x1="4.95" y1="1.21" x2="5.29" y2= "1.21" />
  <line class="fil0 str1" x1="5.39" y1="6.51" x2="6.9" y2= "6.51" />
  <line class="fil0 str2" x1="5.39" y1="6.63" x2="6.9" y2= "6.63" />
  <line class="fil0 str2" x1="5.39" y1="6.74" x2="6.9" y2= "6.74" />
  <line class="fil0 str2" x1="5.39" y1="6.86" x2="6.71" y2= "6.86" />
 </g>
</svg>
