<?xml version="1.0" encoding="UTF-8"?>
<!DOCTYPE svg PUBLIC "-//W3C//DTD SVG 1.1//EN" "http://www.w3.org/Graphics/SVG/1.1/DTD/svg11.dtd">
<!-- Creator: CorelDRAW 2019 (64-Bit) -->
<svg xmlns="http://www.w3.org/2000/svg" xml:space="preserve" width="182px" height="182px" version="1.1" style="shape-rendering:geometricPrecision; text-rendering:geometricPrecision; image-rendering:optimizeQuality; fill-rule:evenodd; clip-rule:evenodd"
viewBox="0 0 4.29 4.29"
 xmlns:xlink="http://www.w3.org/1999/xlink">
 <defs>
  <style type="text/css">
   <![CDATA[
    .fil0 {fill:none;fill-rule:nonzero}
    .fil1 {fill:#898989;fill-rule:nonzero}
   ]]>
  </style>
 </defs>
 <g id="Plan_x0020_1">
  <metadata id="CorelCorpID_0Corel-Layer"/>
  <g id="_2451894247232">
   <polygon class="fil0" points="4.29,4.29 0,4.29 0,0 4.29,0 "/>
   <path class="fil1" d="M2.78 2.32l-1.15 0 -0.21 -0.27c-0.04,-0.09 -0.14,-0.16 -0.25,-0.16l-0.83 0c-0.08,0 -0.14,0.07 -0.14,0.15l0 1.65c0,0.16 0.13,0.28 0.29,0.28l2.29 0c0.16,0 0.29,-0.12 0.29,-0.28l0 -1.08c0,-0.16 -0.13,-0.29 -0.29,-0.29zm-0.06 -0.5c-0.36,0 -0.67,0.08 -0.91,0.22l0.04 0.06 1.15 0c0.16,0 0.29,0.13 0.29,0.29l0 0.68 0.86 0 0 -0.18c0,-0.63 -0.59,-1.07 -1.43,-1.07zm0 -0.18c0.39,0 0.72,-0.32 0.72,-0.72 0,-0.39 -0.33,-0.71 -0.72,-0.71 -0.4,0 -0.72,0.32 -0.72,0.71 0,0.4 0.32,0.72 0.72,0.72z"/>
  </g>
 </g>
</svg>
