<?xml version="1.0" encoding="UTF-8"?>
<!DOCTYPE svg PUBLIC "-//W3C//DTD SVG 1.1//EN" "http://www.w3.org/Graphics/SVG/1.1/DTD/svg11.dtd">
<!-- Creator: CorelDRAW 2020 (64-Bit) -->
<svg xmlns="http://www.w3.org/2000/svg" xml:space="preserve" width="50px" height="50px" version="1.1" style="shape-rendering:geometricPrecision; text-rendering:geometricPrecision; image-rendering:optimizeQuality; fill-rule:evenodd; clip-rule:evenodd"
viewBox="0 0 1.96 1.96"
 xmlns:xlink="http://www.w3.org/1999/xlink"
 xmlns:xodm="http://www.corel.com/coreldraw/odm/2003">
 <defs>
  <style type="text/css">
   <![CDATA[
    .fil0 {fill:none;fill-rule:nonzero}
    .fil1 {fill:#383838;fill-rule:nonzero}
   ]]>
  </style>
 </defs>
 <g id="Plan_x0020_1">
  <metadata id="CorelCorpID_0Corel-Layer"/>
  <g id="_2675500504800">
   <g>
    <polygon class="fil0" points="1.96,1.96 0,1.96 0,0 1.96,0 "/>
   </g>
   <path class="fil1" d="M1.76 1.01l-0.81 -0.81 -0.11 0.12 0.11 0.11 0 0 -0.4 0.41 0 0 -0.12 -0.12 -0.11 0.12 0.34 0.34 -0.46 0.47 0.12 0.11 0.46 -0.46 0.35 0.35 0.11 -0.12 -0.11 -0.11 0.4 -0.41 0 0 0.12 0.12 0.11 -0.12zm-0.75 0.29l0 0 0 0 -0.35 -0.35 0.41 -0.4 0.35 0.35 -0.41 0.4z"/>
  </g>
 </g>
</svg>
