<?xml version="1.0" encoding="UTF-8"?>
<!DOCTYPE svg PUBLIC "-//W3C//DTD SVG 1.1//EN" "http://www.w3.org/Graphics/SVG/1.1/DTD/svg11.dtd">
<!-- Creator: CorelDRAW 2019 (64-Bit) -->
<svg xmlns="http://www.w3.org/2000/svg" xml:space="preserve" width="182px" height="182px" version="1.1" style="shape-rendering:geometricPrecision; text-rendering:geometricPrecision; image-rendering:optimizeQuality; fill-rule:evenodd; clip-rule:evenodd"
viewBox="0 0 4.23 4.23"
 xmlns:xlink="http://www.w3.org/1999/xlink">
 <defs>
  <style type="text/css">
   <![CDATA[
    .fil0 {fill:none;fill-rule:nonzero}
    .fil1 {fill:#FEFEFE;fill-rule:nonzero}
   ]]>
  </style>
 </defs>
 <g id="Plan_x0020_1">
  <metadata id="CorelCorpID_0Corel-Layer"/>
  <g id="_2451825547312">
   <polygon class="fil0" points="4.23,4.23 0,4.23 0,0 4.23,0 "/>
   <path class="fil1" d="M2.74 2.29l-1.13 0 -0.21 -0.27c-0.04,-0.09 -0.14,-0.15 -0.25,-0.15l-0.81 0c-0.08,0 -0.14,0.06 -0.14,0.14l0 1.62c0,0.16 0.12,0.28 0.28,0.28l2.26 0c0.15,0 0.28,-0.12 0.28,-0.28l0 -1.06c0,-0.15 -0.13,-0.28 -0.28,-0.28zm-0.06 -0.5c-0.35,0 -0.66,0.08 -0.9,0.22l0.05 0.06 1.13 0c0.15,0 0.28,0.13 0.28,0.28l0 0.68 0.85 0 0 -0.18c0,-0.62 -0.58,-1.06 -1.41,-1.06zm0 -0.17c0.39,0 0.7,-0.32 0.7,-0.71 0,-0.39 -0.31,-0.7 -0.7,-0.7 -0.39,0 -0.71,0.31 -0.71,0.7 0,0.39 0.32,0.71 0.71,0.71z"/>
  </g>
 </g>
</svg>
