<?xml version="1.0" encoding="UTF-8"?>
<!DOCTYPE svg PUBLIC "-//W3C//DTD SVG 1.1//EN" "http://www.w3.org/Graphics/SVG/1.1/DTD/svg11.dtd">
<!-- Creator: CorelDRAW 2020 (64-Bit) -->
<svg xmlns="http://www.w3.org/2000/svg" xml:space="preserve" width="50px" height="50px" version="1.1" style="shape-rendering:geometricPrecision; text-rendering:geometricPrecision; image-rendering:optimizeQuality; fill-rule:evenodd; clip-rule:evenodd"
viewBox="0 0 2.89 2.89"
 xmlns:xlink="http://www.w3.org/1999/xlink"
 xmlns:xodm="http://www.corel.com/coreldraw/odm/2003">
 <defs>
  <style type="text/css">
   <![CDATA[
    .fil0 {fill:none;fill-rule:nonzero}
    .fil1 {fill:#383838;fill-rule:nonzero}
   ]]>
  </style>
 </defs>
 <g id="Plan_x0020_1">
  <metadata id="CorelCorpID_0Corel-Layer"/>
  <g id="_2677479193648">
   <g>
    <polygon class="fil0" points="2.89,2.89 0,2.89 0,0 2.89,0 "/>
   </g>
   <g>
    <polygon class="fil1" points="1.17,1.89 1.44,1.61 1.72,1.89 1.89,1.72 1.61,1.44 1.89,1.17 1.72,1 1.44,1.27 1.17,1 1,1.17 1.27,1.44 1,1.72 "/>
    <path class="fil1" d="M2.29 0.36l-1.69 0c-0.13,0 -0.24,0.11 -0.24,0.24l0 1.69c0,0.13 0.11,0.24 0.24,0.24l1.69 0c0.13,0 0.24,-0.11 0.24,-0.24l0 -1.69c0,-0.13 -0.11,-0.24 -0.24,-0.24zm0 1.93l0 0 -1.69 0 0 -1.69 1.69 0 0 1.69z"/>
   </g>
  </g>
 </g>
</svg>
