<?xml version="1.0" encoding="UTF-8"?>
<!DOCTYPE svg PUBLIC "-//W3C//DTD SVG 1.1//EN" "http://www.w3.org/Graphics/SVG/1.1/DTD/svg11.dtd">
<!-- Creator: CorelDRAW 2019 (64-Bit) -->
<svg xmlns="http://www.w3.org/2000/svg" xml:space="preserve" width="182px" height="182px" version="1.1" style="shape-rendering:geometricPrecision; text-rendering:geometricPrecision; image-rendering:optimizeQuality; fill-rule:evenodd; clip-rule:evenodd"
viewBox="0 0 4.63 4.63"
 xmlns:xlink="http://www.w3.org/1999/xlink">
 <defs>
  <style type="text/css">
   <![CDATA[
    .fil0 {fill:none;fill-rule:nonzero}
    .fil1 {fill:#FEFEFE;fill-rule:nonzero}
   ]]>
  </style>
 </defs>
 <g id="Plan_x0020_1">
  <metadata id="CorelCorpID_0Corel-Layer"/>
  <g id="_2452461098672">
   <polygon class="fil0" points="4.63,4.63 0,4.63 0,0 4.63,0 "/>
   <path class="fil1" d="M4.24 1.35l-0.58 0 0 -0.77c0,-0.11 -0.08,-0.19 -0.19,-0.19l-3.08 0c-0.11,0 -0.2,0.08 -0.2,0.19l0 3.47c0,0.1 0.09,0.19 0.2,0.19l3.46 0c0.06,0 0.1,-0.02 0.14,-0.06l0.39 -0.38c0.03,-0.04 0.05,-0.09 0.05,-0.14l0 -2.12c0,-0.1 -0.08,-0.19 -0.19,-0.19zm-3.67 -0.44l0.17 0 0.21 0.31 0 -0.31 0.17 0 0 0.57 -0.17 0 -0.21 -0.31 0 0.31 -0.17 0 0 -0.57zm0.67 0l0.48 0 0 0.12 -0.3 0 0 0.09 0.28 0 0 0.12 -0.28 0 0 0.11 0.31 0 0 0.13 -0.49 0 0 -0.57zm0.52 0l0.17 0 0.06 0.32 0.09 -0.32 0.17 0 0.09 0.32 0.06 -0.32 0.17 0 -0.13 0.57 -0.17 0 -0.1 -0.36 -0.1 0.36 -0.18 0 -0.13 -0.57zm0.84 0.38l0.17 -0.01c0,0.03 0.01,0.05 0.02,0.06 0.02,0.03 0.04,0.04 0.08,0.04 0.02,0 0.04,-0.01 0.06,-0.02 0.01,-0.01 0.02,-0.02 0.02,-0.04 0,-0.02 -0.01,-0.03 -0.02,-0.04 -0.02,-0.01 -0.05,-0.02 -0.09,-0.03 -0.08,-0.02 -0.14,-0.04 -0.17,-0.07 -0.03,-0.03 -0.05,-0.07 -0.05,-0.12 0,-0.02 0.01,-0.05 0.02,-0.08 0.02,-0.03 0.05,-0.05 0.08,-0.06 0.04,-0.02 0.08,-0.02 0.14,-0.02 0.08,0 0.13,0.01 0.17,0.04 0.04,0.02 0.06,0.07 0.07,0.13l-0.17 0.01c0,-0.03 -0.01,-0.05 -0.02,-0.06 -0.02,-0.01 -0.04,-0.02 -0.06,-0.02 -0.02,0 -0.04,0.01 -0.05,0.02 -0.01,0.01 -0.02,0.02 -0.02,0.03 0,0.01 0.01,0.02 0.02,0.02 0,0.01 0.02,0.02 0.06,0.02 0.07,0.02 0.13,0.04 0.16,0.06 0.04,0.01 0.06,0.03 0.08,0.06 0.01,0.02 0.02,0.05 0.02,0.08 0,0.04 -0.01,0.08 -0.03,0.11 -0.02,0.03 -0.05,0.05 -0.09,0.07 -0.03,0.01 -0.08,0.02 -0.14,0.02 -0.09,0 -0.16,-0.02 -0.2,-0.05 -0.04,-0.04 -0.06,-0.09 -0.06,-0.15zm-0.87 2.37l0 0 -1.15 0 0 -0.38 1.15 0 0 0.38zm0 -0.58l0 0 -1.15 0 0 -0.38 1.15 0 0 0.38zm0 -0.57l0 0 -1.15 0 0 -0.39 1.15 0 0 0.39zm1.35 1.15l0 0 -1.15 0 0 -0.38 1.15 0 0 0.38zm0 -0.58l0 0 -1.15 0 0 -0.38 1.15 0 0 0.38zm0 -0.57l0 0 -1.15 0 0 -0.39 1.15 0 0 0.39zm0.97 1.07l0 0 -0.08 0.08 -0.31 0 0 -1.93 0.39 0 0 1.85z"/>
  </g>
 </g>
</svg>
