<?xml version="1.0" encoding="UTF-8"?>
<!DOCTYPE svg PUBLIC "-//W3C//DTD SVG 1.1//EN" "http://www.w3.org/Graphics/SVG/1.1/DTD/svg11.dtd">
<!-- Creator: CorelDRAW 2019 (64-Bit) -->
<svg xmlns="http://www.w3.org/2000/svg" xml:space="preserve" width="182px" height="182px" version="1.1" style="shape-rendering:geometricPrecision; text-rendering:geometricPrecision; image-rendering:optimizeQuality; fill-rule:evenodd; clip-rule:evenodd"
viewBox="0 0 5.09 5.09"
 xmlns:xlink="http://www.w3.org/1999/xlink">
 <defs>
  <style type="text/css">
   <![CDATA[
    .fil0 {fill:none;fill-rule:nonzero}
    .fil1 {fill:#FEFEFE;fill-rule:nonzero}
   ]]>
  </style>
 </defs>
 <g id="Plan_x0020_1">
  <metadata id="CorelCorpID_0Corel-Layer"/>
  <g id="_2452455781888">
   <g>
    <polygon class="fil0" points="5.09,5.09 0,5.09 0,0 5.09,0 "/>
   </g>
   <g>
    <polygon class="fil1" points="1.49,2.33 0.42,2.33 0.42,4.67 3.18,4.67 3.18,2.76 1.7,2.76 "/>
    <path class="fil1" d="M3.91 0.42l-2.42 0c-0.24,0 -0.43,0.19 -0.43,0.43l0 1.06 0.72 0 0.21 0.42 1.62 0 0 2.34 0.63 0c0.24,0 0.43,-0.19 0.43,-0.43l0 -3.05 -0.76 -0.77zm-0.3 1.07l0 0 0 -0.85 0.85 0.85 -0.85 0z"/>
   </g>
  </g>
 </g>
</svg>
