<?xml version="1.0" encoding="UTF-8"?>
<!DOCTYPE svg PUBLIC "-//W3C//DTD SVG 1.1//EN" "http://www.w3.org/Graphics/SVG/1.1/DTD/svg11.dtd">
<!-- Creator: CorelDRAW 2020 (64-Bit) -->
<svg xmlns="http://www.w3.org/2000/svg" xml:space="preserve" width="50px" height="50px" version="1.1" style="shape-rendering:geometricPrecision; text-rendering:geometricPrecision; image-rendering:optimizeQuality; fill-rule:evenodd; clip-rule:evenodd"
viewBox="0 0 2.45 2.45"
 xmlns:xlink="http://www.w3.org/1999/xlink"
 xmlns:xodm="http://www.corel.com/coreldraw/odm/2003">
 <defs>
  <style type="text/css">
   <![CDATA[
    .fil0 {fill:none;fill-rule:nonzero}
    .fil1 {fill:#383838;fill-rule:nonzero}
   ]]>
  </style>
 </defs>
 <g id="Plan_x0020_1">
  <metadata id="CorelCorpID_0Corel-Layer"/>
  <g id="_2677515518848">
   <g>
    <polygon class="fil0" points="2.45,2.45 0,2.45 0,0 2.45,0 "/>
   </g>
   <path class="fil1" d="M1.84 1.43c-0.13,0 -0.23,0.05 -0.31,0.14l-0.52 -0.26c0.01,-0.03 0.01,-0.06 0.01,-0.09 0,-0.02 0,-0.05 -0.01,-0.08l0.52 -0.26c0.08,0.09 0.18,0.14 0.31,0.14 0.22,0 0.41,-0.18 0.41,-0.41 0,-0.22 -0.19,-0.41 -0.41,-0.41 -0.23,0 -0.41,0.19 -0.41,0.41 0,0.03 0,0.06 0.01,0.09l-0.52 0.26c-0.08,-0.09 -0.19,-0.14 -0.31,-0.14 -0.22,0 -0.41,0.18 -0.41,0.4 0,0.23 0.19,0.41 0.41,0.41 0.12,0 0.23,-0.05 0.31,-0.14l0.52 0.26c-0.01,0.03 -0.01,0.06 -0.01,0.09 0,0.22 0.18,0.41 0.41,0.41 0.22,0 0.41,-0.19 0.41,-0.41 0,-0.23 -0.19,-0.41 -0.41,-0.41zm0 -1.02l0 0c0.11,0 0.2,0.09 0.2,0.2 0,0.12 -0.09,0.21 -0.2,0.21 -0.12,0 -0.21,-0.09 -0.21,-0.21 0,-0.11 0.09,-0.2 0.21,-0.2zm-1.23 1.02l0 0c-0.11,0 -0.2,-0.09 -0.2,-0.21 0,-0.11 0.09,-0.2 0.2,-0.2 0.12,0 0.21,0.09 0.21,0.2 0,0.12 -0.09,0.21 -0.21,0.21zm1.23 0.61l0 0c-0.12,0 -0.21,-0.09 -0.21,-0.2 0,-0.12 0.09,-0.21 0.21,-0.21 0.11,0 0.2,0.09 0.2,0.21 0,0.11 -0.09,0.2 -0.2,0.2z"/>
  </g>
 </g>
</svg>
