<?xml version="1.0" encoding="UTF-8"?>
<!DOCTYPE svg PUBLIC "-//W3C//DTD SVG 1.1//EN" "http://www.w3.org/Graphics/SVG/1.1/DTD/svg11.dtd">
<!-- Creator: CorelDRAW 2020 (64-Bit) -->
<svg xmlns="http://www.w3.org/2000/svg" xml:space="preserve" width="177px" height="177px" version="1.1" style="shape-rendering:geometricPrecision; text-rendering:geometricPrecision; image-rendering:optimizeQuality; fill-rule:evenodd; clip-rule:evenodd"
viewBox="0 0 7.8 7.8"
 xmlns:xlink="http://www.w3.org/1999/xlink"
 xmlns:xodm="http://www.corel.com/coreldraw/odm/2003">
 <defs>
  <style type="text/css">
   <![CDATA[
    .str3 {stroke:#C5C6C6;stroke-width:0.1;stroke-miterlimit:22.9256}
    .str2 {stroke:#2B2A29;stroke-width:0.1;stroke-miterlimit:22.9256}
    .str6 {stroke:#CBCBCB;stroke-width:0.09;stroke-miterlimit:22.9256}
    .str0 {stroke:#A2A2A2;stroke-width:0.09;stroke-miterlimit:22.9256}
    .str5 {stroke:#C5C6C6;stroke-width:0.04;stroke-miterlimit:22.9256}
    .str4 {stroke:#2B2A29;stroke-width:0.04;stroke-miterlimit:22.9256}
    .str1 {stroke:gainsboro;stroke-width:0.04;stroke-miterlimit:22.9256}
    .fil0 {fill:none}
    .fil2 {fill:none;fill-rule:nonzero}
    .fil1 {fill:#FEFEFE}
    .fil4 {fill:#EBECEC}
    .fil3 {fill:gainsboro;fill-rule:nonzero}
   ]]>
  </style>
 </defs>
 <g id="Plan_x0020_1">
  <metadata id="CorelCorpID_0Corel-Layer"/>
  <g id="_2068750973120">
   <rect class="fil0" width="7.8" height="7.8"/>
   <rect class="fil1 str0" x="1.69" y="0.69" width="4.64" height="6.04" rx="0.08" ry="0.08"/>
   <line class="fil0 str1" x1="3.22" y1="1.15" x2="3.22" y2= "6.28" />
   <line class="fil0 str1" x1="4.8" y1="1.15" x2="4.8" y2= "6.28" />
   <line class="fil0 str2" x1="1.9" y1="5.62" x2="3" y2= "5.62" />
   <line class="fil0 str3" x1="1.9" y1="5.79" x2="3" y2= "5.79" />
   <line class="fil0 str3" x1="1.9" y1="5.96" x2="2.67" y2= "5.96" />
   <polygon class="fil2" points="2.96,5.46 1.94,5.46 1.94,4.44 2.96,4.44 "/>
   <path class="fil3" d="M2.83 4.53l-0.76 0c-0.03,0 -0.05,0.02 -0.05,0.04l0 0.77c0,0.02 0.02,0.04 0.05,0.04l0.25 0 0 -0.26 0.26 0 0 0.26 0.25 0c0.03,0 0.04,-0.02 0.04,-0.04l0 -0.77c0,-0.02 -0.01,-0.04 -0.04,-0.04zm-0.59 0.42l0 0 -0.09 0 0 -0.08 0.09 0 0 0.08zm0 -0.17l0 0 -0.09 0 0 -0.08 0.09 0 0 0.08zm0.17 0.17l0 0 -0.09 0 0 -0.08 0.09 0 0 0.08zm0 -0.17l0 0 -0.09 0 0 -0.08 0.09 0 0 0.08zm0.17 0.17l0 0 -0.09 0 0 -0.08 0.09 0 0 0.08zm0 -0.17l0 0 -0.09 0 0 -0.08 0.09 0 0 0.08zm0.17 0.17l0 0 -0.09 0 0 -0.08 0.09 0 0 0.08zm0 -0.17l0 0 -0.09 0 0 -0.08 0.09 0 0 0.08z"/>
   <line class="fil0 str2" x1="4.97" y1="3.82" x2="6.06" y2= "3.82" />
   <line class="fil0 str3" x1="4.97" y1="3.99" x2="6.06" y2= "3.99" />
   <line class="fil0 str3" x1="4.97" y1="4.17" x2="5.73" y2= "4.17" />
   <polygon class="fil2" points="6.03,3.67 5.01,3.67 5.01,2.65 6.03,2.65 "/>
   <path class="fil3" d="M5.81 2.99l-0.08 0 0 -0.11c0,-0.01 -0.01,-0.03 -0.02,-0.03l-0.17 -0.11c-0.02,0 -0.03,0 -0.05,0l-0.17 0.11c-0.01,0 -0.02,0.02 -0.02,0.03l0 0.11 -0.08 0c-0.02,0 -0.04,0.01 -0.04,0.04l0 0.51c0,0.02 0.02,0.04 0.04,0.04l0.59 0c0.03,0 0.05,-0.02 0.05,-0.04l0 -0.51c0,-0.03 -0.02,-0.04 -0.05,-0.04zm-0.42 -0.09l0 0 0.25 0 0 0.09 -0.25 0 0 -0.09zm0.08 0.6l0 0 -0.21 0 0 -0.09 0.21 0 0 0.09zm0 -0.17l0 0 -0.21 0 0 -0.09 0.21 0 0 0.09zm0 -0.17l0 0 -0.21 0 0 -0.09 0.21 0 0 0.09zm0.3 0.34l0 0 -0.21 0 0 -0.09 0.21 0 0 0.09zm0 -0.17l0 0 -0.21 0 0 -0.09 0.21 0 0 0.09zm0 -0.17l0 0 -0.21 0 0 -0.09 0.21 0 0 0.09z"/>
   <line class="fil0 str2" x1="1.89" y1="2.33" x2="2.98" y2= "2.33" />
   <line class="fil0 str3" x1="1.89" y1="2.51" x2="2.98" y2= "2.51" />
   <line class="fil0 str3" x1="1.89" y1="2.68" x2="2.65" y2= "2.68" />
   <polygon class="fil2" points="2.94,2.18 1.92,2.18 1.92,1.16 2.94,1.16 "/>
   <path class="fil3" d="M2.82 1.25l-0.3 0c-0.03,0 -0.04,0.01 -0.04,0.04l0 0.76c0,0.03 0.01,0.05 0.04,0.05l0.04 0 0 -0.13 0.21 0 0 0.13 0.05 0c0.02,0 0.04,-0.02 0.04,-0.05l0 -0.76c0,-0.03 -0.02,-0.04 -0.04,-0.04zm-0.05 0.51l0 0 -0.21 0 0 -0.09 0.21 0 0 0.09zm0 -0.17l0 0 -0.21 0 0 -0.09 0.21 0 0 0.09zm0 -0.17l0 0 -0.21 0 0 -0.09 0.21 0 0 0.09z"/>
   <path class="fil3" d="M2.35 1.54l0 -0.17c0,-0.02 -0.02,-0.04 -0.04,-0.04l-0.05 0 0 -0.08 -0.08 0 0 0.08 -0.09 0c-0.02,0 -0.04,0.02 -0.04,0.04l0 0.17c-0.02,0 -0.04,0.02 -0.04,0.05l0 0.46c0,0.03 0.02,0.05 0.04,0.05l0.04 0 0 -0.13 0.22 0 0 0.13 0.04 0c0.02,0 0.04,-0.02 0.04,-0.05l0 -0.46c0,-0.03 -0.02,-0.05 -0.04,-0.05zm-0.22 -0.12l0 0 0.13 0 0 0.08 -0.13 0 0 -0.08zm0.18 0.42l0 0 -0.22 0 0 -0.08 0.22 0 0 0.08zm0 -0.17l0 0 -0.22 0 0 -0.08 0.22 0 0 0.08z"/>
   <line class="fil0 str4" x1="3.38" y1="1.23" x2="4.53" y2= "1.23" />
   <line class="fil0 str5" x1="3.38" y1="1.34" x2="4.53" y2= "1.34" />
   <line class="fil0 str5" x1="3.38" y1="1.45" x2="4.53" y2= "1.45" />
   <line class="fil0 str5" x1="3.38" y1="1.55" x2="4.39" y2= "1.55" />
   <line class="fil0 str4" x1="3.38" y1="2" x2="4.53" y2= "2" />
   <line class="fil0 str5" x1="3.38" y1="2.11" x2="4.53" y2= "2.11" />
   <line class="fil0 str5" x1="3.38" y1="2.22" x2="4.53" y2= "2.22" />
   <line class="fil0 str5" x1="3.38" y1="2.33" x2="4.39" y2= "2.33" />
   <line class="fil0 str4" x1="3.38" y1="2.78" x2="4.53" y2= "2.78" />
   <line class="fil0 str5" x1="3.38" y1="2.89" x2="4.53" y2= "2.89" />
   <line class="fil0 str5" x1="3.38" y1="3" x2="4.53" y2= "3" />
   <line class="fil0 str5" x1="3.38" y1="3.1" x2="4.39" y2= "3.1" />
   <line class="fil0 str4" x1="3.38" y1="4.33" x2="4.53" y2= "4.33" />
   <line class="fil0 str5" x1="3.38" y1="4.44" x2="4.53" y2= "4.44" />
   <line class="fil0 str5" x1="3.38" y1="4.55" x2="4.53" y2= "4.55" />
   <line class="fil0 str5" x1="3.38" y1="4.65" x2="4.39" y2= "4.65" />
   <line class="fil0 str4" x1="3.38" y1="5.1" x2="4.53" y2= "5.1" />
   <line class="fil0 str5" x1="3.38" y1="5.21" x2="4.53" y2= "5.21" />
   <line class="fil0 str5" x1="3.38" y1="5.32" x2="4.53" y2= "5.32" />
   <line class="fil0 str5" x1="3.38" y1="5.43" x2="4.39" y2= "5.43" />
   <line class="fil0 str4" x1="3.38" y1="5.88" x2="4.53" y2= "5.88" />
   <line class="fil0 str5" x1="3.38" y1="5.99" x2="4.53" y2= "5.99" />
   <line class="fil0 str5" x1="3.38" y1="6.1" x2="4.53" y2= "6.1" />
   <line class="fil0 str5" x1="3.38" y1="6.21" x2="4.39" y2= "6.21" />
   <line class="fil0 str5" x1="4.97" y1="1.45" x2="6.13" y2= "1.45" />
   <line class="fil0 str5" x1="4.97" y1="1.55" x2="5.98" y2= "1.55" />
   <line class="fil0 str4" x1="4.97" y1="2" x2="6.13" y2= "2" />
   <line class="fil0 str5" x1="4.97" y1="2.11" x2="6.13" y2= "2.11" />
   <line class="fil0 str5" x1="4.97" y1="2.22" x2="6.13" y2= "2.22" />
   <line class="fil0 str5" x1="4.97" y1="2.33" x2="5.98" y2= "2.33" />
   <line class="fil0 str4" x1="1.89" y1="3.03" x2="3.05" y2= "3.03" />
   <line class="fil0 str5" x1="1.89" y1="3.13" x2="3.05" y2= "3.13" />
   <line class="fil0 str5" x1="1.89" y1="3.24" x2="3.05" y2= "3.24" />
   <line class="fil0 str5" x1="1.89" y1="3.35" x2="2.9" y2= "3.35" />
   <line class="fil0 str4" x1="1.89" y1="3.8" x2="3.05" y2= "3.8" />
   <line class="fil0 str5" x1="1.89" y1="3.91" x2="3.05" y2= "3.91" />
   <line class="fil0 str5" x1="1.89" y1="4.02" x2="3.05" y2= "4.02" />
   <line class="fil0 str5" x1="1.89" y1="4.13" x2="2.9" y2= "4.13" />
   <line class="fil0 str4" x1="4.97" y1="4.64" x2="6.13" y2= "4.64" />
   <line class="fil0 str5" x1="4.97" y1="4.75" x2="6.13" y2= "4.75" />
   <line class="fil0 str5" x1="4.97" y1="4.86" x2="6.13" y2= "4.86" />
   <line class="fil0 str5" x1="4.97" y1="4.97" x2="5.98" y2= "4.97" />
   <line class="fil0 str4" x1="4.97" y1="5.42" x2="6.13" y2= "5.42" />
   <line class="fil0 str5" x1="4.97" y1="5.53" x2="6.13" y2= "5.53" />
   <line class="fil0 str5" x1="4.97" y1="5.64" x2="6.13" y2= "5.64" />
   <line class="fil0 str5" x1="4.97" y1="5.75" x2="5.98" y2= "5.75" />
   <rect class="fil4" x="3.39" y="3.39" width="1.13" height="0.78"/>
   <path class="fil0 str6" d="M6.47 6.36l0 -5.72c0,-0.05 -0.04,-0.09 -0.08,-0.09l-4.36 0"/>
   <path class="fil0 str6" d="M6.61 6.22l0 -5.73c0,-0.04 -0.03,-0.08 -0.08,-0.08l-4.36 0"/>
  </g>
 </g>
</svg>
