<?xml version="1.0" encoding="UTF-8"?>
<!DOCTYPE svg PUBLIC "-//W3C//DTD SVG 1.1//EN" "http://www.w3.org/Graphics/SVG/1.1/DTD/svg11.dtd">
<!-- Creator: CorelDRAW 2019 (64-Bit) -->
<svg xmlns="http://www.w3.org/2000/svg" xml:space="preserve" width="182px" height="182px" version="1.1" style="shape-rendering:geometricPrecision; text-rendering:geometricPrecision; image-rendering:optimizeQuality; fill-rule:evenodd; clip-rule:evenodd"
viewBox="0 0 19.83 19.83"
 xmlns:xlink="http://www.w3.org/1999/xlink">
 <defs>
  <style type="text/css">
   <![CDATA[
    .fil0 {fill:none;fill-rule:nonzero}
    .fil1 {fill:#FEFEFE;fill-rule:nonzero}
   ]]>
  </style>
 </defs>
 <g id="Plan_x0020_1">
  <metadata id="CorelCorpID_0Corel-Layer"/>
  <g id="_2451850768448">
   <polygon class="fil0" points="19.83,19.83 0,19.83 0,0 19.83,0 "/>
   <g>
    <g>
     <path class="fil1" d="M0.24 10.98l8 0c0.44,-0.92 1.12,-1.72 1.95,-2.29 -0.01,-0.06 -0.03,-0.12 -0.03,-0.19 0,-0.45 0.37,-0.82 0.82,-0.82 0.26,0 0.48,0.12 0.63,0.3 0.58,-0.19 1.2,-0.3 1.85,-0.3 1.23,0 2.37,0.38 3.3,1.04l0 -2.7 -16.52 0 0 4.96zm6.61 -3.3l0 0 0 1.65 -4.13 0 0 -1.65 4.13 0z"/>
     <path class="fil1" d="M7.68 13.46c0,-0.57 0.08,-1.13 0.24,-1.65l-7.68 0 0 3.3c0,0.91 0.74,1.65 1.65,1.65l6.83 0c-0.66,-0.93 -1.04,-2.07 -1.04,-3.3zm-0.83 1.65l0 0 -4.13 0 0 -1.65 4.13 0 0 1.65z"/>
     <path class="fil1" d="M16.76 5.2l0 -3.31c0,-0.91 -0.74,-1.65 -1.65,-1.65l-13.22 0c-0.91,0 -1.65,0.74 -1.65,1.65l0 3.31 16.52 0zm-3.3 -3.31l0 0c0.46,0 0.83,0.37 0.83,0.83 0,0.46 -0.37,0.83 -0.83,0.83 -0.46,0 -0.83,-0.37 -0.83,-0.83 0,-0.46 0.37,-0.83 0.83,-0.83zm-2.48 0l0 0c0.46,0 0.83,0.37 0.83,0.83 0,0.46 -0.37,0.83 -0.83,0.83 -0.45,0 -0.82,-0.37 -0.82,-0.83 0,-0.46 0.37,-0.83 0.82,-0.83zm-8.26 0l0 0 4.13 0 0 1.66 -4.13 0 0 -1.66z"/>
    </g>
    <path class="fil1" d="M19.59 18.42l-2.69 -2.69c0.44,-0.65 0.69,-1.43 0.69,-2.27 0,-2.28 -1.85,-4.13 -4.13,-4.13 -2.28,0 -4.13,1.85 -4.13,4.13 0,2.28 1.85,4.13 4.13,4.13 0.84,0 1.62,-0.25 2.27,-0.69l2.69 2.68 1.17 -1.16zm-8.61 -4.96l0 0c0,-1.37 1.11,-2.48 2.48,-2.48 1.37,0 2.48,1.11 2.48,2.48 0,1.37 -1.11,2.48 -2.48,2.48 -1.37,0 -2.48,-1.11 -2.48,-2.48z"/>
   </g>
  </g>
 </g>
</svg>
