<?xml version="1.0" encoding="UTF-8"?>
<!DOCTYPE svg PUBLIC "-//W3C//DTD SVG 1.1//EN" "http://www.w3.org/Graphics/SVG/1.1/DTD/svg11.dtd">
<!-- Creator: CorelDRAW 2019 (64-Bit) -->
<svg xmlns="http://www.w3.org/2000/svg" xml:space="preserve" width="182px" height="182px" version="1.1" style="shape-rendering:geometricPrecision; text-rendering:geometricPrecision; image-rendering:optimizeQuality; fill-rule:evenodd; clip-rule:evenodd"
viewBox="0 0 4.7 4.7"
 xmlns:xlink="http://www.w3.org/1999/xlink">
 <defs>
  <style type="text/css">
   <![CDATA[
    .fil0 {fill:none;fill-rule:nonzero}
    .fil1 {fill:#898989;fill-rule:nonzero}
   ]]>
  </style>
 </defs>
 <g id="Plan_x0020_1">
  <metadata id="CorelCorpID_0Corel-Layer"/>
  <g id="_2452453650064">
   <polygon class="fil0" points="4.7,4.7 0,4.7 0,0 4.7,0 "/>
   <path class="fil1" d="M4.31 1.37l-0.59 0 0 -0.78c0,-0.11 -0.08,-0.2 -0.19,-0.2l-3.14 0c-0.11,0 -0.19,0.09 -0.19,0.2l0 3.52c0,0.11 0.08,0.2 0.19,0.2l3.53 0c0.05,0 0.1,-0.02 0.14,-0.06l0.39 -0.39c0.04,-0.04 0.06,-0.09 0.06,-0.14l0 -2.15c0,-0.11 -0.09,-0.2 -0.2,-0.2zm-3.73 -0.45l0.17 0 0.22 0.32 0 -0.32 0.17 0 0 0.59 -0.17 0 -0.22 -0.32 0 0.32 -0.17 0 0 -0.59zm0.68 0l0.49 0 0 0.13 -0.31 0 0 0.09 0.28 0 0 0.12 -0.28 0 0 0.11 0.32 0 0 0.14 -0.5 0 0 -0.59zm0.53 0l0.17 0 0.07 0.33 0.09 -0.33 0.17 0 0.09 0.33 0.06 -0.33 0.17 0 -0.13 0.59 -0.17 0 -0.11 -0.37 -0.1 0.37 -0.18 0 -0.13 -0.59zm0.85 0.39l0.17 -0.01c0.01,0.03 0.01,0.05 0.03,0.07 0.01,0.02 0.04,0.03 0.08,0.03 0.02,0 0.04,0 0.05,-0.02 0.02,-0.01 0.03,-0.02 0.03,-0.04 0,-0.01 -0.01,-0.03 -0.02,-0.04 -0.02,-0.01 -0.05,-0.02 -0.1,-0.03 -0.08,-0.02 -0.13,-0.04 -0.17,-0.07 -0.03,-0.03 -0.05,-0.07 -0.05,-0.12 0,-0.03 0.01,-0.06 0.03,-0.08 0.02,-0.03 0.04,-0.05 0.08,-0.07 0.03,-0.01 0.08,-0.02 0.14,-0.02 0.08,0 0.13,0.02 0.17,0.04 0.04,0.03 0.07,0.08 0.07,0.14l-0.17 0.01c0,-0.03 -0.01,-0.05 -0.03,-0.06 -0.01,-0.01 -0.03,-0.02 -0.06,-0.02 -0.02,0 -0.03,0 -0.04,0.01 -0.01,0.01 -0.02,0.02 -0.02,0.04 0,0.01 0,0.01 0.01,0.02 0.01,0.01 0.03,0.02 0.06,0.02 0.08,0.02 0.14,0.04 0.17,0.05 0.04,0.02 0.06,0.04 0.08,0.07 0.01,0.03 0.02,0.05 0.02,0.09 0,0.03 -0.01,0.07 -0.03,0.1 -0.02,0.03 -0.05,0.06 -0.09,0.07 -0.03,0.02 -0.08,0.03 -0.14,0.03 -0.1,0 -0.17,-0.02 -0.2,-0.06 -0.04,-0.04 -0.06,-0.09 -0.07,-0.15zm-0.88 2.41l0 0 -1.17 0 0 -0.39 1.17 0 0 0.39zm0 -0.58l0 0 -1.17 0 0 -0.4 1.17 0 0 0.4zm0 -0.59l0 0 -1.17 0 0 -0.39 1.17 0 0 0.39zm1.37 1.17l0 0 -1.17 0 0 -0.39 1.17 0 0 0.39zm0 -0.58l0 0 -1.17 0 0 -0.4 1.17 0 0 0.4zm0 -0.59l0 0 -1.17 0 0 -0.39 1.17 0 0 0.39zm0.98 1.09l0 0 -0.08 0.08 -0.31 0 0 -1.96 0.39 0 0 1.88z"/>
  </g>
 </g>
</svg>
