<?xml version="1.0" encoding="UTF-8"?>
<!DOCTYPE svg PUBLIC "-//W3C//DTD SVG 1.1//EN" "http://www.w3.org/Graphics/SVG/1.1/DTD/svg11.dtd">
<!-- Creator: CorelDRAW 2019 (64-Bit) -->
<svg xmlns="http://www.w3.org/2000/svg" xml:space="preserve" width="182px" height="182px" version="1.1" style="shape-rendering:geometricPrecision; text-rendering:geometricPrecision; image-rendering:optimizeQuality; fill-rule:evenodd; clip-rule:evenodd"
viewBox="0 0 5.19 5.19"
 xmlns:xlink="http://www.w3.org/1999/xlink">
 <defs>
  <style type="text/css">
   <![CDATA[
    .fil0 {fill:none;fill-rule:nonzero}
    .fil1 {fill:#898989;fill-rule:nonzero}
   ]]>
  </style>
 </defs>
 <g id="Plan_x0020_1">
  <metadata id="CorelCorpID_0Corel-Layer"/>
  <g id="_2451825569584">
   <g>
    <polygon class="fil0" points="5.19,5.19 0,5.19 0,0 5.19,0 "/>
   </g>
   <g>
    <polygon class="fil1" points="1.51,2.38 0.43,2.38 0.43,4.75 3.24,4.75 3.24,2.81 1.73,2.81 "/>
    <path class="fil1" d="M3.98 0.43l-2.47 0c-0.24,0 -0.43,0.2 -0.43,0.43l0 1.09 0.73 0 0.22 0.43 1.64 0 0 2.37 0.65 0c0.24,0 0.43,-0.19 0.43,-0.43l0 -3.11 -0.77 -0.78zm-0.31 1.08l0 0 0 -0.86 0.87 0.86 -0.87 0z"/>
   </g>
  </g>
 </g>
</svg>
