<?xml version="1.0" encoding="UTF-8"?>
<!DOCTYPE svg PUBLIC "-//W3C//DTD SVG 1.1//EN" "http://www.w3.org/Graphics/SVG/1.1/DTD/svg11.dtd">
<!-- Creator: CorelDRAW 2019 (64-Bit) -->
<svg xmlns="http://www.w3.org/2000/svg" xml:space="preserve" width="182px" height="182px" version="1.1" style="shape-rendering:geometricPrecision; text-rendering:geometricPrecision; image-rendering:optimizeQuality; fill-rule:evenodd; clip-rule:evenodd"
viewBox="0 0 7.97 7.97"
 xmlns:xlink="http://www.w3.org/1999/xlink">
 <defs>
  <style type="text/css">
   <![CDATA[
    .fil0 {fill:none;fill-rule:nonzero}
    .fil1 {fill:#898989;fill-rule:nonzero}
   ]]>
  </style>
 </defs>
 <g id="Plan_x0020_1">
  <metadata id="CorelCorpID_0Corel-Layer"/>
  <g id="_2451800971024">
   <polygon class="fil0" points="7.97,7.97 0,7.97 0,0 7.97,0 "/>
   <g>
    <g>
     <path class="fil1" d="M0.1 4.42l3.21 0c0.18,-0.38 0.45,-0.69 0.79,-0.92 -0.01,-0.03 -0.02,-0.05 -0.02,-0.08 0,-0.18 0.15,-0.33 0.34,-0.33 0.1,0 0.19,0.05 0.25,0.12 0.23,-0.08 0.48,-0.12 0.74,-0.12 0.5,0 0.96,0.15 1.33,0.42l0 -1.09 -6.64 0 0 2zm2.66 -1.33l0 0 0 0.66 -1.67 0 0 -0.66 1.67 0z"/>
     <path class="fil1" d="M3.09 5.41c0,-0.23 0.03,-0.45 0.1,-0.66l-3.09 0 0 1.33c0,0.36 0.3,0.66 0.66,0.66l2.75 0c-0.27,-0.37 -0.42,-0.83 -0.42,-1.33zm-0.33 0.67l0 0 -1.67 0 0 -0.67 1.67 0 0 0.67z"/>
     <path class="fil1" d="M6.74 2.09l0 -1.33c0,-0.36 -0.29,-0.66 -0.66,-0.66l-5.32 0c-0.36,0 -0.66,0.3 -0.66,0.66l0 1.33 6.64 0zm-1.33 -1.33l0 0c0.19,0 0.34,0.15 0.34,0.33 0,0.19 -0.15,0.34 -0.34,0.34 -0.18,0 -0.33,-0.15 -0.33,-0.34 0,-0.18 0.15,-0.33 0.33,-0.33zm-0.99 0l0 0c0.18,0 0.33,0.15 0.33,0.33 0,0.19 -0.15,0.34 -0.33,0.34 -0.19,0 -0.34,-0.15 -0.34,-0.34 0,-0.18 0.15,-0.33 0.34,-0.33zm-3.33 0l0 0 1.67 0 0 0.67 -1.67 0 0 -0.67z"/>
    </g>
    <path class="fil1" d="M7.88 7.41l-1.08 -1.08c0.17,-0.26 0.28,-0.58 0.28,-0.92 0,-0.91 -0.75,-1.66 -1.67,-1.66 -0.91,0 -1.66,0.75 -1.66,1.66 0,0.92 0.75,1.67 1.66,1.67 0.34,0 0.66,-0.11 0.92,-0.28l1.08 1.08 0.47 -0.47zm-3.46 -2l0 0c0,-0.55 0.44,-0.99 0.99,-0.99 0.55,0 1,0.44 1,0.99 0,0.55 -0.45,1 -1,1 -0.55,0 -0.99,-0.45 -0.99,-1z"/>
   </g>
  </g>
 </g>
</svg>
