<?xml version="1.0" encoding="UTF-8"?>
<!DOCTYPE svg PUBLIC "-//W3C//DTD SVG 1.1//EN" "http://www.w3.org/Graphics/SVG/1.1/DTD/svg11.dtd">
<!-- Creator: CorelDRAW 2020 (64-Bit) -->
<svg xmlns="http://www.w3.org/2000/svg" xml:space="preserve" width="177px" height="177px" version="1.1" style="shape-rendering:geometricPrecision; text-rendering:geometricPrecision; image-rendering:optimizeQuality; fill-rule:evenodd; clip-rule:evenodd"
viewBox="0 0 10.03 10.03"
 xmlns:xlink="http://www.w3.org/1999/xlink"
 xmlns:xodm="http://www.corel.com/coreldraw/odm/2003">
 <defs>
  <style type="text/css">
   <![CDATA[
    .str4 {stroke:#C5C6C6;stroke-width:0.13;stroke-miterlimit:22.9256}
    .str3 {stroke:#2B2A29;stroke-width:0.13;stroke-miterlimit:22.9256}
    .str0 {stroke:#A2A2A2;stroke-width:0.12;stroke-miterlimit:22.9256}
    .str2 {stroke:#C5C6C6;stroke-width:0.05;stroke-miterlimit:22.9256}
    .str1 {stroke:#2B2A29;stroke-width:0.05;stroke-miterlimit:22.9256}
    .fil0 {fill:none}
    .fil1 {fill:#FEFEFE}
    .fil2 {fill:#EBECEC}
    .fil3 {fill:#2B2A29;fill-rule:nonzero}
   ]]>
  </style>
 </defs>
 <g id="Plan_x0020_1">
  <metadata id="CorelCorpID_0Corel-Layer"/>
  <g id="_2068735563904">
   <rect class="fil0" width="10.03" height="10.03"/>
   <rect class="fil1 str0" x="1.72" y="0.73" width="6.58" height="8.57" rx="0.12" ry="0.11"/>
   <line class="fil0 str1" x1="2.97" y1="3.9" x2="4.37" y2= "3.9" />
   <line class="fil0 str2" x1="2.97" y1="4" x2="4.37" y2= "4" />
   <line class="fil0 str2" x1="2.97" y1="4.11" x2="4.37" y2= "4.11" />
   <line class="fil0 str2" x1="2.97" y1="4.22" x2="4.19" y2= "4.22" />
   <line class="fil0 str1" x1="4.96" y1="5.39" x2="6.35" y2= "5.39" />
   <line class="fil0 str2" x1="4.96" y1="5.5" x2="6.35" y2= "5.5" />
   <line class="fil0 str2" x1="4.96" y1="5.6" x2="6.35" y2= "5.6" />
   <line class="fil0 str2" x1="4.96" y1="5.71" x2="6.17" y2= "5.71" />
   <rect class="fil2" x="4.96" y="3.36" width="1.34" height="1.39"/>
   <rect class="fil2" x="2.04" y="5.23" width="2.41" height="1.39"/>
   <path class="fil2" d="M8.03 0.88l-6.04 0c-0.06,0 -0.12,0.05 -0.12,0.12l0 2.07 6.28 0 0 -2.07c0,-0.07 -0.05,-0.12 -0.12,-0.12z"/>
   <line class="fil0 str3" x1="2.97" y1="1.83" x2="4.7" y2= "1.83" />
   <polygon class="fil3" points="2.97,1.06 3.17,1.06 3.17,1.16 2.97,1.16 "/>
   <line class="fil0 str4" x1="2.97" y1="2.08" x2="4.7" y2= "2.08" />
   <line class="fil0 str4" x1="2.97" y1="2.33" x2="4.18" y2= "2.33" />
   <line class="fil0 str1" x1="2.97" y1="7.51" x2="4.37" y2= "7.51" />
   <line class="fil0 str2" x1="2.97" y1="7.61" x2="4.37" y2= "7.61" />
   <line class="fil0 str2" x1="2.97" y1="7.72" x2="4.37" y2= "7.72" />
   <line class="fil0 str2" x1="2.97" y1="7.83" x2="4.19" y2= "7.83" />
   <line class="fil0 str1" x1="4.96" y1="7.5" x2="6.35" y2= "7.5" />
   <line class="fil0 str2" x1="4.96" y1="7.6" x2="6.35" y2= "7.6" />
   <line class="fil0 str2" x1="4.96" y1="7.71" x2="6.35" y2= "7.71" />
   <line class="fil0 str2" x1="4.96" y1="7.82" x2="6.17" y2= "7.82" />
   <line class="fil0 str1" x1="2.97" y1="8.16" x2="4.37" y2= "8.16" />
   <line class="fil0 str2" x1="2.97" y1="8.26" x2="4.37" y2= "8.26" />
   <line class="fil0 str2" x1="2.97" y1="8.37" x2="4.37" y2= "8.37" />
   <line class="fil0 str2" x1="2.97" y1="8.48" x2="4.19" y2= "8.48" />
   <line class="fil0 str2" x1="5.97" y1="1.11" x2="6.29" y2= "1.11" />
   <line class="fil0 str2" x1="5.52" y1="1.11" x2="5.83" y2= "1.11" />
   <line class="fil0 str2" x1="5.01" y1="1.11" x2="5.38" y2= "1.11" />
   <line class="fil0 str2" x1="4.56" y1="1.11" x2="4.87" y2= "1.11" />
   <line class="fil0 str1" x1="4.96" y1="5.99" x2="6.35" y2= "5.99" />
   <line class="fil0 str2" x1="4.96" y1="6.1" x2="6.35" y2= "6.1" />
   <line class="fil0 str2" x1="4.96" y1="6.21" x2="6.35" y2= "6.21" />
   <line class="fil0 str2" x1="4.96" y1="6.31" x2="6.17" y2= "6.31" />
  </g>
 </g>
</svg>
