<?xml version="1.0" encoding="UTF-8"?>
<!DOCTYPE svg PUBLIC "-//W3C//DTD SVG 1.1//EN" "http://www.w3.org/Graphics/SVG/1.1/DTD/svg11.dtd">
<!-- Creator: CorelDRAW 2020 (64-Bit) -->
<svg xmlns="http://www.w3.org/2000/svg" xml:space="preserve" width="59px" height="59px" version="1.1" style="shape-rendering:geometricPrecision; text-rendering:geometricPrecision; image-rendering:optimizeQuality; fill-rule:evenodd; clip-rule:evenodd"
viewBox="0 0 0.59 0.59"
 xmlns:xlink="http://www.w3.org/1999/xlink"
 xmlns:xodm="http://www.corel.com/coreldraw/odm/2003">
 <defs>
  <style type="text/css">
   <![CDATA[
    .fil0 {fill:#C5C6C6}
    .fil1 {fill:#FEFEFE;fill-rule:nonzero}
   ]]>
  </style>
 </defs>
 <g id="Plan_x0020_1">
  <metadata id="CorelCorpID_0Corel-Layer"/>
  <rect class="fil0" width="0.59" height="0.59" rx="0.06" ry="0.06"/>
  <path class="fil1" d="M0.27 0.21c0.01,0 0.03,-0.01 0.03,-0.03 0,-0.01 -0.02,-0.02 -0.03,-0.02 -0.02,0 -0.03,0.01 -0.03,0.02 0,0.02 0.01,0.03 0.03,0.03zm0.1 0.02c0.03,0 0.06,-0.02 0.06,-0.05 0,-0.04 -0.03,-0.06 -0.06,-0.06 -0.03,0 -0.06,0.02 -0.06,0.06 0,0.03 0.03,0.05 0.06,0.05zm0 -0.07l0 0c0.01,0 0.02,0.01 0.02,0.02 0,0.01 -0.01,0.01 -0.02,0.01 -0.01,0 -0.02,0 -0.02,-0.01 0,-0.01 0.01,-0.02 0.02,-0.02zm0.09 0.13l-0.26 0 0 -0.06c0,0 0,-0.01 0,-0.01l-0.06 -0.04c-0.01,-0.01 -0.01,-0.01 -0.02,0 -0.01,0 -0.01,0.01 -0.01,0.01l0 0.26c0,0.01 0.01,0.02 0.02,0.02l0.33 0c0.01,0 0.02,-0.01 0.02,-0.02l0 -0.14c0,-0.01 -0.01,-0.02 -0.02,-0.02zm-0.02 0.15l0 0 -0.29 0 0 -0.21 0.02 0.01 0 0.07c0,0.01 0,0.01 0.01,0.01l0.26 0 0 0.12zm-0.26 -0.04l0.06 0 0 -0.04 -0.06 0 0 0.04zm0.15 -0.04l-0.05 0 0 0.04 0.05 0 0 -0.04zm0.1 0l-0.06 0 0 0.04 0.06 0 0 -0.04z"/>
 </g>
</svg>
