<?xml version="1.0" encoding="UTF-8"?>
<!DOCTYPE svg PUBLIC "-//W3C//DTD SVG 1.1//EN" "http://www.w3.org/Graphics/SVG/1.1/DTD/svg11.dtd">
<!-- Creator: CorelDRAW 2020 (64-Bit) -->
<svg xmlns="http://www.w3.org/2000/svg" xml:space="preserve" width="59px" height="59px" version="1.1" style="shape-rendering:geometricPrecision; text-rendering:geometricPrecision; image-rendering:optimizeQuality; fill-rule:evenodd; clip-rule:evenodd"
viewBox="0 0 0.59 0.59"
 xmlns:xlink="http://www.w3.org/1999/xlink"
 xmlns:xodm="http://www.corel.com/coreldraw/odm/2003">
 <defs>
  <style type="text/css">
   <![CDATA[
    .fil0 {fill:#C5C6C6}
    .fil1 {fill:#FEFEFE;fill-rule:nonzero}
   ]]>
  </style>
 </defs>
 <g id="Plan_x0020_1">
  <metadata id="CorelCorpID_0Corel-Layer"/>
  <rect class="fil0" width="0.59" height="0.59" rx="0.06" ry="0.06"/>
  <path class="fil1" d="M0.44 0.42c0,0 0,-0.01 0,-0.01l0 -0.06 -0.03 0 0 0.05 -0.08 0.05 0 -0.23c0,0 0,-0.01 0,-0.01l-0.1 -0.08c0,0 0,0 -0.01,0 0,0 -0.01,0 -0.01,0l-0.11 0.08c-0.01,0 -0.01,0.01 -0.01,0.01l0 0.26c0,0.01 0.01,0.02 0.01,0.02 0,0 0.01,0 0.01,0 0,0 0.01,0 0.01,0l0.1 -0.07 0.08 0.07c0.01,0 0.01,0 0.01,0 0.01,0 0.01,0 0.02,0l0.11 -0.08zm-0.31 -0.19l0 0 0.07 -0.05 0 0.22 -0.07 0.05 0 -0.22zm0.17 0.21l0 0 -0.06 -0.04 0 -0.21 0.06 0.04 0 0.21zm0.13 -0.11l0.01 -0.02c0,-0.01 0.06,-0.08 0.06,-0.14 0,-0.04 -0.03,-0.08 -0.07,-0.08 -0.04,0 -0.08,0.04 -0.08,0.08 0,0.06 0.06,0.13 0.06,0.14l0.02 0.02zm0 -0.2l0 0c0.02,0 0.03,0.02 0.03,0.04 0,0.03 -0.02,0.07 -0.03,0.09 -0.02,-0.02 -0.04,-0.06 -0.04,-0.09 0,-0.02 0.02,-0.04 0.04,-0.04zm0.01 0.04c0,-0.01 0,-0.02 -0.01,-0.02 -0.01,0 -0.02,0.01 -0.02,0.02 0,0.01 0.01,0.01 0.02,0.01 0.01,0 0.01,0 0.01,-0.01z"/>
 </g>
</svg>
