<?xml version="1.0" encoding="UTF-8"?>
<!DOCTYPE svg PUBLIC "-//W3C//DTD SVG 1.1//EN" "http://www.w3.org/Graphics/SVG/1.1/DTD/svg11.dtd">
<!-- Creator: CorelDRAW 2019 (64-Bit) -->
<svg xmlns="http://www.w3.org/2000/svg" xml:space="preserve" width="300px" height="300px" version="1.1" style="shape-rendering:geometricPrecision; text-rendering:geometricPrecision; image-rendering:optimizeQuality; fill-rule:evenodd; clip-rule:evenodd"
viewBox="0 0 279.29 279.29"
 xmlns:xlink="http://www.w3.org/1999/xlink">
 <defs>
  <style type="text/css">
   <![CDATA[
    .fil1 {fill:none}
    .fil0 {fill:#282829}
   ]]>
  </style>
 </defs>
 <g id="Plan_x0020_1">
  <metadata id="CorelCorpID_0Corel-Layer"/>
  <path class="fil0" d="M96.87 0l0.13 106.59 -85.53 0 0 149.88 170.81 0 0 -256.47 -85.41 0zm21.42 21.35l42.77 0 0 212.85 -128.23 0 0 -106.39 64.18 0 0 43.12 -5.55 0c-8.76,0 -15.87,7.11 -15.87,15.87l0 4.9 42.71 0 0 -170.35 -0.01 0zm85.47 -21.35l0 63.76 64.05 0 0 -63.76 -64.05 0zm42.7 42.83l-21.48 0 0 -21.48 21.48 0 0 21.48z"/>
  <path class="fil0" d="M207.49 256.47c-1.49,0 -2.88,-0.28 -4.19,-0.85 -1.31,-0.55 -2.45,-1.32 -3.41,-2.3 -0.97,-0.97 -1.74,-2.11 -2.3,-3.4 -0.56,-1.3 -0.84,-2.7 -0.84,-4.19 0,-1.47 0.28,-2.85 0.84,-4.15 0.57,-1.29 1.34,-2.43 2.3,-3.39 0.98,-0.96 2.11,-1.72 3.41,-2.29 1.29,-0.56 2.69,-0.85 4.19,-0.85 1.47,0 2.85,0.28 4.15,0.85 1.31,0.57 2.44,1.33 3.4,2.29 0.98,0.96 1.73,2.1 2.29,3.39 0.56,1.3 0.84,2.69 0.84,4.15 0,1.49 -0.28,2.89 -0.84,4.19 -0.56,1.29 -1.31,2.43 -2.29,3.4 -0.97,0.98 -2.11,1.75 -3.4,2.3 -1.3,0.56 -2.69,0.85 -4.15,0.85zm0 -1.42c1.3,0 2.5,-0.24 3.6,-0.72 1.11,-0.48 2.05,-1.14 2.84,-1.98 0.79,-0.83 1.42,-1.83 1.86,-2.96 0.46,-1.12 0.68,-2.35 0.68,-3.67 0,-1.29 -0.22,-2.51 -0.68,-3.65 -0.44,-1.13 -1.07,-2.11 -1.86,-2.94 -0.79,-0.82 -1.74,-1.48 -2.84,-1.96 -1.1,-0.48 -2.3,-0.73 -3.6,-0.73 -1.3,0 -2.5,0.24 -3.62,0.73 -1.12,0.48 -2.07,1.14 -2.87,1.96 -0.8,0.83 -1.43,1.81 -1.88,2.94 -0.45,1.13 -0.68,2.35 -0.68,3.65 0,1.32 0.23,2.55 0.68,3.67 0.45,1.13 1.09,2.13 1.88,2.96 0.8,0.84 1.75,1.5 2.87,1.98 1.1,0.48 2.31,0.72 3.62,0.72zm5.34 -3.33l-1.75 0 -3.43 -5.52 -2.69 0 0 5.52 -1.47 0 0 -11.96 5.24 0c1.58,0 2.69,0.28 3.31,0.85 0.63,0.57 0.94,1.34 0.94,2.32 0,0.58 -0.09,1.08 -0.28,1.5 -0.19,0.41 -0.46,0.74 -0.79,1 -0.35,0.26 -0.74,0.45 -1.21,0.57 -0.47,0.12 -0.96,0.19 -1.48,0.21l3.61 5.51zm-5.62 -6.68c0.41,0 0.86,0 1.35,0 0.49,0 0.95,-0.05 1.37,-0.17 0.43,-0.11 0.77,-0.32 1.05,-0.62 0.28,-0.3 0.41,-0.76 0.41,-1.36 0,-0.47 -0.09,-0.84 -0.26,-1.12 -0.18,-0.28 -0.42,-0.48 -0.7,-0.63 -0.28,-0.14 -0.6,-0.23 -0.96,-0.28 -0.35,-0.04 -0.71,-0.06 -1.07,-0.06l-3.43 0 0 4.24 2.24 0z"/>
  <rect class="fil1" width="279.29" height="279.29"/>
 </g>
</svg>
