<?xml version="1.0" encoding="UTF-8"?>
<!DOCTYPE svg PUBLIC "-//W3C//DTD SVG 1.1//EN" "http://www.w3.org/Graphics/SVG/1.1/DTD/svg11.dtd">
<!-- Creator: CorelDRAW 2019 (64-Bit) -->
<svg xmlns="http://www.w3.org/2000/svg" xml:space="preserve" width="3420px" height="1299px" version="1.1" style="shape-rendering:geometricPrecision; text-rendering:geometricPrecision; image-rendering:optimizeQuality; fill-rule:evenodd; clip-rule:evenodd"
viewBox="0 0 7026.14 2669.09"
 xmlns:xlink="http://www.w3.org/1999/xlink">
 <defs>
  <style type="text/css">
   <![CDATA[
    .fil0 {fill:#FEFEFE}
    .fil1 {fill:#FEFEFE;fill-rule:nonzero}
   ]]>
  </style>
 </defs>
 <g id="Plan_x0020_1">
  <metadata id="CorelCorpID_0Corel-Layer"/>
  <path class="fil0" d="M824.69 1785.77l-268.48 0 0 182.57 424.72 0 0 -777.22 0 -29.16 29.14 0 233.33 0 29.14 0 0 29.16 0 923.05 0 116.63 0 29.17 -29.14 0 -116.7 0 -716.29 0 -116.63 0 -29.18 0 0 -29.17 0 -116.63 0 -474.21 0 -116.65 0 -29.12 29.18 0 116.63 0 414.28 0 29.16 0 0 29.12 0 233.32 0 29.14 -29.16 0zm563.68 -623.81l234.14 0 29.13 0 0 29.16 0 199.65 0 29.19 -29.13 0 -234.14 0 -29.16 0 0 -29.19 0 -199.65 0 -29.16 29.16 0zm-1388.35 -409.1l1916.23 0 0 1916.23 -1916.23 0 0 -1916.23z"/>
  <path class="fil0" d="M4872.89 1637.89c0,10.41 -0.73,18.62 -2.18,24.63 -1.29,6.02 -3.46,10.59 -6.38,13.32 -2.73,2.92 -7.11,5.64 -12.75,8.02 -5.68,2.54 -12.24,4.58 -19.54,6.2 -7.28,1.64 -14.94,2.91 -23.15,4.02 -8.2,1.08 -16.22,1.64 -24.44,1.64 -24.98,0 -46.31,-3.3 -63.99,-9.85 -17.69,-6.58 -32.29,-16.59 -43.76,-29.91 -11.3,-13.32 -19.52,-30.26 -24.82,-50.69 -5.08,-20.43 -7.64,-44.51 -7.64,-72.22l0 -280.46 -67.65 0c-5.28,0 -9.67,-2.9 -12.95,-8.56 -3.1,-5.64 -4.74,-14.94 -4.74,-27.9 0,-6.74 0.36,-12.39 1.26,-16.94 0.91,-4.75 2.21,-8.58 3.48,-11.68 1.45,-2.9 3.45,-5.11 5.65,-6.39 2.38,-1.27 4.91,-1.83 7.85,-1.83l67.1 0 0 -114.14c0,-2.55 0.55,-4.92 1.81,-6.94 1.28,-2.17 3.66,-4 7.11,-5.64 3.3,-1.64 7.85,-2.74 13.69,-3.46 5.66,-0.73 12.76,-1.09 21.53,-1.09 8.92,0 16.2,0.36 21.86,1.09 5.83,0.72 10.22,1.82 13.49,3.46 3.28,1.64 5.48,3.47 6.94,5.64 1.45,2.02 2.19,4.39 2.19,6.94l0 114.14 122.53 0c2.92,0 5.28,0.56 7.47,1.83 2.02,1.28 4.02,3.49 5.47,6.39 1.64,3.1 2.73,6.93 3.47,11.68 0.74,4.55 1.09,10.2 1.09,16.94 0,12.96 -1.62,22.26 -4.73,27.9 -3.28,5.66 -7.49,8.56 -12.77,8.56l-122.53 0 0 267.52c0,33.01 4.92,57.98 14.56,74.77 9.69,16.96 27.2,25.35 52.36,25.35 8.02,0 15.3,-0.75 21.71,-2.38 6.38,-1.64 12.02,-3.28 16.94,-5.11 4.94,-1.81 9.11,-3.47 12.77,-5.11 3.45,-1.64 6.74,-2.36 9.47,-2.36 1.83,0 3.47,0.36 5.11,1.27 1.47,0.92 2.74,2.56 3.64,5.11 0.93,2.56 1.64,5.83 2.38,10.22 0.74,4.19 1.09,9.66 1.09,16.02zm-400.61 35.76c0,2.92 -0.75,5.28 -2.19,7.3 -1.47,1.81 -3.64,3.66 -6.94,5.09 -3.28,1.29 -7.64,2.4 -13.48,3.1 -5.65,0.73 -12.76,1.11 -21.34,1.11 -9.11,0 -16.41,-0.38 -22.05,-1.11 -5.85,-0.7 -10.22,-1.81 -13.51,-3.1 -3.28,-1.43 -5.47,-3.28 -6.9,-5.09 -1.49,-2.02 -2.21,-4.38 -2.21,-7.3l0 -281.72c0,-27.35 -2.18,-49.61 -6.39,-66.21 -4.19,-16.77 -10.38,-31.18 -18.6,-43.38 -8.19,-12.04 -18.6,-21.34 -31.54,-27.73 -12.96,-6.38 -27.9,-9.66 -44.86,-9.66 -22.07,0 -43.93,7.85 -65.83,23.52 -22.05,15.68 -45.04,38.67 -69.11,68.93l0 336.25c0,2.92 -0.72,5.28 -2.17,7.3 -1.47,1.81 -3.66,3.66 -6.94,5.09 -3.27,1.29 -7.66,2.4 -13.49,3.1 -5.66,0.73 -12.94,1.11 -21.88,1.11 -8.77,0 -15.86,-0.38 -21.54,-1.11 -5.81,-0.7 -10.38,-1.81 -13.66,-3.1 -3.47,-1.43 -5.83,-3.28 -7.13,-5.09 -1.26,-2.02 -1.81,-4.38 -1.81,-7.3l0 -481.04c0,-2.91 0.55,-5.28 1.64,-7.29 1.11,-1.82 3.11,-3.64 6.38,-5.28 3.28,-1.64 7.3,-2.75 12.39,-3.3 4.94,-0.54 11.68,-0.73 19.9,-0.73 7.83,0 14.39,0.19 19.5,0.73 5.29,0.55 9.3,1.66 12.23,3.3 2.75,1.64 4.94,3.46 6.19,5.28 1.09,2.01 1.81,4.38 1.81,7.29l0 63.64c27.01,-30.46 53.79,-52.68 80.8,-66.72 26.79,-14.05 53.78,-21.18 81.15,-21.18 31.9,0 58.88,5.47 80.78,16.26 21.88,10.92 39.57,25.52 53.06,43.57 13.48,18.22 23.14,39.56 28.99,63.99 5.83,24.44 8.75,53.81 8.75,87.9l0 293.58zm-663.03 -219.74l-75.3 0c-24.07,0 -45.03,2.01 -62.91,6.21 -17.68,4.02 -32.45,10.21 -44.31,18.24 -11.68,8.02 -20.24,17.49 -25.9,28.79 -5.47,11.33 -8.19,24.27 -8.19,38.84 0,24.99 7.83,44.87 23.71,59.64 15.85,14.77 37.9,22.24 66.55,22.24 22.96,0 44.48,-5.83 64.17,-17.69 19.69,-11.66 40.5,-29.71 62.18,-53.97l0 -102.3zm87.54 220.29c0,4.19 -1.47,7.47 -4.19,9.66 -2.92,2.18 -6.75,3.64 -11.86,4.73 -4.91,1.1 -12.23,1.66 -21.9,1.66 -9.1,0 -16.58,-0.56 -22.05,-1.66 -5.46,-1.09 -9.47,-2.55 -12.04,-4.73 -2.56,-2.19 -3.81,-5.28 -3.81,-9.66l0 -48.14c-20.98,22.43 -44.33,39.93 -70.21,52.33 -25.9,12.22 -53.27,18.41 -82.05,18.41 -25.37,0 -48.31,-3.27 -68.76,-9.85 -20.41,-6.56 -37.91,-16.22 -52.32,-28.63 -14.41,-12.38 -25.71,-27.88 -33.75,-45.94 -8.02,-18.24 -12.03,-38.84 -12.03,-62 0,-27.16 5.47,-50.7 16.6,-70.58 10.94,-20.04 26.78,-36.62 47.57,-49.76 20.62,-13.13 45.97,-23.17 75.88,-29.73 29.9,-6.57 63.63,-9.85 101,-9.85l66.38 0 0 -37.57c0,-18.4 -2,-34.82 -5.83,-49.22 -4.02,-14.24 -10.21,-26.07 -18.96,-35.56 -8.77,-9.5 -20.05,-16.6 -33.92,-21.33 -13.86,-4.92 -30.99,-7.3 -51.23,-7.3 -21.71,0 -41.23,2.55 -58.36,7.85 -17.3,5.26 -32.46,10.94 -45.4,17.31 -12.94,6.38 -23.88,12.02 -32.64,17.34 -8.58,5.28 -15.14,7.81 -19.33,7.81 -2.91,0 -5.47,-0.72 -7.47,-2.17 -2.19,-1.28 -4.02,-3.47 -5.66,-6.38 -1.64,-2.73 -2.72,-6.39 -3.47,-10.75 -0.72,-4.58 -1.08,-9.31 -1.08,-14.79 0,-8.75 0.53,-15.86 1.83,-20.97 1.27,-5.1 4.36,-10.02 9.1,-14.58 4.75,-4.55 13.14,-10.02 24.8,-16.41 11.68,-6.19 25.37,-12.04 40.67,-17.34 15.13,-5.09 31.9,-9.47 50.14,-12.94 18.05,-3.47 36.48,-5.11 54.87,-5.11 34.48,0 63.83,3.83 88.07,11.69 24.26,7.83 43.78,19.51 58.74,34.64 14.94,15.13 25.73,33.93 32.45,56.34 6.73,22.43 10.22,48.68 10.22,78.6l0 324.58zm-514.77 -643.7c0,20.82 -4.02,34.84 -11.87,42.31 -7.81,7.49 -22.22,11.32 -43.38,11.32 -20.79,0 -35.01,-3.65 -42.67,-10.96 -7.66,-7.28 -11.47,-21.13 -11.47,-41.56 0,-20.8 3.98,-34.84 11.83,-42.31 7.85,-7.47 22.24,-11.3 43.4,-11.3 20.79,0 35.01,3.64 42.67,10.94 7.66,7.28 11.49,21.13 11.49,41.56zm-9.85 643.15c0,2.92 -0.72,5.28 -2.17,7.3 -1.49,1.81 -3.66,3.66 -6.94,5.09 -3.3,1.29 -7.68,2.4 -13.49,3.1 -5.67,0.73 -12.94,1.11 -21.88,1.11 -8.77,0 -15.86,-0.38 -21.54,-1.11 -5.81,-0.7 -10.39,-1.81 -13.66,-3.1 -3.47,-1.43 -5.84,-3.28 -7.13,-5.09 -1.26,-2.02 -1.81,-4.38 -1.81,-7.3l0 -481.04c0,-2.55 0.55,-4.91 1.81,-6.93 1.29,-2.18 3.66,-4 7.13,-5.45 3.27,-1.28 7.85,-2.39 13.66,-3.13 5.68,-0.72 12.77,-1.09 21.54,-1.09 8.94,0 16.21,0.37 21.88,1.09 5.81,0.74 10.19,1.85 13.49,3.13 3.28,1.45 5.45,3.27 6.94,5.45 1.45,2.02 2.17,4.38 2.17,6.93l0 481.04zm-242.16 -643.15c0,20.82 -3.81,34.84 -11.66,42.31 -7.83,7.49 -22.24,11.32 -43.21,11.32 -20.79,0 -34.84,-3.65 -42.3,-10.96 -7.48,-7.28 -11.14,-21.13 -11.14,-41.56 0,-20.8 3.83,-34.84 11.5,-42.31 7.66,-7.47 21.87,-11.3 43.03,-11.3 20.96,0 35.2,3.64 42.67,10.94 7.47,7.28 11.11,21.13 11.11,41.56zm-9.83 664.49c0,35.55 -2.74,64.36 -8.02,86.24 -5.3,21.71 -13.69,40.12 -24.99,55.08 -11.3,14.94 -25.9,26.24 -43.76,33.91 -17.68,7.66 -39.22,11.49 -64.38,11.49 -11.3,0 -20.96,-0.75 -28.98,-2.19 -8.05,-1.47 -14.24,-2.92 -18.43,-4.75 -4.18,-1.83 -7.09,-3.81 -8.75,-6.21 -1.64,-2.35 -2.73,-4.92 -3.47,-8.01 -0.71,-3.1 -1.26,-6.21 -1.45,-9.3 -0.19,-3.27 -0.19,-7.3 -0.19,-11.85 0,-6.39 0.19,-12.03 0.74,-16.6 0.54,-4.56 1.45,-8.39 2.73,-11.3 1.29,-2.73 2.74,-4.92 4.19,-6 1.64,-1.3 3.66,-2.03 6.2,-2.03 2.01,0 6.21,0.56 12.4,1.47 6.19,0.9 13.5,1.28 21.52,1.28 11.85,0 21.88,-1.83 30.07,-5.3 8.41,-3.62 15.15,-9.3 20.45,-17.3 5.47,-8.05 9.3,-18.43 11.86,-31.19 2.36,-12.76 3.64,-32.11 3.64,-57.99l0 -501.83c0,-2.55 0.72,-4.91 2.17,-6.93 1.49,-2.18 3.85,-4 7.13,-5.45 3.45,-1.28 8.02,-2.39 13.66,-3.13 5.65,-0.72 12.77,-1.09 21.35,-1.09 8.56,0 15.68,0.37 21.32,1.09 5.65,0.74 10.22,1.85 13.69,3.13 3.28,1.45 5.64,3.27 7.09,5.45 1.48,2.02 2.21,4.38 2.21,6.93l0 502.38zm-326.22 -359.97c0,-37.37 -4.58,-72.19 -13.88,-104.48 -9.3,-32.26 -23.88,-60.17 -43.57,-83.7 -19.87,-23.52 -44.86,-41.74 -75.31,-55.06 -30.27,-13.12 -69.28,-19.69 -117.08,-19.69l-93.71 0 0 538.28 94.64 0c44.31,0 81.52,-5.46 111.95,-16.6 30.29,-10.93 55.62,-27.88 75.87,-50.67 20.42,-22.81 35.74,-51.44 45.76,-85.92 10.22,-34.25 15.33,-75.11 15.33,-122.16zm96.26 -3.99c0,59.81 -7.66,112.15 -22.97,156.8 -15.32,44.86 -37.75,81.87 -67.1,111.22 -29.37,29.37 -65.47,51.44 -108.14,66.02 -42.84,14.6 -93.73,21.88 -152.81,21.88l-146.4 0c-8.2,0 -16.07,-2.72 -23.35,-8.19 -7.3,-5.65 -10.96,-15.33 -10.96,-29.18l0 -616.69c0,-13.88 3.66,-23.54 10.96,-29.18 7.28,-5.47 15.15,-8.2 23.35,-8.2l156.43 0c59.99,0 110.5,7.66 151.89,23.14 41.23,15.49 75.87,37.94 103.95,66.93 27.9,28.99 49.05,64.17 63.46,105.57 14.39,41.22 21.69,87.89 21.69,139.88z"/>
  <polygon class="fil1" points="2613.03,2217.72 2507.1,2217.72 2507.1,2545.71 2464.14,2545.71 2464.14,2217.72 2358.48,2217.72 2358.48,2178.86 2613.03,2178.86 "/>
  <path id="1" class="fil1" d="M2882.51 2545.71l-42 0 0 -150.98c0,-54.58 -20.26,-81.82 -60.87,-81.82 -20.43,0 -37.72,7.86 -51.7,23.66 -13.97,15.81 -20.95,36.06 -20.95,60.78l0 148.36 -42.01 0 0 -387.8 42.01 0 0 169.32 1.04 0c20.09,-33.1 48.73,-49.6 85.93,-49.6 59.03,0 88.55,35.54 88.55,106.62l0 161.46z"/>
  <path id="2" class="fil1" d="M3172.08 2425.2l-184.96 0c0.7,29.17 8.56,51.7 23.58,67.59 15.02,15.81 35.63,23.76 61.91,23.76 29.52,0 56.59,-9.7 81.39,-29.17l0 39.38c-23.05,16.77 -53.53,25.07 -91.34,25.07 -37.03,0 -66.11,-11.88 -87.24,-35.63 -21.22,-23.84 -31.78,-57.29 -31.78,-100.43 0,-40.78 11.61,-73.96 34.66,-99.63 23.14,-25.68 51.87,-38.51 86.1,-38.51 34.32,0 60.78,11.09 79.56,33.27 18.77,22.09 28.12,52.92 28.12,92.3l0 22zm-42.97 -35.54c-0.17,-24.19 -6.02,-43.05 -17.46,-56.58 -11.53,-13.45 -27.51,-20.17 -48.03,-20.17 -19.74,0 -36.59,7.07 -50.39,21.22 -13.79,14.14 -22.35,32.65 -25.58,55.53l141.46 0z"/>
  <path id="3" class="fil1" d="M3709.21 2283.74l-78.59 261.97 -43.49 0 -53.97 -187.48c-2,-7.25 -3.4,-15.28 -4.1,-24.37l-1.05 0c-0.44,6.2 -2.27,14.06 -5.32,23.84l-58.6 188.01 -41.92 0 -79.37 -261.97 44.01 0 54.23 197c1.74,5.94 2.97,13.8 3.58,23.49l2.09 0c0.53,-7.51 2.01,-15.45 4.63,-24.01l60.34 -196.48 38.34 0 54.31 197.53c1.66,6.28 2.97,14.14 3.76,23.49l2.09 0c0.35,-6.64 1.75,-14.5 4.37,-23.49l53.18 -197.53 41.48 0z"/>
  <path id="4" class="fil1" d="M3965.77 2425.2l-184.95 0c0.69,29.17 8.55,51.7 23.57,67.59 15.02,15.81 35.63,23.76 61.92,23.76 29.51,0 56.58,-9.7 81.38,-29.17l0 39.38c-23.05,16.77 -53.53,25.07 -91.34,25.07 -37.02,0 -66.1,-11.88 -87.24,-35.63 -21.22,-23.84 -31.78,-57.29 -31.78,-100.43 0,-40.78 11.61,-73.96 34.67,-99.63 23.14,-25.68 51.87,-38.51 86.1,-38.51 34.32,0 60.78,11.09 79.55,33.27 18.78,22.09 28.12,52.92 28.12,92.3l0 22zm-42.96 -35.54c-0.18,-24.19 -6.03,-43.05 -17.47,-56.58 -11.53,-13.45 -27.51,-20.17 -48.03,-20.17 -19.73,0 -36.59,7.07 -50.38,21.22 -13.8,14.14 -22.36,32.65 -25.59,55.53l141.47 0z"/>
  <path id="5" class="fil1" d="M4072.3 2507.81l-1.04 0 0 37.9 -42.01 0 0 -387.8 42.01 0 0 171.85 1.04 0c20.61,-34.76 50.83,-52.13 90.56,-52.13 33.53,0 59.91,11.7 78.85,35.19 19.04,23.4 28.56,54.84 28.56,94.22 0,43.84 -10.66,78.94 -31.96,105.32 -21.31,26.28 -50.47,39.47 -87.5,39.47 -34.67,0 -60.78,-14.68 -78.51,-44.02zm-1.04 -105.66l0 36.59c0,21.66 6.98,40.08 21.13,55.19 14.06,15.11 31.87,22.62 53.53,22.62 25.41,0 45.32,-9.7 59.73,-29.17 14.41,-19.47 21.66,-46.46 21.66,-81.12 0,-29.17 -6.73,-51.96 -20.26,-68.56 -13.45,-16.5 -31.7,-24.79 -54.67,-24.79 -24.45,0 -44.01,8.47 -58.86,25.41 -14.84,17.03 -22.26,38.25 -22.26,63.83z"/>
  <path id="6" class="fil1" d="M4351.83 2551.3c-7.86,0 -14.5,-2.79 -20.08,-8.38 -5.51,-5.68 -8.3,-12.4 -8.3,-20.26 0,-7.86 2.79,-14.58 8.3,-20.35 5.58,-5.67 12.22,-8.56 20.08,-8.56 8.03,0 14.84,2.89 20.52,8.56 5.59,5.77 8.38,12.49 8.38,20.35 0,7.86 -2.79,14.58 -8.38,20.26 -5.68,5.59 -12.49,8.38 -20.52,8.38z"/>
  <path id="7" class="fil1" d="M4747.93 2551.83c-52.04,0 -93.69,-17.12 -124.96,-51.44 -31.26,-34.23 -46.98,-78.85 -46.98,-133.78 0,-59.03 15.98,-106.1 47.86,-141.2 31.87,-35.11 75.36,-52.75 130.28,-52.75 50.65,0 91.43,17.12 122.35,51.17 31,34.15 46.45,78.77 46.45,133.87 0,59.82 -15.89,107.15 -47.59,141.99 -31.7,34.76 -74.14,52.14 -127.41,52.14zm3.06 -340.22c-38.51,0 -69.77,13.88 -93.87,41.65 -24.02,27.86 -36.07,64.36 -36.07,109.51 0,45.23 11.7,81.56 35.19,109.15 23.41,27.51 54.06,41.31 91.69,41.31 40.26,0 71.96,-13.1 95.19,-39.39 23.23,-26.28 34.75,-63.04 34.75,-110.29 0,-48.46 -11.17,-85.84 -33.7,-112.29 -22.53,-26.47 -53.62,-39.65 -93.18,-39.65z"/>
  <path id="8" class="fil1" d="M5126.05 2326.18c-7.34,-5.59 -17.9,-8.38 -31.7,-8.38 -17.99,0 -32.92,8.38 -44.97,25.32 -11.97,16.85 -17.99,39.91 -17.99,69.07l0 133.52 -42 0 0 -261.97 42 0 0 53.96 1.05 0c5.93,-18.42 15.02,-32.74 27.33,-43.13 12.31,-10.31 26.02,-15.46 41.22,-15.46 10.91,0 19.21,1.22 25.06,3.58l0 43.49z"/>
  <path id="9" class="fil1" d="M5388.28 2524.76c0,96.14 -46.02,144.26 -138.14,144.26 -32.4,0 -60.69,-6.12 -84.97,-18.43l0 -41.92c29.52,16.33 57.63,24.54 84.44,24.54 64.45,0 96.67,-34.32 96.67,-102.87l0 -28.64 -0.96 0c-20,33.45 -50.04,50.13 -90.12,50.13 -32.57,0 -58.77,-11.62 -78.59,-34.93 -19.91,-23.23 -29.86,-54.49 -29.86,-93.7 0,-44.54 10.74,-79.9 32.13,-106.19 21.39,-26.28 50.74,-39.38 87.85,-39.38 35.37,0 61.47,14.14 78.59,42.44l0.96 0 0 -36.33 42 0 0 241.02zm-42 -97.46l0 -38.68c0,-20.79 -6.99,-38.6 -21.05,-53.45 -14.05,-14.84 -31.61,-22.26 -52.56,-22.26 -25.94,0 -46.29,9.43 -60.96,28.29 -14.67,18.86 -22,45.23 -22,79.12 0,29.16 7.07,52.48 21.13,70.03 14.06,17.46 32.75,26.2 55.89,26.2 23.58,0 42.7,-8.39 57.46,-25.06 14.75,-16.77 22.09,-38.17 22.09,-64.19z"/>
  <path id="10" class="fil1" d="M5660.74 2545.71l-42.01 0 0 -40.95 -0.96 0c-18.25,31.43 -45.14,47.07 -80.6,47.07 -26.11,0 -46.54,-6.9 -61.3,-20.7 -14.76,-13.8 -22.09,-32.13 -22.09,-55.01 0,-48.91 28.81,-77.46 86.45,-85.41l78.5 -11c0,-44.54 -17.99,-66.8 -53.96,-66.8 -31.53,0 -60,10.74 -85.41,32.22l0 -42.97c25.76,-16.41 55.37,-24.53 88.99,-24.53 61.56,0 92.39,32.57 92.39,97.71l0 170.37zm-42.01 -132.56l-63.13 8.74c-19.48,2.7 -34.15,7.51 -44.01,14.49 -9.87,6.9 -14.85,19.13 -14.85,36.68 0,12.75 4.54,23.23 13.71,31.35 9.08,8.12 21.22,12.14 36.42,12.14 20.78,0 37.98,-7.34 51.51,-21.84 13.63,-14.58 20.35,-33.09 20.35,-55.45l0 -26.11z"/>
  <path id="11" class="fil1" d="M5957.29 2545.71l-42 0 0 -149.41c0,-55.63 -20.26,-83.39 -60.87,-83.39 -20.96,0 -38.34,7.86 -52.05,23.66 -13.79,15.81 -20.6,35.72 -20.6,59.73l0 149.41 -42.01 0 0 -261.97 42.01 0 0 43.49 1.04 0c19.74,-33.1 48.38,-49.6 85.93,-49.6 28.64,0 50.56,9.25 65.76,27.77 15.19,18.42 22.79,45.23 22.79,80.16l0 160.15z"/>
  <path id="12" class="fil1" d="M6057.8 2217.2c-7.42,0 -13.89,-2.53 -19.12,-7.69 -5.33,-5.06 -7.95,-11.52 -7.95,-19.38 0,-7.86 2.62,-14.41 7.95,-19.56 5.23,-5.24 11.7,-7.86 19.12,-7.86 7.68,0 14.23,2.62 19.65,7.86 5.32,5.15 8.03,11.7 8.03,19.56 0,7.51 -2.71,13.88 -8.03,19.12 -5.42,5.33 -11.97,7.95 -19.65,7.95zm20.52 328.51l-42 0 0 -261.97 42 0 0 261.97z"/>
  <polygon id="13" class="fil1" points="6345.88,2295.79 6190.88,2509.91 6344.4,2509.91 6344.4,2545.71 6129.23,2545.71 6129.23,2532.7 6284.23,2319.54 6143.81,2319.54 6143.81,2283.74 6345.88,2283.74 "/>
  <path id="14" class="fil1" d="M6610.65 2425.2l-184.95 0c0.7,29.17 8.56,51.7 23.58,67.59 15.02,15.81 35.62,23.76 61.91,23.76 29.51,0 56.58,-9.7 81.39,-29.17l0 39.38c-23.06,16.77 -53.54,25.07 -91.35,25.07 -37.02,0 -66.1,-11.88 -87.23,-35.63 -21.22,-23.84 -31.79,-57.29 -31.79,-100.43 0,-40.78 11.61,-73.96 34.67,-99.63 23.14,-25.68 51.87,-38.51 86.1,-38.51 34.32,0 60.78,11.09 79.55,33.27 18.78,22.09 28.12,52.92 28.12,92.3l0 22zm-42.96 -35.54c-0.18,-24.19 -6.03,-43.05 -17.47,-56.58 -11.52,-13.45 -27.5,-20.17 -48.02,-20.17 -19.74,0 -36.59,7.07 -50.39,21.22 -13.8,14.14 -22.36,32.65 -25.59,55.53l141.47 0z"/>
  <path id="15" class="fil1" d="M6897.77 2545.71l-42 0 0 -44.53 -0.96 0c-19.47,33.79 -49.51,50.65 -90.12,50.65 -32.83,0 -59.2,-11.71 -78.85,-35.2 -19.74,-23.4 -29.6,-55.36 -29.6,-95.79 0,-43.31 10.91,-77.98 32.74,-104.09 21.83,-26.11 50.91,-39.12 87.24,-39.12 35.98,0 62.17,14.14 78.59,42.44l0.96 0 0 -162.16 42 0 0 387.8zm-42 -118.41l0 -38.68c0,-21.14 -6.99,-39.04 -20.96,-53.71 -13.97,-14.67 -31.7,-22 -53.18,-22 -25.58,0 -45.76,9.34 -60.43,28.11 -14.67,18.78 -22,44.72 -22,77.81 0,30.22 7.07,53.97 21.13,71.52 14.06,17.46 33.01,26.2 56.67,26.2 23.41,0 42.36,-8.47 56.94,-25.33 14.58,-16.85 21.83,-38.25 21.83,-63.92z"/>
  <path id="16" class="fil1" d="M6997.24 2551.3c-7.86,0 -14.5,-2.79 -20.09,-8.38 -5.5,-5.68 -8.29,-12.4 -8.29,-20.26 0,-7.86 2.79,-14.58 8.29,-20.35 5.59,-5.67 12.23,-8.56 20.09,-8.56 8.03,0 14.84,2.89 20.52,8.56 5.58,5.77 8.38,12.49 8.38,20.35 0,7.86 -2.8,14.58 -8.38,20.26 -5.68,5.59 -12.49,8.38 -20.52,8.38z"/>
  <path class="fil1" d="M0 261.11l0 -256.81 96.96 0c17.04,0 30.07,0.84 39.09,2.46 12.62,2.09 23.2,6.09 31.75,11.95 8.55,5.92 15.42,14.17 20.62,24.75 5.2,10.58 7.77,22.24 7.77,34.97 0,21.76 -6.93,40.23 -20.86,55.3 -13.87,15.12 -39.04,22.65 -75.38,22.65l-65.88 0 0 104.73 -34.07 0zm34.07 -134.86l66.36 0c22,0 37.54,-4.06 46.8,-12.25 9.21,-8.19 13.81,-19.67 13.81,-34.55 0,-10.7 -2.69,-19.91 -8.13,-27.56 -5.44,-7.65 -12.61,-12.73 -21.46,-15.18 -5.74,-1.5 -16.32,-2.28 -31.68,-2.28l-65.7 0 0 91.82z"/>
  <path id="1" class="fil1" d="M228.83 136.12c0,-42.57 11.48,-75.92 34.38,-100.01 22.89,-24.09 52.42,-36.11 88.65,-36.11 23.73,0 45.07,5.68 64.14,16.98 19.01,11.3 33.54,27.08 43.52,47.34 9.98,20.21 15,43.16 15,68.81 0,26 -5.26,49.31 -15.78,69.82 -10.52,20.56 -25.4,36.11 -44.65,46.63 -19.31,10.58 -40.12,15.84 -62.41,15.84 -24.21,0 -45.79,-5.86 -64.86,-17.52 -19.01,-11.65 -33.48,-27.56 -43.28,-47.76 -9.81,-20.15 -14.71,-41.49 -14.71,-64.02zm35.15 0.59c0,30.91 8.31,55.24 24.93,72.99 16.62,17.76 37.48,26.67 62.59,26.67 25.58,0 46.57,-8.97 63.13,-26.9 16.49,-17.94 24.74,-43.4 24.74,-76.4 0,-20.86 -3.52,-39.1 -10.58,-54.64 -7.05,-15.54 -17.39,-27.62 -30.96,-36.16 -13.63,-8.55 -28.88,-12.86 -45.79,-12.86 -24.03,0 -44.72,8.25 -62.05,24.75 -17.34,16.5 -26.01,44 -26.01,82.55z"/>
  <path id="2" class="fil1" d="M562.52 261.11l-67.61 -256.81 35.27 0 38.5 168.4c4.18,17.64 7.89,35.15 11.06,52.49 6.75,-27.38 10.7,-43.16 11.83,-47.35l48.54 -173.54 40.95 0 36.82 130.02c9.03,32.28 15.73,62.59 20.03,90.87 3.41,-16.2 7.77,-34.79 13.09,-55.78l40.11 -165.11 34.13 0 -70.29 256.81 -33.06 0 -53.86 -195.65c-4.55,-16.38 -7.3,-26.42 -8.31,-30.13 -2.93,11.72 -5.56,21.76 -7.83,30.07l-53.86 195.71 -35.51 0z"/>
  <polygon id="3" class="fil1" points="857.47,261.11 857.47,4.3 1042.9,4.3 1042.9,34.43 891.54,34.43 891.54,113.34 1033.22,113.34 1033.22,143.47 891.54,143.47 891.54,230.99 1049,230.99 1049,261.11 "/>
  <path id="4" class="fil1" d="M1096.7 261.11l0 -256.81 113.82 0c22.9,0 40.29,2.34 52.19,6.94 11.89,4.6 21.4,12.73 28.51,24.39 7.11,11.66 10.64,24.57 10.64,38.68 0,18.23 -5.92,33.59 -17.69,46.09 -11.78,12.49 -29.95,20.38 -54.58,23.79 9.03,4.3 15.84,8.61 20.5,12.79 9.93,9.09 19.31,20.5 28.1,34.19l44.41 69.94 -42.44 0 -33.95 -53.44c-9.87,-15.48 -18.05,-27.26 -24.45,-35.45 -6.46,-8.19 -12.2,-13.87 -17.28,-17.15 -5.02,-3.23 -10.22,-5.5 -15.48,-6.82 -3.83,-0.77 -10.1,-1.19 -18.89,-1.19l-39.33 0 0 114.05 -34.08 0zm34.08 -143.47l72.93 0c15.54,0 27.61,-1.61 36.34,-4.84 8.73,-3.17 15.36,-8.3 19.85,-15.42 4.54,-7.05 6.81,-14.7 6.81,-23.01 0,-12.14 -4.36,-22.18 -13.15,-30.01 -8.79,-7.83 -22.66,-11.72 -41.6,-11.72l-81.18 0 0 85z"/>
  <polygon id="5" class="fil1" points="1355.72,261.11 1355.72,4.3 1541.16,4.3 1541.16,34.43 1389.8,34.43 1389.8,113.34 1531.47,113.34 1531.47,143.47 1389.8,143.47 1389.8,230.99 1547.25,230.99 1547.25,261.11 "/>
  <path id="6" class="fil1" d="M1594.24 261.11l0 -256.81 88.47 0c19.97,0 35.21,1.2 45.73,3.65 14.71,3.41 27.26,9.57 37.66,18.41 13.57,11.48 23.68,26.07 30.37,43.88 6.76,17.82 10.11,38.2 10.11,61.1 0,19.48 -2.28,36.76 -6.82,51.82 -4.54,15.07 -10.4,27.56 -17.52,37.42 -7.17,9.87 -14.94,17.64 -23.43,23.26 -8.43,5.68 -18.65,9.98 -30.61,12.91 -12.01,2.93 -25.76,4.36 -41.3,4.36l-92.66 0zm34.07 -30.12l54.76 0c16.92,0 30.19,-1.56 39.81,-4.73 9.63,-3.16 17.28,-7.59 23.02,-13.33 8.01,-8.07 14.29,-18.95 18.77,-32.58 4.48,-13.63 6.75,-30.12 6.75,-49.55 0,-26.9 -4.42,-47.59 -13.21,-62.05 -8.78,-14.47 -19.48,-24.15 -32.1,-29.06 -9.09,-3.52 -23.73,-5.26 -43.93,-5.26l-53.87 0 0 196.56z"/>
  <path id="7" class="fil1" d="M1951.48 261.11l0 -256.81 96.36 0c19.61,0 35.33,2.58 47.23,7.78 11.83,5.2 21.1,13.21 27.79,24.03 6.76,10.76 10.11,22.06 10.11,33.89 0,10.94 -2.99,21.28 -8.91,30.97 -5.92,9.68 -14.89,17.51 -26.9,23.49 15.54,4.54 27.5,12.32 35.81,23.31 8.36,10.94 12.55,23.92 12.55,38.86 0,12.07 -2.57,23.25 -7.65,33.6 -5.08,10.34 -11.36,18.29 -18.83,23.91 -7.47,5.56 -16.86,9.8 -28.1,12.67 -11.3,2.87 -25.11,4.3 -41.49,4.3l-97.97 0zm34.07 -148.84l55.54 0c15.06,0 25.88,-1.02 32.4,-2.99 8.66,-2.57 15.18,-6.88 19.54,-12.86 4.37,-5.97 6.58,-13.45 6.58,-22.47 0,-8.55 -2.03,-16.08 -6.16,-22.54 -4.06,-6.51 -9.92,-11 -17.51,-13.39 -7.6,-2.39 -20.63,-3.59 -39.04,-3.59l-51.35 0 0 77.84zm0 118.72l63.97 0c10.99,0 18.71,-0.42 23.19,-1.26 7.77,-1.37 14.35,-3.71 19.61,-6.99 5.26,-3.29 9.56,-8.07 12.97,-14.35 3.41,-6.28 5.08,-13.51 5.08,-21.7 0,-9.62 -2.45,-17.93 -7.41,-25.05 -4.9,-7.11 -11.72,-12.07 -20.45,-14.94 -8.66,-2.87 -21.22,-4.3 -37.54,-4.3l-59.42 0 0 88.59z"/>
  <path id="8" class="fil1" d="M2264.54 261.11l0 -108.79 -98.99 -148.02 40.89 0 50.75 77.72c9.44,14.4 18.23,28.81 26.24,43.22 7.83,-13.45 17.34,-28.52 28.39,-45.25l49.74 -75.69 39.63 0 -102.58 148.02 0 108.79 -34.07 0z"/>
 </g>
</svg>
