<?xml version="1.0" encoding="utf-8"?>
<!-- Generator: Adobe Illustrator 19.2.0, SVG Export Plug-In . SVG Version: 6.00 Build 0)  -->
<svg version="1.1" id="Layer_1" xmlns="http://www.w3.org/2000/svg" xmlns:xlink="http://www.w3.org/1999/xlink" x="0px" y="0px"
	 viewBox="0 0 300 300" style="enable-background:new 0 0 300 300;" xml:space="preserve">
<style type="text/css">
	.st0{fill:#FFFFFF;}
	.st1{fill:none;}
</style>
<g id="Plan_x0020_1">
	<path class="st0" d="M104.1,0l0.1,114.5H12.3v161h183.5V0C195.8,0,104.1,0,104.1,0z M127.1,22.9H173v228.6H35.3V137.3h68.9v46.3h-6
		c-9.4,0-17,7.6-17,17v5.3h45.9L127.1,22.9L127.1,22.9L127.1,22.9z M218.9,0v68.5h68.8V0H218.9L218.9,0z M264.7,46h-23.1V22.9h23.1
		V46z"/>
	<path class="st0" d="M222.9,275.5c-1.6,0-3.1-0.3-4.5-0.9c-1.4-0.6-2.6-1.4-3.7-2.5c-1-1-1.9-2.3-2.5-3.7c-0.6-1.4-0.9-2.9-0.9-4.5
		c0-1.6,0.3-3.1,0.9-4.5c0.6-1.4,1.4-2.6,2.5-3.6c1.1-1,2.3-1.8,3.7-2.5c1.4-0.6,2.9-0.9,4.5-0.9c1.6,0,3.1,0.3,4.5,0.9
		c1.4,0.6,2.6,1.4,3.7,2.5c1.1,1,1.9,2.3,2.5,3.6c0.6,1.4,0.9,2.9,0.9,4.5c0,1.6-0.3,3.1-0.9,4.5c-0.6,1.4-1.4,2.6-2.5,3.7
		c-1,1.1-2.3,1.9-3.7,2.5C225.9,275.2,224.4,275.5,222.9,275.5z M222.9,274c1.4,0,2.7-0.3,3.9-0.8c1.2-0.5,2.2-1.2,3.1-2.1
		c0.8-0.9,1.5-2,2-3.2c0.5-1.2,0.7-2.5,0.7-3.9c0-1.4-0.2-2.7-0.7-3.9c-0.5-1.2-1.1-2.3-2-3.2c-0.8-0.9-1.9-1.6-3.1-2.1
		c-1.2-0.5-2.5-0.8-3.9-0.8c-1.4,0-2.7,0.3-3.9,0.8c-1.2,0.5-2.2,1.2-3.1,2.1c-0.9,0.9-1.5,1.9-2,3.2c-0.5,1.2-0.7,2.5-0.7,3.9
		c0,1.4,0.2,2.7,0.7,3.9c0.5,1.2,1.2,2.3,2,3.2c0.9,0.9,1.9,1.6,3.1,2.1C220.2,273.7,221.5,274,222.9,274z M228.6,270.4h-1.9
		l-3.7-5.9h-2.9v5.9h-1.6v-12.8h5.6c1.7,0,2.9,0.3,3.6,0.9c0.7,0.6,1,1.4,1,2.5c0,0.6-0.1,1.2-0.3,1.6c-0.2,0.4-0.5,0.8-0.8,1.1
		c-0.4,0.3-0.8,0.5-1.3,0.6c-0.5,0.1-1,0.2-1.6,0.2L228.6,270.4L228.6,270.4z M222.6,263.2c0.4,0,0.9,0,1.5,0c0.5,0,1-0.1,1.5-0.2
		c0.5-0.1,0.8-0.3,1.1-0.7c0.3-0.3,0.4-0.8,0.4-1.5c0-0.5-0.1-0.9-0.3-1.2c-0.2-0.3-0.5-0.5-0.8-0.7c-0.3-0.2-0.6-0.2-1-0.3
		c-0.4,0-0.8-0.1-1.1-0.1h-3.7v4.6H222.6L222.6,263.2z"/>
	<rect y="0" class="st1" width="300" height="300"/>
</g>
</svg>
