<?xml version="1.0" encoding="UTF-8"?>
<!DOCTYPE svg PUBLIC "-//W3C//DTD SVG 1.1//EN" "http://www.w3.org/Graphics/SVG/1.1/DTD/svg11.dtd">
<!-- Creator: CorelDRAW 2019 (64-Bit) -->
<svg xmlns="http://www.w3.org/2000/svg" xml:space="preserve" width="90px" height="131px" version="1.1" style="shape-rendering:geometricPrecision; text-rendering:geometricPrecision; image-rendering:optimizeQuality; fill-rule:evenodd; clip-rule:evenodd"
viewBox="0 0 11.52 16.7"
 xmlns:xlink="http://www.w3.org/1999/xlink"
 xmlns:xodm="http://www.corel.com/coreldraw/odm/2003">
 <defs>
  <style type="text/css">
   <![CDATA[
    .fil1 {fill:#FEFEFE}
    .fil0 {fill:#9D9E9E}
   ]]>
  </style>
 </defs>
 <g id="Plan_x0020_1">
  <metadata id="CorelCorpID_0Corel-Layer"/>
  <path class="fil0" d="M5.76 0c3.18,0 5.76,2.58 5.76,5.76 0,5.82 -5.76,10.94 -5.76,10.94 0,0 -5.76,-5.12 -5.76,-10.94 0,-3.18 2.58,-5.76 5.76,-5.76z"/>
  <path class="fil1" d="M2.3 5.76c0,-1.91 1.55,-3.46 3.46,-3.46 1.91,0 3.46,1.55 3.46,3.46 0,1.91 -1.55,3.46 -3.46,3.46 -1.91,0 -3.46,-1.55 -3.46,-3.46z"/>
  <path class="fil1" d="M2.3 5.76c0,-1.91 1.55,-3.46 3.46,-3.46 1.91,0 3.46,1.55 3.46,3.46 0,1.91 -1.55,3.46 -3.46,3.46 -1.91,0 -3.46,-1.55 -3.46,-3.46z"/>
  <path class="fil1" d="M2.3 5.76c0,-1.91 1.55,-3.46 3.46,-3.46 1.91,0 3.46,1.55 3.46,3.46 0,1.91 -1.55,3.46 -3.46,3.46 -1.91,0 -3.46,-1.55 -3.46,-3.46z"/>
 </g>
</svg>
