<?xml version="1.0" encoding="UTF-8"?>
<!DOCTYPE svg PUBLIC "-//W3C//DTD SVG 1.1//EN" "http://www.w3.org/Graphics/SVG/1.1/DTD/svg11.dtd">
<!-- Creator: CorelDRAW 2020 (64-Bit) -->
<svg xmlns="http://www.w3.org/2000/svg" xml:space="preserve" width="200px" height="260px" version="1.1" style="shape-rendering:geometricPrecision; text-rendering:geometricPrecision; image-rendering:optimizeQuality; fill-rule:evenodd; clip-rule:evenodd"
viewBox="0 0 9.94 12.93"
 xmlns:xlink="http://www.w3.org/1999/xlink"
 xmlns:xodm="http://www.corel.com/coreldraw/odm/2003">
 <defs>
  <style type="text/css">
   <![CDATA[
    .str2 {stroke:#C5C6C6;stroke-width:0.08;stroke-miterlimit:22.9256;stroke-opacity:0.501961}
    .str1 {stroke:#2B2A29;stroke-width:0.08;stroke-miterlimit:22.9256;stroke-opacity:0.501961}
    .str4 {stroke:#C5C6C6;stroke-width:0.03;stroke-miterlimit:22.9256;stroke-opacity:0.501961}
    .str3 {stroke:#2B2A29;stroke-width:0.03;stroke-miterlimit:22.9256;stroke-opacity:0.501961}
    .str0 {stroke:#CBCBCB;stroke-width:0.03;stroke-miterlimit:22.9256}
    .fil1 {fill:none}
    .fil0 {fill:#FEFEFE}
    .fil2 {fill:#EBECEC;fill-opacity:0.501961}
   ]]>
  </style>
 </defs>
 <g id="Plan_x0020_1">
  <metadata id="CorelCorpID_0Corel-Layer"/>
  <g id="_3070086741552">
   <rect class="fil0 str0" x="0.01" y="0.01" width="9.91" height="12.91" rx="0.18" ry="0.17"/>
   <g>
    <g>
     <line class="fil1 str1" x1="1.52" y1="1.09" x2="5.71" y2= "1.09" />
     <line class="fil1 str2" x1="1.52" y1="1.46" x2="5.71" y2= "1.46" />
     <line class="fil1 str2" x1="1.52" y1="1.83" x2="5.71" y2= "1.83" />
     <line class="fil1 str2" x1="1.52" y1="2.2" x2="5.17" y2= "2.2" />
    </g>
    <g>
     <line class="fil1 str3" x1="1.52" y1="6.37" x2="3.62" y2= "6.37" />
     <line class="fil1 str4" x1="1.52" y1="6.53" x2="3.62" y2= "6.53" />
     <line class="fil1 str4" x1="1.52" y1="6.69" x2="3.62" y2= "6.69" />
     <line class="fil1 str4" x1="1.52" y1="6.85" x2="3.35" y2= "6.85" />
    </g>
    <g>
     <line class="fil1 str3" x1="1.52" y1="7.53" x2="3.62" y2= "7.53" />
     <line class="fil1 str4" x1="1.52" y1="7.69" x2="3.62" y2= "7.69" />
     <line class="fil1 str4" x1="1.52" y1="7.85" x2="3.62" y2= "7.85" />
     <line class="fil1 str4" x1="1.52" y1="8.01" x2="3.35" y2= "8.01" />
    </g>
    <g>
     <line class="fil1 str3" x1="1.52" y1="11.36" x2="3.62" y2= "11.36" />
     <line class="fil1 str4" x1="1.52" y1="11.52" x2="3.62" y2= "11.52" />
     <line class="fil1 str4" x1="1.52" y1="11.69" x2="3.62" y2= "11.69" />
     <line class="fil1 str4" x1="1.52" y1="11.85" x2="3.35" y2= "11.85" />
    </g>
    <g>
     <g>
      <line class="fil1 str3" x1="1.52" y1="5.21" x2="3.62" y2= "5.21" />
      <line class="fil1 str4" x1="1.52" y1="5.37" x2="3.62" y2= "5.37" />
      <line class="fil1 str4" x1="1.52" y1="5.54" x2="3.62" y2= "5.54" />
      <line class="fil1 str4" x1="1.52" y1="5.7" x2="3.35" y2= "5.7" />
     </g>
     <g>
      <line class="fil1 str3" x1="4.55" y1="5.21" x2="6.65" y2= "5.21" />
      <line class="fil1 str4" x1="4.55" y1="5.37" x2="6.65" y2= "5.37" />
      <line class="fil1 str4" x1="4.55" y1="5.54" x2="6.65" y2= "5.54" />
      <line class="fil1 str4" x1="4.55" y1="5.7" x2="6.38" y2= "5.7" />
     </g>
    </g>
    <g>
     <g>
      <line class="fil1 str3" x1="1.52" y1="9.94" x2="3.62" y2= "9.94" />
      <line class="fil1 str4" x1="1.52" y1="10.1" x2="3.62" y2= "10.1" />
      <line class="fil1 str4" x1="1.52" y1="10.26" x2="3.62" y2= "10.26" />
      <line class="fil1 str4" x1="1.52" y1="10.42" x2="3.35" y2= "10.42" />
     </g>
     <g>
      <line class="fil1 str3" x1="4.55" y1="9.94" x2="6.65" y2= "9.94" />
      <line class="fil1 str4" x1="4.55" y1="10.1" x2="6.65" y2= "10.1" />
      <line class="fil1 str4" x1="4.55" y1="10.26" x2="6.65" y2= "10.26" />
      <line class="fil1 str4" x1="4.55" y1="10.42" x2="6.38" y2= "10.42" />
     </g>
    </g>
    <polygon class="fil2" points="1.52,4.54 7.19,4.54 7.19,2.87 1.52,2.87 "/>
    <polygon class="fil2" points="4.6,9.09 7.29,9.09 7.29,6.3 4.6,6.3 "/>
   </g>
  </g>
 </g>
</svg>
