<?xml version="1.0" encoding="utf-8"?>
<!-- Generator: Adobe Illustrator 19.2.0, SVG Export Plug-In . SVG Version: 6.00 Build 0)  -->
<svg version="1.1" id="Layer_1" xmlns="http://www.w3.org/2000/svg" xmlns:xlink="http://www.w3.org/1999/xlink" x="0px" y="0px"
	 viewBox="0 0 273 273" style="enable-background:new 0 0 273 273;" xml:space="preserve">
<style type="text/css">
	.st0{fill:none;}
	.st1{fill:#727272;}
</style>
<g id="Plan_x0020_1">
	<g id="_1712523296080">
		<g>
			<polygon class="st0" points="273,273 0,273 0,0 273,0 			"/>
		</g>
		<g>
			<path class="st1" d="M203.9,102.9l23-2.3C219.9,43.2,171.5,0,113.7,0C51.2,0,0,51.2,0,113.7c0,63,51.2,113.7,113.7,113.7
				c17.4,0,33.8-3.8,48.9-10.8l-9.9-20.7c-12.2,5.6-25.4,8.9-39,8.9c-50.3,0-91.2-40.9-91.2-91.2c0-23,8.9-43.7,23-60.1v60.1h25.8
				l25.4,75.7l62.5-47V68.1H125V23.5C166.3,28.7,199.2,61.1,203.9,102.9L203.9,102.9z M136.3,91.2L136.3,91.2v39.5l-28.2,21.6
				L87.9,91.2H68.1V35.2c10.3-6.1,22.1-10.3,34.3-11.7v67.7H136.3L136.3,91.2z"/>
			<path class="st1" d="M227.4,125c-24.9,0-45.6,20.7-45.6,45.6c0,33.8,26.3,72.8,45.6,98.7c19.7-25.8,45.6-64.8,45.6-98.7
				C273,145.7,252.8,125,227.4,125z M227.4,229.8L227.4,229.8c-9.9-16-22.6-40.9-22.6-59.2c0-12.7,9.9-22.6,22.6-22.6
				c12.7,0,23,9.9,23,22.6C250.4,188.9,237.8,213.8,227.4,229.8z"/>
		</g>
	</g>
</g>
</svg>
