<?xml version="1.0" encoding="UTF-8"?>
<!DOCTYPE svg PUBLIC "-//W3C//DTD SVG 1.1//EN" "http://www.w3.org/Graphics/SVG/1.1/DTD/svg11.dtd">
<!-- Creator: CorelDRAW 2020 (64-Bit) -->
<svg xmlns="http://www.w3.org/2000/svg" xml:space="preserve" width="11px" height="16px" version="1.1" style="shape-rendering:geometricPrecision; text-rendering:geometricPrecision; image-rendering:optimizeQuality; fill-rule:evenodd; clip-rule:evenodd"
viewBox="0 0 0.1 0.15"
 xmlns:xlink="http://www.w3.org/1999/xlink"
 xmlns:xodm="http://www.corel.com/coreldraw/odm/2003">
 <defs>
  <style type="text/css">
   <![CDATA[
    .fil0 {fill:#FEFEFE}
    .fil1 {fill:gray}
   ]]>
  </style>
 </defs>
 <g id="Plan_x0020_1">
  <metadata id="CorelCorpID_0Corel-Layer"/>
  <g id="_2749016184672">
   <path class="fil0" d="M0.02 0.05c0,-0.02 0.01,-0.03 0.03,-0.03 0.02,0 0.03,0.02 0.03,0.03 0,0.02 -0.01,0.03 -0.03,0.03 -0.02,0 -0.03,-0.01 -0.03,-0.03z"/>
   <path class="fil0" d="M0.02 0.05c0,-0.02 0.01,-0.03 0.03,-0.03 0.02,0 0.03,0.02 0.03,0.03 0,0.02 -0.01,0.03 -0.03,0.03 -0.02,0 -0.03,-0.01 -0.03,-0.03z"/>
   <path class="fil1" d="M0.05 0c0.03,0 0.05,0.02 0.05,0.05 0,0.06 -0.05,0.1 -0.05,0.1 0,0 -0.05,-0.04 -0.05,-0.1 0,-0.03 0.02,-0.05 0.05,-0.05z"/>
   <path class="fil0" d="M0.02 0.05c0,-0.02 0.01,-0.03 0.03,-0.03 0.02,0 0.03,0.02 0.03,0.03 0,0.02 -0.01,0.03 -0.03,0.03 -0.02,0 -0.03,-0.01 -0.03,-0.03z"/>
  </g>
 </g>
</svg>
