<?xml version="1.0" encoding="utf-8"?>
<!-- Generator: Adobe Illustrator 19.2.0, SVG Export Plug-In . SVG Version: 6.00 Build 0)  -->
<svg version="1.1" id="Layer_1" xmlns:xodm="http://www.corel.com/coreldraw/odm/2003"
	 xmlns="http://www.w3.org/2000/svg" xmlns:xlink="http://www.w3.org/1999/xlink" x="0px" y="0px" viewBox="0 0 90 131"
	 style="enable-background:new 0 0 90 131;" xml:space="preserve">
<style type="text/css">
	.st0{fill:#008DD2;}
	.st1{fill:#FEFEFE;}
</style>
<g id="Plan_x0020_1">
	<path class="st0" d="M45,0.3c24.8,0,45,20.2,45,45c0,45.5-45,85.5-45,85.5S0,90.7,0,45.3C0,20.4,20.2,0.3,45,0.3z"/>
	<path class="st1" d="M18,45.3c0-14.9,12.1-27,27-27s27,12.1,27,27s-12.1,27-27,27S18,60.2,18,45.3z"/>
	<path class="st1" d="M18,45.3c0-14.9,12.1-27,27-27s27,12.1,27,27s-12.1,27-27,27S18,60.2,18,45.3z"/>
	<path class="st1" d="M18,45.3c0-14.9,12.1-27,27-27s27,12.1,27,27s-12.1,27-27,27S18,60.2,18,45.3z"/>
</g>
</svg>
