<?xml version="1.0" encoding="UTF-8"?>
<svg xmlns="http://www.w3.org/2000/svg" xmlns:xlink="http://www.w3.org/1999/xlink" width="68pt" height="98pt" viewBox="0 0 68 98" version="1.1">
<g id="surface1">
<path style=" stroke:none;fill-rule:evenodd;fill:rgb(89.019608%,11.764706%,14.117647%);fill-opacity:1;" d="M 34.046875 0.179688 C 52.785156 0.179688 68 15.242188 68 33.890625 C 68 67.875 34.046875 97.820312 34.046875 97.820312 C 34.046875 97.820312 0 67.875 0 33.890625 C 0 15.242188 15.214844 0.179688 34.046875 0.179688 Z M 34.046875 0.179688 "/>
<path style=" stroke:none;fill-rule:evenodd;fill:rgb(99.607843%,99.607843%,99.607843%);fill-opacity:1;" d="M 13.636719 33.796875 C 13.636719 22.683594 22.726562 13.683594 34.046875 13.683594 C 45.273438 13.683594 54.363281 22.683594 54.363281 33.890625 C 54.363281 45.003906 45.273438 54.007812 34.046875 54.007812 C 22.726562 54.007812 13.636719 45.003906 13.636719 33.796875 Z M 13.636719 33.796875 "/>
<path style=" stroke:none;fill-rule:evenodd;fill:rgb(99.607843%,99.607843%,99.607843%);fill-opacity:1;" d="M 13.636719 33.796875 C 13.636719 22.683594 22.726562 13.683594 34.046875 13.683594 C 45.273438 13.683594 54.363281 22.683594 54.363281 33.890625 C 54.363281 45.003906 45.273438 54.007812 34.046875 54.007812 C 22.726562 54.007812 13.636719 45.003906 13.636719 33.796875 Z M 13.636719 33.796875 "/>
<path style=" stroke:none;fill-rule:evenodd;fill:rgb(99.607843%,99.607843%,99.607843%);fill-opacity:1;" d="M 13.636719 33.796875 C 13.636719 22.683594 22.726562 13.683594 34.046875 13.683594 C 45.273438 13.683594 54.363281 22.683594 54.363281 33.890625 C 54.363281 45.003906 45.273438 54.007812 34.046875 54.007812 C 22.726562 54.007812 13.636719 45.003906 13.636719 33.796875 Z M 13.636719 33.796875 "/>
</g>
</svg>
